# Blender 5.0.0
# www.blender.org
mtllib moon.mtl
o Sphere
v -0.055342 0.660641 -0.379982
v -0.055342 0.384742 -0.655881
v -0.016848 0.143200 -0.809726
v 0.000000 0.000000 -1.000000
v 0.000000 -0.195090 -0.980785
v 0.000000 -0.555570 -0.831470
v 0.038060 0.980785 -0.191342
v 0.019316 0.753051 -0.199742
v 0.053044 0.660641 -0.369306
v 0.040228 0.417043 -0.378226
v 0.064490 0.265507 -0.500199
v 0.163392 0.330793 -0.735068
v 0.174494 0.143200 -0.790881
v 0.195090 0.000000 -0.980785
v 0.191342 -0.195090 -0.961940
v 0.180240 -0.382683 -0.906127
v 0.162212 -0.555570 -0.815493
v 0.137950 -0.707107 -0.693520
v 0.108386 -0.831470 -0.544895
v 0.074658 -0.923880 -0.375330
v 0.038060 -0.980785 -0.191342
v 0.074658 0.980785 -0.180240
v 0.146447 0.923880 -0.353553
v 0.212608 0.831470 -0.513280
v 0.228219 0.587872 -0.513576
v 0.275810 0.436335 -0.628472
v 0.353553 0.382683 -0.853553
v 0.375330 0.195090 -0.906127
v 0.382683 0.000000 -0.923879
v 0.375330 -0.195090 -0.906127
v 0.353553 -0.382683 -0.853553
v 0.318190 -0.555570 -0.768178
v 0.270598 -0.707107 -0.653281
v 0.212608 -0.831470 -0.513280
v 0.146447 -0.923880 -0.353553
v 0.074658 -0.980785 -0.180240
v 0.108386 0.980785 -0.162212
v 0.212608 0.923880 -0.318190
v 0.308658 0.831470 -0.461940
v 0.392295 0.705552 -0.586117
v 0.461940 0.555570 -0.691342
v 0.513280 0.382683 -0.768178
v 0.544895 0.195090 -0.815493
v 0.555570 0.000000 -0.831469
v 0.544895 -0.195090 -0.815493
v 0.513280 -0.382683 -0.768178
v 0.461940 -0.555570 -0.691342
v 0.392847 -0.707107 -0.587938
v 0.308658 -0.831470 -0.461940
v 0.212608 -0.923880 -0.318190
v 0.108386 -0.980785 -0.162212
v 0.137950 0.980785 -0.137950
v 0.270598 0.923880 -0.270598
v 0.392847 0.831470 -0.392847
v 0.500000 0.707107 -0.500000
v 0.587938 0.555570 -0.587938
v 0.653281 0.382683 -0.653281
v 0.707107 0.000000 -0.707107
v 0.693520 -0.195090 -0.693520
v 0.653281 -0.382683 -0.653281
v 0.587938 -0.555570 -0.587938
v 0.392847 -0.831470 -0.392847
v 0.270598 -0.923880 -0.270598
v 0.137950 -0.980785 -0.137950
v 0.162212 0.980785 -0.108386
v 0.318190 0.923880 -0.212608
v 0.461940 0.831470 -0.308658
v 0.587938 0.707107 -0.392847
v 0.691342 0.555570 -0.461940
v 0.768178 0.382683 -0.513280
v 0.815493 0.195090 -0.544895
v 0.831470 0.000000 -0.555570
v 0.815493 -0.195090 -0.544895
v 0.768178 -0.382683 -0.513280
v 0.691342 -0.555570 -0.461940
v 0.587938 -0.707107 -0.392847
v 0.461940 -0.831470 -0.308658
v 0.318190 -0.923880 -0.212608
v 0.162212 -0.980785 -0.108386
v 0.000000 1.000000 0.000000
v 0.180240 0.980785 -0.074658
v 0.353553 0.923880 -0.146447
v 0.513280 0.831470 -0.212607
v 0.653281 0.707107 -0.270598
v 0.768178 0.555570 -0.318190
v 0.853553 0.382683 -0.353553
v 0.906127 0.195090 -0.375330
v 0.923879 0.000000 -0.382683
v 0.906127 -0.195090 -0.375330
v 0.853553 -0.382683 -0.353553
v 0.768178 -0.555570 -0.318190
v 0.653281 -0.707107 -0.270598
v 0.513280 -0.831470 -0.212607
v 0.353553 -0.923880 -0.146447
v 0.180240 -0.980785 -0.074658
v 0.191342 0.980785 -0.038060
v 0.375330 0.923880 -0.074658
v 0.544895 0.831470 -0.108386
v 0.693520 0.707107 -0.137950
v 0.815493 0.555570 -0.162212
v 0.906127 0.382683 -0.180240
v 0.961940 0.195090 -0.191342
v 0.980785 0.000000 -0.195090
v 0.961940 -0.195090 -0.191342
v 0.906127 -0.382683 -0.180240
v 0.815493 -0.555570 -0.162212
v 0.693520 -0.707107 -0.137950
v 0.544895 -0.831470 -0.108386
v 0.191342 -0.980785 -0.038060
v 0.195090 0.980785 0.000000
v 0.382683 0.923880 0.000000
v 0.555570 0.831470 0.000000
v 0.707107 0.707107 -0.000000
v 0.831469 0.555570 0.000000
v 0.980785 0.195090 0.000000
v 1.000000 0.000000 0.000000
v 0.980785 -0.195090 0.000000
v 0.923879 -0.382683 -0.000000
v 0.831469 -0.555570 0.000000
v 0.707107 -0.707107 -0.000000
v 0.555570 -0.831470 0.000000
v 0.195090 -0.980785 0.000000
v 0.191342 0.980785 0.038060
v 0.375330 0.923880 0.074658
v 0.544895 0.831470 0.108386
v 0.693520 0.707107 0.137950
v 0.815493 0.555570 0.162212
v 0.906127 0.382683 0.180240
v 0.961940 0.195090 0.191342
v 0.980785 0.000000 0.195090
v 0.961940 -0.195090 0.191342
v 0.906127 -0.382683 0.180240
v 0.815493 -0.555570 0.162212
v 0.693520 -0.707107 0.137950
v 0.544895 -0.831470 0.108386
v 0.191342 -0.980785 0.038060
v 0.180240 0.980785 0.074658
v 0.353553 0.923880 0.146447
v 0.513280 0.831470 0.212608
v 0.653281 0.707107 0.270598
v 0.768178 0.555570 0.318190
v 0.853553 0.382683 0.353553
v 0.906127 0.195090 0.375330
v 0.923879 0.000000 0.382683
v 0.906127 -0.195090 0.375330
v 0.653281 -0.707107 0.270598
v 0.513280 -0.831470 0.212608
v 0.353553 -0.923880 0.146447
v 0.180240 -0.980785 0.074658
v 0.162212 0.980785 0.108386
v 0.318190 0.923880 0.212608
v 0.461940 0.831470 0.308658
v 0.587938 0.707107 0.392847
v 0.691341 0.555570 0.461940
v 0.768178 0.382683 0.513280
v 0.815493 0.195090 0.544895
v 0.831469 0.000000 0.555570
v 0.815493 -0.195090 0.544895
v 0.587938 -0.707107 0.392847
v 0.461940 -0.831470 0.308658
v 0.318190 -0.923880 0.212608
v 0.162212 -0.980785 0.108386
v 0.137950 0.980785 0.137950
v 0.270598 0.923880 0.270598
v 0.392847 0.831470 0.392847
v 0.500000 0.707107 0.500000
v 0.587938 0.555570 0.587938
v 0.653281 0.382683 0.653281
v 0.693520 0.195090 0.693520
v 0.707106 0.000000 0.707107
v 0.693520 -0.195090 0.693520
v 0.653281 -0.382683 0.653281
v 0.587938 -0.555570 0.587938
v 0.500000 -0.707107 0.500000
v 0.392847 -0.831470 0.392847
v 0.270598 -0.923880 0.270598
v 0.137950 -0.980785 0.137950
v 0.108386 0.980785 0.162212
v 0.212607 0.923880 0.318190
v 0.308658 0.831470 0.461940
v 0.392847 0.707107 0.587938
v 0.461940 0.555570 0.691342
v 0.513280 0.382683 0.768178
v 0.544895 0.195090 0.815493
v 0.555570 0.000000 0.831469
v 0.544895 -0.195090 0.815493
v 0.513280 -0.382683 0.768178
v 0.461940 -0.555570 0.691342
v 0.392847 -0.707107 0.587938
v 0.308658 -0.831470 0.461940
v 0.212607 -0.923880 0.318190
v 0.108386 -0.980785 0.162212
v 0.074658 0.980785 0.180240
v 0.146447 0.923880 0.353553
v 0.212607 0.831470 0.513280
v 0.270598 0.707107 0.653281
v 0.318189 0.555570 0.768178
v 0.353553 0.382683 0.853553
v 0.375330 0.195090 0.906127
v 0.382683 0.000000 0.923879
v 0.375330 -0.195090 0.906127
v 0.353553 -0.382683 0.853553
v 0.318189 -0.555570 0.768178
v 0.270598 -0.707107 0.653281
v 0.212607 -0.831470 0.513280
v 0.146447 -0.923880 0.353553
v 0.074658 -0.980785 0.180240
v 0.038060 0.980785 0.191342
v 0.074658 0.923880 0.375330
v 0.108386 0.831470 0.544895
v 0.137950 0.707107 0.693520
v 0.162212 0.555570 0.815493
v 0.180240 0.382683 0.906127
v 0.191342 0.195090 0.961939
v 0.195090 0.000000 0.980785
v 0.191342 -0.195090 0.961939
v 0.180240 -0.382683 0.906127
v 0.162212 -0.555570 0.815493
v 0.137950 -0.707107 0.693520
v 0.108386 -0.831470 0.544895
v 0.074658 -0.923880 0.375330
v 0.038060 -0.980785 0.191342
v -0.000000 0.980785 0.195090
v -0.000000 0.923880 0.382683
v -0.000000 0.831470 0.555570
v -0.000000 0.707107 0.707107
v -0.000000 0.555570 0.831469
v 0.000000 0.382683 0.923879
v -0.000000 0.195090 0.980785
v -0.000000 0.000000 0.999999
v -0.000000 -0.195090 0.980785
v 0.000000 -0.382683 0.923879
v -0.000000 -0.555570 0.831469
v -0.000000 -0.707107 0.707107
v -0.000000 -0.831470 0.555570
v -0.000000 -0.923880 0.382683
v -0.000000 -0.980785 0.195090
v -0.038060 0.980785 0.191342
v -0.074658 0.923880 0.375330
v -0.108386 0.831470 0.544895
v -0.137950 0.707107 0.693520
v -0.162212 0.555570 0.815493
v -0.180240 0.382683 0.906127
v -0.191342 0.195090 0.961939
v -0.195091 0.000000 0.980785
v -0.191342 -0.195090 0.961939
v -0.180240 -0.382683 0.906127
v -0.162212 -0.555570 0.815493
v -0.137950 -0.707107 0.693520
v -0.108386 -0.831470 0.544895
v -0.074658 -0.923880 0.375330
v -0.038060 -0.980785 0.191342
v -0.074658 0.980785 0.180240
v -0.146447 0.923880 0.353553
v -0.212608 0.831470 0.513280
v -0.270598 0.707107 0.653281
v -0.318190 0.555570 0.768177
v -0.353553 0.382683 0.853553
v -0.375330 0.195090 0.906127
v -0.382683 0.000000 0.923879
v -0.375330 -0.195090 0.906127
v -0.353553 -0.382683 0.853553
v -0.318190 -0.555570 0.768177
v -0.270598 -0.707107 0.653281
v -0.212608 -0.831470 0.513280
v -0.146447 -0.923880 0.353553
v -0.074658 -0.980785 0.180240
v -0.108386 0.980785 0.162212
v -0.212608 0.923880 0.318190
v -0.308658 0.831470 0.461939
v -0.392847 0.707107 0.587938
v -0.461940 0.555570 0.691341
v -0.513280 0.382683 0.768178
v -0.544895 0.195090 0.815493
v -0.555570 0.000000 0.831469
v -0.544895 -0.195090 0.815493
v -0.513280 -0.382683 0.768178
v -0.461940 -0.555570 0.691341
v -0.392847 -0.707107 0.587938
v -0.308658 -0.831470 0.461939
v -0.212608 -0.923880 0.318190
v -0.108386 -0.980785 0.162212
v -0.137950 0.980785 0.137950
v -0.270598 0.923880 0.270598
v -0.392847 0.831470 0.392847
v -0.500000 0.707107 0.500000
v -0.587938 0.555570 0.587937
v -0.653281 0.382683 0.653281
v -0.693520 0.195090 0.693520
v -0.707106 0.000000 0.707106
v -0.693520 -0.195090 0.693520
v -0.653281 -0.382683 0.653281
v -0.587938 -0.555570 0.587937
v -0.500000 -0.707107 0.500000
v -0.392847 -0.831470 0.392847
v -0.270598 -0.923880 0.270598
v -0.137950 -0.980785 0.137950
v 0.000000 -1.000000 0.000000
v -0.162212 0.980785 0.108386
v -0.318190 0.923880 0.212607
v -0.461940 0.831470 0.308658
v -0.587938 0.707107 0.392847
v -0.691341 0.555570 0.461939
v -0.768177 0.382683 0.513280
v -0.815493 0.195090 0.544895
v -0.831469 0.000000 0.555569
v -0.815493 -0.195090 0.544895
v -0.768177 -0.382683 0.513280
v -0.691341 -0.555570 0.461939
v -0.587938 -0.707107 0.392847
v -0.461940 -0.831470 0.308658
v -0.318190 -0.923880 0.212607
v -0.162212 -0.980785 0.108386
v -0.180240 0.980785 0.074658
v -0.353553 0.923880 0.146447
v -0.513280 0.831470 0.212607
v -0.653281 0.707107 0.270598
v -0.768177 0.555570 0.318189
v -0.853553 0.382683 0.353553
v -0.906127 0.195090 0.375330
v -0.923879 0.000000 0.382683
v -0.906127 -0.195090 0.375330
v -0.853553 -0.382683 0.353553
v -0.768177 -0.555570 0.318189
v -0.653281 -0.707107 0.270598
v -0.513280 -0.831470 0.212607
v -0.353553 -0.923880 0.146447
v -0.180240 -0.980785 0.074658
v -0.191342 0.980785 0.038060
v -0.375330 0.923880 0.074658
v -0.544895 0.831470 0.108386
v -0.693520 0.707107 0.137950
v -0.815493 0.555570 0.162211
v -0.906127 0.382683 0.180240
v -0.961939 0.195090 0.191341
v -0.980784 0.000000 0.195090
v -0.961939 -0.195090 0.191341
v -0.053486 -0.010780 1.324144
v -0.815493 -0.555570 0.162211
v -0.693520 -0.707107 0.137950
v -0.544895 -0.831470 0.108386
v -0.375330 -0.923880 0.074658
v -0.191342 -0.980785 0.038060
v -0.195090 0.980785 -0.000000
v -0.382683 0.923880 -0.000000
v -0.555570 0.831470 -0.000000
v -0.707107 0.707107 -0.000000
v -1.296560 -0.358927 0.413784
v -0.923879 0.382683 -0.000000
v -0.980785 0.195090 -0.000000
v -0.999999 0.000000 -0.000000
v -0.980785 -0.195090 -0.000000
v -0.053486 0.184311 1.304930
v -0.831469 -0.555570 -0.000000
v -0.707107 -0.707107 -0.000000
v -0.555570 -0.831470 -0.000000
v -0.382683 -0.923880 -0.000000
v -0.195090 -0.980785 -0.000000
v -0.191342 0.980785 -0.038060
v -0.375330 0.923880 -0.074658
v -0.544895 0.831470 -0.108386
v -0.693520 0.707107 -0.137950
v -0.815493 0.555570 -0.162212
v -0.906127 0.382683 -0.180240
v -0.961939 0.195090 -0.191342
v -0.980784 0.000000 -0.195091
v -0.961939 -0.195090 -0.191342
v -0.906127 -0.382683 -0.180240
v -0.815493 -0.555570 -0.162212
v -0.693520 -0.707107 -0.137950
v -0.544895 -0.831470 -0.108386
v -0.375330 -0.923880 -0.074658
v -0.191342 -0.980785 -0.038060
v -0.180240 0.980785 -0.074658
v -0.353553 0.923880 -0.146447
v -0.513279 0.831470 -0.212607
v -0.653281 0.707107 -0.270598
v -0.768177 0.555570 -0.318190
v -0.853553 0.382683 -0.353553
v -0.906127 0.195090 -0.375330
v -0.923878 0.000000 -0.382683
v -0.906127 -0.195090 -0.375330
v -0.853553 -0.382683 -0.353553
v -0.768177 -0.555570 -0.318190
v -0.653281 -0.707107 -0.270598
v -0.513279 -0.831470 -0.212607
v -0.353553 -0.923880 -0.146447
v -0.180240 -0.980785 -0.074658
v -0.162212 0.980785 -0.108386
v -0.318189 0.923880 -0.212607
v -0.461939 0.831470 -0.308658
v -0.587938 0.707107 -0.392847
v -0.691341 0.555570 -0.461940
v -0.768177 0.382683 -0.513280
v -0.815493 0.195090 -0.544895
v -0.831468 0.000000 -0.555570
v -0.815493 -0.195090 -0.544895
v -0.768177 -0.382683 -0.513280
v -0.691341 -0.555570 -0.461940
v -0.587938 -0.707107 -0.392847
v -0.461939 -0.831470 -0.308658
v -0.318189 -0.923880 -0.212607
v -0.162212 -0.980785 -0.108386
v -0.137950 0.980785 -0.137950
v -0.270598 0.923880 -0.270598
v -0.392847 0.831470 -0.392847
v -0.500000 0.707107 -0.500000
v -0.587937 0.555570 -0.587938
v -0.653281 0.382683 -0.653281
v -0.693519 0.195090 -0.693520
v -0.707106 0.000000 -0.707106
v -0.693519 -0.195090 -0.693520
v -0.653281 -0.382683 -0.653281
v -0.587937 -0.555570 -0.587938
v -0.500000 -0.707107 -0.500000
v -0.392847 -0.831470 -0.392847
v -0.270598 -0.923880 -0.270598
v -0.137950 -0.980785 -0.137950
v -0.108386 0.980785 -0.162212
v -0.212607 0.923880 -0.318190
v -0.308658 0.831470 -0.461939
v -0.392847 0.707107 -0.587938
v -0.461939 0.555570 -0.691341
v -0.513280 0.382683 -0.768177
v -0.544895 0.195090 -0.815493
v -0.555569 0.000000 -0.831469
v -0.544895 -0.195090 -0.815493
v -0.513280 -0.382683 -0.768177
v -0.461939 -0.555570 -0.691341
v -0.392847 -0.707107 -0.587938
v -0.308658 -0.831470 -0.461939
v -0.212607 -0.923880 -0.318190
v -0.108386 -0.980785 -0.162212
v -0.074658 0.980785 -0.180240
v -0.146446 0.923880 -0.353553
v -0.212607 0.831470 -0.513279
v -0.270598 0.707107 -0.653281
v -0.318189 0.555570 -0.768177
v -0.353553 0.382683 -0.853553
v -0.375330 0.195090 -0.906127
v -0.382683 0.000000 -0.923879
v -0.375330 -0.195090 -0.906127
v -0.353553 -0.382683 -0.853553
v -0.318189 -0.555570 -0.768177
v -0.270598 -0.707107 -0.653281
v -0.212607 -0.831470 -0.513279
v -0.146446 -0.923880 -0.353553
v -0.074658 -0.980785 -0.180240
v -0.038060 0.980785 -0.191342
v -0.130000 0.753051 -0.199741
v -0.163728 0.660641 -0.369306
v -0.193292 0.536278 -0.517931
v -0.217554 0.384742 -0.639904
v -0.235582 0.211855 -0.730538
v -0.191341 0.195090 -0.961939
v -0.195090 0.000000 -0.980784
v -0.191341 -0.195090 -0.961939
v -0.180240 -0.382683 -0.906127
v -0.162211 -0.555570 -0.815493
v -0.137950 -0.707107 -0.693520
v -0.108386 -0.831470 -0.544895
v -0.074658 -0.923880 -0.375330
v -0.038060 -0.980785 -0.191342
v 0.000000 0.980785 -0.195090
v -0.055342 0.753051 -0.207094
v -0.055895 0.534724 -0.529697
v -0.072190 0.159965 -0.577231
v 0.000000 -0.382683 -0.923879
v 0.000000 -0.707107 -0.707107
v 0.000000 -0.831470 -0.555570
v 0.000000 -0.923880 -0.382683
v 0.000000 -0.980785 -0.195090
v 0.869534 0.526975 -0.115984
v 0.935746 0.400528 -0.129161
v 0.975936 0.265058 -0.137165
v 0.869332 0.548725 0.000000
v 0.989509 0.265077 0.000000
v 0.869534 0.526975 0.115984
v 0.935746 0.400528 0.129160
v 0.975936 0.265058 0.137165
v 0.855715 0.548725 -0.138260
v 0.932966 0.401367 -0.153626
v 0.980537 0.241473 -0.163088
v 0.880871 0.526929 0.000000
v 0.996600 0.241473 0.000000
v 0.855715 0.548725 0.138260
v 0.932966 0.401367 0.153626
v 0.980537 0.241473 0.163089
v 0.792109 0.490162 0.000000
v 0.859335 0.364600 -0.000000
v 0.900747 0.228310 0.000000
v 0.846984 0.363762 -0.129161
v 0.846984 0.363762 0.129160
v 0.780773 0.490209 -0.115984
v 0.887174 0.228292 -0.137165
v 0.780773 0.490209 0.115984
v 0.887174 0.228292 0.137165
v 0.990405 -0.043691 -0.363092
v 0.979505 -0.163487 -0.358577
v 1.025215 -0.043691 -0.248339
v 1.013643 -0.163487 -0.246038
v 0.985632 -0.019908 -0.386858
v 0.970403 -0.187270 -0.380550
v 1.034450 -0.019908 -0.225927
v 1.018283 -0.187270 -0.222712
v 0.953653 -0.039927 -0.351943
v 0.942752 -0.159723 -0.347428
v 0.988463 -0.039927 -0.237191
v 0.976891 -0.159723 -0.234889
v 0.958129 -0.321711 0.301042
v 0.926212 -0.429752 0.294715
v 0.850568 -0.574972 0.279708
v 0.777725 -0.665824 0.265236
v 0.926710 -0.321750 0.405059
v 1.018158 -0.162056 0.159157
v 1.029691 -0.042656 0.161451
v 0.756503 -0.665673 0.334557
v 0.851647 -0.321750 0.545492
v 1.029644 -0.162056 0.042534
v 1.041404 -0.042656 0.042534
v 0.698465 -0.665673 0.443139
v 0.782615 -0.321711 0.629405
v 0.759622 -0.429752 0.606382
v 0.705119 -0.574972 0.551824
v 0.652616 -0.665824 0.499298
v 0.987202 -0.273324 0.255519
v 0.940151 -0.431471 0.246159
v 0.863743 -0.577220 0.230961
v 0.760916 -0.704970 0.210507
v 0.940151 -0.273324 0.410627
v 0.726994 -0.704970 0.322334
v 0.863743 -0.273324 0.553575
v 0.671907 -0.704970 0.425394
v 0.760916 -0.273324 0.678870
v 0.726994 -0.431471 0.644948
v 0.671907 -0.577220 0.589861
v 0.597773 -0.704970 0.515727
v 0.790374 -0.238441 0.332186
v 0.759493 -0.348162 0.319395
v 0.687519 -0.493911 0.289582
v 0.620167 -0.582364 0.261684
v 0.789876 -0.346443 0.221842
v 0.714232 -0.491663 0.206835
v 0.715311 -0.238441 0.472619
v 0.687519 -0.348162 0.454049
v 0.622744 -0.493911 0.410768
v 0.562129 -0.582364 0.370266
v 0.623286 -0.346443 0.533509
v 0.568783 -0.491663 0.478951
v 0.821793 -0.238402 0.228169
v 0.641389 -0.582515 0.192363
v 0.646279 -0.238402 0.556532
v 0.516280 -0.582515 0.426425
v 1.046352 -0.017535 0.017413
v 1.029644 -0.187177 0.017413
v 1.029644 -0.017535 0.187055
v 1.013257 -0.187177 0.183796
v 0.992751 -0.037864 0.037742
v 0.980991 -0.157264 0.037742
v 0.981038 -0.037864 0.156659
v 0.969504 -0.157264 0.154365
v 0.658868 0.353599 -0.837766
v 0.681250 0.220672 -0.871268
v 0.688689 0.083662 -0.882417
v 0.750341 0.385236 -0.750341
v 0.517165 -1.009362 -0.121403
v 0.795115 0.083665 -0.795115
v 0.837766 0.353599 -0.658868
v 0.871268 0.220672 -0.681250
v 0.882417 0.083662 -0.688689
v 0.627980 0.385236 -0.850760
v 0.655612 0.221281 -0.892113
v 0.664942 0.050772 -0.906076
v 0.797384 0.050772 -0.797384
v 0.757067 0.353574 -0.757067
v 0.850760 0.385236 -0.627980
v 0.892113 0.221281 -0.655612
v 0.906076 0.050772 -0.664941
v 0.614990 0.313605 -0.614990
v 0.643432 0.181312 -0.643432
v 0.653038 0.043697 -0.653038
v 0.539173 0.180704 -0.729191
v 0.729191 0.180704 -0.539173
v 0.516792 0.313631 -0.695689
v 0.546612 0.043694 -0.740340
v 0.695689 0.313631 -0.516792
v 0.740340 0.043694 -0.546612
v 0.423922 -1.063571 -0.082769
v 0.318734 -1.098331 -0.039192
v 0.531539 -1.009452 -0.074182
v 0.835637 -0.632990 -0.206555
v 0.297189 -1.105644 -0.027567
v 0.538845 -1.009452 0.000000
v 0.741207 -0.723145 -0.264197
v 0.299904 -1.105644 0.000000
v 0.531539 -1.009452 0.074182
v 0.809563 -0.632990 -0.292511
v 0.320815 -1.098266 0.032267
v 0.517165 -1.009362 0.121403
v 0.423922 -1.063571 0.082769
v 0.318734 -1.098331 0.039192
v 0.530370 -0.997494 -0.153992
v 0.414679 -1.064427 -0.106072
v 0.289148 -1.105644 -0.054075
v 0.553269 -0.997494 -0.078505
v 0.320815 -1.098266 -0.032267
v 0.561001 -0.997494 0.000000
v 0.323993 -1.098266 0.000000
v 0.553269 -0.997494 0.078505
v 0.297189 -1.105644 0.027567
v 0.530370 -0.997494 0.153992
v 0.414679 -1.064427 0.106072
v 0.289148 -1.105644 0.054075
v 0.444919 -0.796072 -0.074182
v 0.343832 -0.851048 -0.054075
v 0.234194 -0.884887 -0.032267
v 0.337302 -0.850191 -0.082769
v 0.452225 -0.796072 0.000000
v 0.349158 -0.851048 0.000000
v 0.237372 -0.884887 0.000000
v 0.444919 -0.796072 0.074182
v 0.343832 -0.851048 0.054075
v 0.234194 -0.884887 0.032267
v 0.337302 -0.850191 0.082769
v 0.430544 -0.795983 -0.121403
v 0.232114 -0.884951 -0.039192
v 0.430544 -0.795983 0.121403
v 0.232114 -0.884951 0.039192
v 0.763070 -0.723145 -0.192121
v 0.814146 -0.621012 -0.311100
v 0.727627 -0.735123 -0.275263
v 0.849776 -0.621012 -0.193645
v 0.757927 -0.735123 -0.175375
v 0.760612 -0.591211 -0.277661
v 0.692256 -0.681366 -0.249347
v 0.786686 -0.591211 -0.191706
v 0.714120 -0.681366 -0.177272
v 0.619469 -0.785962 -0.781463
v 0.566570 -0.902521 -0.702251
v 0.499544 -1.001884 -0.601910
v 0.727552 -0.753033 -0.727552
v 0.532462 -1.028933 -0.532462
v 0.781463 -0.785962 -0.619469
v 0.702251 -0.902521 -0.566570
v 0.601910 -1.001884 -0.499544
v 0.601554 -0.753033 -0.830956
v 0.532462 -0.904570 -0.727552
v 0.448273 -1.028933 -0.601554
v 0.708554 -0.786089 -0.708554
v 0.555677 -1.001728 -0.555677
v 0.830956 -0.753033 -0.601554
v 0.727552 -0.904570 -0.532462
v 0.601554 -1.028933 -0.448273
v 0.498662 -0.489398 -0.498662
v 0.429723 -0.607880 -0.429723
v 0.345785 -0.705038 -0.345785
v 0.356678 -0.605831 -0.492358
v 0.492358 -0.605831 -0.356677
v 0.409577 -0.489271 -0.571571
v 0.289651 -0.705193 -0.392018
v 0.571571 -0.489271 -0.409577
v 0.392018 -0.705193 -0.289651
v 0.163392 0.330793 -0.735068
v 0.174494 0.143200 -0.790881
v -0.016848 0.143200 -0.809726
v -0.016848 0.330793 -0.752820
v 0.163392 0.330793 -0.735068
v 0.174494 0.143200 -0.790881
v -0.016848 0.143200 -0.809726
v -0.016848 0.330793 -0.752820
v -1.135581 0.220591 -0.497976
v -1.153332 0.025501 -0.505329
v -1.044947 0.220591 -0.667541
v -1.060923 0.025501 -0.678216
v -0.797173 0.776372 0.137950
v -0.919146 0.624835 0.162211
v -1.009780 0.451949 0.180240
v -0.810760 0.776372 -0.000000
v -0.935122 0.624835 -0.000000
v -1.027532 0.451949 -0.000000
v -0.797173 0.776372 -0.137950
v -0.919146 0.624835 -0.162212
v -1.009780 0.451949 -0.180240
v -1.243986 -0.546520 0.392007
v -1.158610 -0.719407 0.356644
v -1.352372 -0.358927 0.229796
v -1.296560 -0.546520 0.218694
v -1.205926 -0.719407 0.200666
v -1.371218 -0.358927 0.038454
v -1.314312 -0.546520 0.038454
v -1.221902 -0.719407 0.038454
v -1.352372 -0.358927 -0.152888
v -1.296560 -0.546520 -0.141786
v -1.205926 -0.719407 -0.123758
v -0.053486 -0.205870 1.304930
v -0.244827 0.184311 1.286084
v -0.248576 -0.010780 1.304929
v -0.244827 -0.205870 1.286084
v -0.436169 -0.010780 1.248024
v -0.428816 -0.205870 1.230272
vn 0.0097 0.9951 -0.0980
vn 0.0097 -0.9951 -0.0980
vn 0.0975 -0.0975 -0.9904
vn 0.0980 0.0286 -0.9948
vn 0.0938 -0.2890 -0.9527
vn 0.0464 0.8810 -0.4709
vn 0.0865 -0.4696 -0.8786
vn 0.6881 0.2651 -0.6755
vn 0.0759 -0.6326 -0.7708
vn 0.8715 0.3524 -0.3410
vn 0.0624 -0.7715 -0.6332
vn -0.1016 0.6690 -0.7363
vn 0.0464 -0.8810 -0.4709
vn -0.0000 1.0000 -0.0000
vn 0.0286 -0.9565 -0.2902
vn 0.0588 0.8001 -0.5970
vn -0.5404 0.1895 -0.8198
vn 0.0846 -0.9565 -0.2790
vn -0.1936 0.5016 -0.8432
vn 0.0286 0.9951 -0.0942
vn 0.0286 -0.9951 -0.0942
vn 0.2889 -0.0976 -0.9524
vn -0.7672 0.2375 -0.5959
vn 0.2779 -0.2890 -0.9161
vn -0.8394 0.3240 -0.4364
vn 0.2563 -0.4696 -0.8448
vn -0.6330 0.0110 -0.7741
vn 0.2248 -0.6326 -0.7412
vn -0.7001 0.3293 -0.6336
vn 0.1847 -0.7715 -0.6088
vn -0.5654 0.8010 -0.1969
vn 0.1374 -0.8810 -0.4528
vn 0.4162 -0.4696 -0.7786
vn -0.1969 0.2651 -0.9439
vn 0.3651 -0.6326 -0.6831
vn -0.5352 0.3524 -0.7677
vn 0.2999 -0.7715 -0.5611
vn -0.2119 0.7361 -0.6429
vn 0.2230 -0.8810 -0.4173
vn 0.4513 0.2890 -0.8443
vn 0.1374 -0.9565 -0.2571
vn 0.4691 0.0975 -0.8777
vn 0.0464 0.9951 -0.0869
vn 0.0464 -0.9951 -0.0869
vn 0.4691 -0.0975 -0.8777
vn 0.1374 0.9565 -0.2571
vn 0.4513 -0.2890 -0.8443
vn 0.2230 0.8810 -0.4173
vn 0.1850 -0.9565 -0.2254
vn -0.5744 0.0355 -0.8178
vn 0.0625 0.9951 -0.0761
vn 0.0625 -0.9951 -0.0761
vn 0.6314 -0.0975 -0.7693
vn 0.1850 0.9565 -0.2254
vn 0.6073 -0.2890 -0.7400
vn 0.3002 0.8810 -0.3658
vn 0.5601 -0.4696 -0.6825
vn 0.3992 0.7677 -0.5013
vn 0.6233 -0.1070 0.7747
vn 0.4829 0.6372 -0.6007
vn 0.5479 0.7054 -0.4497
vn 0.5601 0.4696 -0.6825
vn 0.3002 -0.8810 -0.3658
vn 0.8059 0.1051 0.5826
vn -0.7747 -0.1070 -0.6233
vn 0.5987 0.6326 -0.4913
vn 0.6394 -0.0880 0.7638
vn 0.6825 0.4696 -0.5601
vn 0.3658 -0.8810 -0.3002
vn 0.2354 -0.9286 -0.2868
vn 0.2254 -0.9565 -0.1850
vn -0.5826 0.1051 -0.8059
vn 0.0761 0.9951 -0.0625
vn 0.0761 -0.9951 -0.0625
vn 0.7693 -0.0975 -0.6314
vn 0.2254 0.9565 -0.1850
vn 0.7400 -0.2890 -0.6073
vn 0.3658 0.8810 -0.3002
vn 0.6825 -0.4696 -0.5601
vn 0.4918 0.7715 -0.4036
vn 0.0869 0.9951 -0.0464
vn 0.0869 -0.9951 -0.0464
vn 0.8777 -0.0975 -0.4691
vn 0.2571 0.9565 -0.1374
vn 0.8443 -0.2890 -0.4513
vn 0.4173 0.8810 -0.2230
vn 0.7786 -0.4696 -0.4162
vn 0.5611 0.7715 -0.2999
vn 0.6831 -0.6326 -0.3651
vn 0.6831 0.6326 -0.3651
vn 0.5611 -0.7715 -0.2999
vn 0.7786 0.4696 -0.4162
vn 0.4173 -0.8810 -0.2230
vn 0.8443 0.2890 -0.4513
vn 0.2571 -0.9565 -0.1374
vn 0.8777 0.0975 -0.4691
vn 0.7412 0.6326 -0.2248
vn 0.6088 -0.7715 -0.1847
vn 0.8448 0.4696 -0.2563
vn -0.7637 -0.6411 -0.0752
vn 0.9161 0.2890 -0.2779
vn -0.7637 -0.6411 0.0752
vn 0.9524 0.0975 -0.2889
vn 0.0942 0.9951 -0.0286
vn 0.0942 -0.9951 -0.0286
vn -0.0772 -0.0305 -0.9965
vn 0.2790 0.9565 -0.0846
vn 0.9161 -0.2890 -0.2779
vn 0.4528 0.8810 -0.1374
vn 0.8448 -0.4696 -0.2563
vn 0.6088 0.7715 -0.1847
vn -0.1366 -0.2010 -0.9700
vn 0.9904 -0.0975 -0.0975
vn 0.2902 0.9565 -0.0286
vn 0.9527 -0.2890 -0.0938
vn 0.4709 0.8810 -0.0464
vn 0.8786 -0.4696 -0.0865
vn 0.6332 0.7715 -0.0624
vn 0.7708 -0.6326 -0.0759
vn 0.7708 0.6326 -0.0759
vn 0.6332 -0.7715 -0.0624
vn 0.1779 0.9839 -0.0175
vn 0.9569 -0.0040 -0.2903
vn 0.6028 0.2247 0.7656
vn 0.9947 0.0325 -0.0980
vn 0.9904 0.0975 -0.0975
vn 0.0980 0.9951 -0.0097
vn 0.0980 -0.9951 -0.0097
vn 0.6332 -0.7715 0.0624
vn 0.9424 -0.3213 -0.0928
vn -0.7520 -0.6184 -0.2281
vn 0.6028 0.2247 -0.7656
vn -0.2508 -0.3665 0.8960
vn 0.9904 0.0975 0.0976
vn 0.0980 0.9951 0.0097
vn 0.0980 -0.9951 0.0097
vn 0.3403 -0.0335 -0.9397
vn 0.2902 0.9565 0.0286
vn 0.9527 -0.2890 0.0938
vn 0.4709 0.8810 0.0464
vn 0.8786 -0.4696 0.0865
vn 0.6332 0.7715 0.0624
vn 0.7708 -0.6326 0.0759
vn 0.7708 0.6326 0.0759
vn 0.2790 0.9565 0.0846
vn 0.0239 -0.9997 0.0072
vn 0.4528 0.8810 0.1374
vn 0.7264 -0.3172 -0.6097
vn 0.6088 0.7715 0.1847
vn 0.7575 0.5121 0.4049
vn 0.7412 0.6326 0.2248
vn 0.6088 -0.7715 0.1847
vn 0.8448 0.4696 0.2563
vn 0.9569 -0.0040 0.2903
vn 0.9161 0.2890 0.2779
vn -0.2508 -0.3665 -0.8960
vn 0.9524 0.0975 0.2889
vn 0.0942 0.9951 0.0286
vn 0.0942 -0.9951 0.0286
vn 0.9524 -0.0975 0.2889
vn 0.7786 0.4696 0.4162
vn 0.4173 -0.8810 0.2230
vn 0.8443 0.2890 0.4513
vn 0.2571 -0.9565 0.1374
vn 0.8777 0.0975 0.4691
vn 0.0869 0.9951 0.0464
vn 0.0869 -0.9951 0.0464
vn 0.8777 -0.0975 0.4691
vn 0.2571 0.9565 0.1374
vn 0.8395 0.4800 0.2547
vn 0.4173 0.8810 0.2230
vn -0.1334 -0.4384 0.8888
vn 0.5611 0.7715 0.2999
vn 0.0193 -0.9997 0.0158
vn 0.6831 0.6326 0.3651
vn 0.5611 -0.7715 0.2999
vn 0.7999 -0.2046 -0.5642
vn 0.3658 0.8810 0.3002
vn 0.0211 -0.9997 0.0113
vn 0.4918 0.7715 0.4036
vn -0.1034 -0.3172 0.9427
vn 0.5987 0.6326 0.4913
vn 0.4918 -0.7715 0.4036
vn 0.6825 0.4696 0.5601
vn 0.3658 -0.8810 0.3002
vn 0.7400 0.2890 0.6073
vn 0.2254 -0.9565 0.1850
vn 0.7693 0.0975 0.6314
vn 0.0761 0.9951 0.0625
vn 0.0761 -0.9951 0.0625
vn 0.7693 -0.0975 0.6314
vn 0.2254 0.9565 0.1850
vn 0.3002 -0.8810 0.3658
vn 0.6073 0.2890 0.7400
vn 0.1850 -0.9565 0.2254
vn 0.6314 0.0975 0.7693
vn 0.0625 0.9951 0.0761
vn 0.0625 -0.9951 0.0761
vn 0.6314 -0.0975 0.7693
vn 0.1850 0.9565 0.2254
vn 0.6073 -0.2890 0.7400
vn 0.3002 0.8810 0.3658
vn 0.5601 -0.4696 0.6825
vn 0.4036 0.7715 0.4918
vn 0.4913 -0.6326 0.5987
vn 0.4913 0.6326 0.5987
vn 0.4036 -0.7715 0.4918
vn 0.5601 0.4696 0.6825
vn 0.4162 -0.4696 0.7786
vn 0.2999 0.7715 0.5611
vn 0.3651 -0.6326 0.6831
vn 0.3651 0.6326 0.6831
vn 0.2999 -0.7715 0.5611
vn 0.4162 0.4696 0.7786
vn 0.2230 -0.8810 0.4173
vn 0.4513 0.2890 0.8443
vn 0.1374 -0.9565 0.2571
vn 0.4691 0.0975 0.8777
vn 0.0464 0.9951 0.0869
vn 0.0464 -0.9951 0.0869
vn 0.4691 -0.0975 0.8777
vn 0.1374 0.9565 0.2571
vn 0.4513 -0.2890 0.8443
vn 0.2230 0.8810 0.4173
vn 0.0846 -0.9565 0.2790
vn 0.2889 0.0975 0.9524
vn 0.0286 0.9951 0.0942
vn 0.0286 -0.9951 0.0942
vn 0.2889 -0.0975 0.9524
vn 0.0846 0.9565 0.2790
vn 0.2779 -0.2890 0.9161
vn 0.1374 0.8810 0.4528
vn 0.2563 -0.4696 0.8448
vn 0.1847 0.7715 0.6088
vn 0.2248 -0.6326 0.7412
vn 0.2248 0.6326 0.7412
vn 0.1847 -0.7715 0.6088
vn 0.2563 0.4696 0.8448
vn 0.1374 -0.8810 0.4528
vn 0.2779 0.2890 0.9161
vn 0.0624 0.7715 0.6332
vn 0.0759 -0.6326 0.7708
vn 0.0759 0.6326 0.7708
vn 0.0624 -0.7715 0.6332
vn 0.0865 0.4696 0.8786
vn 0.0464 -0.8810 0.4709
vn 0.0938 0.2890 0.9527
vn 0.0286 -0.9565 0.2902
vn 0.0975 0.0975 0.9904
vn 0.0097 0.9951 0.0980
vn 0.0097 -0.9951 0.0980
vn 0.0975 -0.0975 0.9904
vn 0.0286 0.9565 0.2902
vn 0.0938 -0.2890 0.9527
vn 0.0464 0.8810 0.4709
vn 0.0865 -0.4696 0.8786
vn 0.0096 -0.9995 -0.0317
vn -0.0097 0.9951 0.0980
vn -0.0097 -0.9951 0.0980
vn -0.9863 -0.0223 -0.1635
vn -0.0286 0.9565 0.2902
vn -0.0938 -0.2890 0.9527
vn -0.0464 0.8810 0.4709
vn -0.0865 -0.4696 0.8786
vn -0.0624 0.7715 0.6332
vn -0.0759 -0.6326 0.7708
vn -0.0759 0.6326 0.7708
vn -0.0624 -0.7715 0.6332
vn -0.0865 0.4696 0.8786
vn -0.0464 -0.8810 0.4709
vn -0.0938 0.2890 0.9527
vn -0.0286 -0.9565 0.2902
vn -0.2248 -0.6326 0.7412
vn -0.2248 0.6326 0.7412
vn -0.1847 -0.7715 0.6088
vn -0.2563 0.4696 0.8448
vn -0.1374 -0.8810 0.4528
vn -0.2779 0.2890 0.9161
vn -0.0846 -0.9565 0.2790
vn -0.2889 0.0975 0.9524
vn -0.0286 0.9951 0.0942
vn -0.0286 -0.9951 0.0942
vn 0.0032 -0.9995 -0.0327
vn -0.0846 0.9565 0.2790
vn -0.2779 -0.2890 0.9161
vn -0.1374 0.8810 0.4528
vn -0.2563 -0.4696 0.8448
vn -0.1847 0.7715 0.6088
vn -0.0464 0.9951 0.0869
vn -0.0464 -0.9951 0.0869
vn -0.4691 -0.0975 0.8777
vn -0.1374 0.9565 0.2571
vn -0.4513 -0.2890 0.8443
vn -0.2230 0.8810 0.4173
vn -0.4162 -0.4696 0.7786
vn -0.2999 0.7715 0.5611
vn -0.3651 -0.6326 0.6831
vn -0.3651 0.6326 0.6831
vn -0.2999 -0.7715 0.5611
vn -0.4162 0.4696 0.7786
vn -0.2230 -0.8810 0.4173
vn -0.4513 0.2890 0.8443
vn -0.1374 -0.9565 0.2571
vn -0.4691 0.0975 0.8777
vn -0.4913 0.6326 0.5987
vn -0.4036 -0.7715 0.4918
vn -0.5601 0.4696 0.6825
vn -0.3002 -0.8810 0.3658
vn -0.6073 0.2890 0.7400
vn -0.1850 -0.9565 0.2254
vn -0.6314 0.0975 0.7693
vn -0.0625 0.9951 0.0761
vn -0.0625 -0.9951 0.0761
vn -0.6314 -0.0975 0.7693
vn -0.1850 0.9565 0.2254
vn -0.6073 -0.2890 0.7400
vn -0.3002 0.8810 0.3658
vn -0.5601 -0.4696 0.6825
vn -0.4036 0.7715 0.4918
vn -0.4913 -0.6326 0.5987
vn -0.7693 -0.0975 0.6314
vn -0.2254 0.9565 0.1850
vn -0.7400 -0.2890 0.6073
vn -0.3658 0.8810 0.3002
vn -0.6825 -0.4696 0.5601
vn -0.4918 0.7715 0.4036
vn -0.5987 -0.6326 0.4913
vn -0.5987 0.6326 0.4913
vn -0.4918 -0.7715 0.4036
vn -0.6825 0.4696 0.5601
vn -0.3658 -0.8810 0.3002
vn -0.7400 0.2890 0.6073
vn -0.2254 -0.9565 0.1850
vn -0.7693 0.0975 0.6314
vn -0.0761 0.9951 0.0625
vn -0.0761 -0.9951 0.0625
vn -0.5611 -0.7715 0.2999
vn -0.7786 0.4696 0.4162
vn -0.4173 -0.8810 0.2230
vn -0.8443 0.2890 0.4513
vn -0.2571 -0.9565 0.1374
vn -0.8777 0.0975 0.4691
vn -0.0869 0.9951 0.0464
vn -0.0869 -0.9951 0.0464
vn -0.8777 -0.0975 0.4691
vn -0.2571 0.9565 0.1374
vn -0.8443 -0.2890 0.4513
vn -0.4173 0.8810 0.2230
vn -0.7786 -0.4696 0.4162
vn -0.5611 0.7715 0.2999
vn -0.6831 -0.6326 0.3651
vn -0.6831 0.6326 0.3651
vn 0.1302 -0.0783 0.9884
vn -0.4528 0.8810 0.1374
vn 0.3899 -0.9201 0.0384
vn -0.6088 0.7715 0.1847
vn -0.7412 -0.6326 0.2248
vn -0.7412 0.6326 0.2248
vn -0.6088 -0.7715 0.1847
vn -0.8448 0.4696 0.2563
vn -0.4528 -0.8810 0.1374
vn -0.9161 0.2890 0.2779
vn -0.2790 -0.9565 0.0846
vn -0.9524 0.0975 0.2889
vn -0.0942 0.9951 0.0286
vn -0.0942 -0.9951 0.0286
vn -0.9524 -0.0975 0.2889
vn -0.2790 0.9565 0.0846
vn -0.4709 -0.8810 0.0464
vn -0.9527 0.2890 0.0938
vn -0.2902 -0.9565 0.0286
vn -0.9904 0.0975 0.0975
vn -0.0980 0.9951 0.0097
vn -0.0980 -0.9951 0.0097
vn -0.9904 -0.0975 0.0975
vn -0.2902 0.9565 0.0286
vn -0.3835 0.9228 0.0378
vn -0.4709 0.8810 0.0464
vn -0.0445 -0.1266 -0.9910
vn -0.6332 0.7715 0.0624
vn -0.7708 -0.6326 0.0759
vn 0.5548 0.8302 -0.0546
vn -0.6332 -0.7715 0.0624
vn -0.5548 -0.8302 0.0546
vn -0.4709 0.8810 -0.0464
vn -0.3749 0.9201 0.1137
vn -0.6332 0.7715 -0.0624
vn -0.7708 -0.6326 -0.0759
vn 0.0514 0.0769 0.9957
vn -0.6332 -0.7715 -0.0624
vn 0.0690 0.1033 -0.9923
vn -0.4709 -0.8810 -0.0464
vn -0.9527 0.2890 -0.0938
vn -0.2902 -0.9565 -0.0286
vn -0.9904 0.0975 -0.0976
vn -0.0980 0.9951 -0.0097
vn -0.0980 -0.9951 -0.0097
vn -0.9904 -0.0975 -0.0976
vn -0.2902 0.9565 -0.0286
vn -0.0651 -0.0783 -0.9948
vn -0.9161 0.2890 -0.2779
vn -0.2790 -0.9565 -0.0846
vn -0.9524 0.0975 -0.2889
vn -0.0942 0.9951 -0.0286
vn -0.0942 -0.9951 -0.0286
vn -0.9524 -0.0975 -0.2889
vn -0.2790 0.9565 -0.0846
vn -0.9161 -0.2890 -0.2779
vn -0.4528 0.8810 -0.1374
vn -0.8448 -0.4696 -0.2563
vn -0.6088 0.7715 -0.1847
vn -0.7412 -0.6326 -0.2248
vn -0.7412 0.6326 -0.2248
vn -0.6088 -0.7715 -0.1847
vn -0.8448 0.4696 -0.2563
vn -0.4528 -0.8810 -0.1374
vn -0.7786 -0.4696 -0.4162
vn -0.5611 0.7715 -0.2999
vn -0.6831 -0.6326 -0.3651
vn -0.6831 0.6326 -0.3651
vn -0.5611 -0.7715 -0.2999
vn -0.7786 0.4696 -0.4162
vn -0.4173 -0.8810 -0.2231
vn -0.8443 0.2890 -0.4513
vn -0.2571 -0.9565 -0.1374
vn -0.0860 -0.9952 -0.0460
vn -0.0869 0.9951 -0.0464
vn -0.0869 -0.9951 -0.0464
vn -0.8777 -0.0975 -0.4691
vn -0.2571 0.9565 -0.1374
vn -0.8443 -0.2890 -0.4513
vn -0.4173 0.8810 -0.2231
vn -0.2254 -0.9565 -0.1850
vn -0.7693 0.0975 -0.6314
vn -0.0761 0.9951 -0.0625
vn -0.0761 -0.9951 -0.0625
vn -0.7693 -0.0975 -0.6314
vn -0.2254 0.9565 -0.1850
vn -0.7400 -0.2890 -0.6073
vn -0.3658 0.8810 -0.3002
vn -0.6825 -0.4696 -0.5601
vn -0.4918 0.7715 -0.4036
vn -0.5987 -0.6326 -0.4913
vn -0.5987 0.6326 -0.4913
vn -0.4918 -0.7715 -0.4036
vn -0.6825 0.4696 -0.5601
vn -0.3658 -0.8810 -0.3002
vn -0.7400 0.2890 -0.6073
vn -0.4036 0.7715 -0.4918
vn -0.4913 -0.6326 -0.5987
vn -0.4913 0.6326 -0.5987
vn -0.4036 -0.7715 -0.4918
vn -0.5601 0.4696 -0.6825
vn -0.3002 -0.8810 -0.3658
vn -0.6073 0.2890 -0.7400
vn -0.1850 -0.9565 -0.2254
vn -0.6314 0.0975 -0.7693
vn -0.0625 0.9951 -0.0761
vn -0.0625 -0.9951 -0.0761
vn -0.6314 -0.0975 -0.7693
vn -0.1850 0.9565 -0.2254
vn -0.6073 -0.2890 -0.7400
vn -0.3002 0.8810 -0.3658
vn -0.5601 -0.4696 -0.6825
vn -0.4691 0.0975 -0.8777
vn -0.0464 0.9951 -0.0869
vn -0.0464 -0.9951 -0.0869
vn -0.4691 -0.0975 -0.8777
vn -0.1374 0.9565 -0.2571
vn -0.4513 -0.2890 -0.8443
vn -0.2230 0.8810 -0.4173
vn -0.4162 -0.4696 -0.7786
vn -0.2999 0.7715 -0.5611
vn -0.3651 -0.6326 -0.6831
vn -0.3651 0.6326 -0.6831
vn -0.2999 -0.7715 -0.5611
vn -0.4162 0.4696 -0.7786
vn -0.2230 -0.8810 -0.4173
vn -0.4513 0.2890 -0.8443
vn -0.1374 -0.9565 -0.2571
vn -0.2248 -0.6326 -0.7412
vn 0.8912 0.1286 -0.4349
vn -0.1847 -0.7715 -0.6088
vn 0.8344 0.1422 -0.5325
vn -0.1374 -0.8810 -0.4528
vn 0.5110 0.7164 -0.4751
vn -0.0846 -0.9565 -0.2790
vn -0.2889 0.0975 -0.9524
vn -0.0286 0.9951 -0.0942
vn -0.0286 -0.9951 -0.0942
vn -0.2889 -0.0975 -0.9524
vn 0.8458 -0.1620 -0.5083
vn -0.2779 -0.2890 -0.9161
vn 0.9629 -0.0473 -0.2655
vn -0.2563 -0.4696 -0.8448
vn 0.9374 0.0667 -0.3419
vn -0.0097 -0.9951 -0.0980
vn -0.0976 -0.0975 -0.9904
vn -0.0977 0.0761 -0.9923
vn -0.0938 -0.2890 -0.9527
vn -0.0464 0.8810 -0.4709
vn -0.0865 -0.4696 -0.8786
vn -0.0535 0.7677 -0.6386
vn -0.0759 -0.6326 -0.7708
vn -0.0678 0.6372 -0.7677
vn -0.0624 -0.7715 -0.6332
vn 0.3878 -0.0062 -0.9217
vn -0.0464 -0.8810 -0.4709
vn 0.2978 0.9546 -0.0051
vn -0.0286 -0.9565 -0.2902
vn 0.3544 0.5016 -0.7892
vn -0.0097 0.9951 -0.0980
vn 0.3824 -0.9232 0.0377
vn 0.0218 -0.0525 0.9984
vn -0.3824 0.9232 0.0377
vn 0.0218 -0.0525 -0.9984
vn 0.5222 0.3546 -0.7756
vn 0.9424 -0.3213 0.0928
vn 0.1779 0.9839 0.0175
vn 0.5222 0.3546 0.7756
vn 0.8789 0.4694 -0.0853
vn 0.9526 0.2887 -0.0959
vn 0.8795 0.4680 -0.0862
vn 0.9530 0.2878 -0.0941
vn 0.8789 0.4694 0.0853
vn 0.9526 0.2887 0.0959
vn 0.8795 0.4680 0.0862
vn 0.9530 0.2878 0.0941
vn 0.8786 0.4697 -0.0864
vn 0.9528 0.2889 -0.0937
vn 0.8786 0.4697 0.0864
vn 0.9528 0.2889 0.0937
vn 0.0353 -0.0853 -0.9957
vn 0.3824 -0.9232 -0.0377
vn 0.0353 -0.0853 0.9957
vn -0.3824 0.9232 -0.0377
vn 0.0933 0.9952 -0.0283
vn 0.3000 0.9496 -0.0910
vn 0.4895 -0.0305 0.8715
vn 0.1178 -0.9924 -0.0357
vn 0.9524 -0.0975 -0.2889
vn -0.2894 0.0096 -0.9572
vn -0.0933 -0.9952 0.0283
vn 0.2912 0.0096 0.9566
vn 0.5056 0.0756 -0.8595
vn -0.4337 0.0756 0.8979
vn -0.3721 -0.8764 -0.3057
vn -0.4609 -0.8764 -0.1396
vn 0.4184 0.8803 0.2236
vn 0.5411 0.1641 -0.8248
vn -0.3851 0.1641 0.9082
vn -0.4184 -0.8803 -0.2236
vn 0.5241 0.1201 -0.8432
vn 0.6649 -0.4384 -0.6047
vn -0.0248 -0.2046 0.9785
vn 0.6781 0.4800 0.5565
vn 0.9169 -0.2883 0.2762
vn 0.8459 -0.4685 0.2548
vn 0.7412 -0.6318 0.2267
vn 0.9165 -0.2880 0.2775
vn 0.7418 -0.6312 0.2264
vn 0.8450 -0.2865 0.4516
vn 0.6857 -0.6289 0.3665
vn 0.7390 -0.2883 0.6089
vn 0.6818 -0.4685 0.5618
vn 0.6003 -0.6318 0.4903
vn 0.7400 -0.2880 0.6079
vn 0.6003 -0.6312 0.4911
vn 0.9161 -0.2886 0.2784
vn 0.8452 -0.4684 0.2573
vn 0.7411 -0.6326 0.2249
vn 0.8440 -0.2901 0.4511
vn 0.7786 -0.4696 0.4162
vn 0.6819 -0.6342 0.3645
vn 0.7404 -0.2886 0.6071
vn 0.6835 -0.4684 0.5598
vn 0.5987 -0.6326 0.4913
vn 0.4611 0.8764 0.1392
vn 0.3719 0.8764 0.3060
vn -0.4099 0.1201 0.9042
vn 0.0989 0.0096 -0.9950
vn 0.1505 -0.0335 0.9880
vn 0.1546 -0.9879 0.0152
vn 0.3425 0.9389 0.0337
vn 0.9904 -0.0975 0.0975
vn 0.9904 -0.0976 0.0975
vn 0.9904 -0.0975 0.0976
vn -0.0971 -0.9952 -0.0096
vn -0.0971 0.0096 0.9952
vn 0.0971 0.9952 0.0096
vn 0.7138 -0.0558 0.6981
vn -0.1243 0.9806 0.1515
vn -0.6981 -0.0558 -0.7138
vn 0.1516 -0.9806 -0.1243
vn 0.2868 -0.9286 -0.2354
vn -0.0119 0.9998 0.0144
vn -0.0144 0.9998 0.0119
vn 0.8178 0.0355 0.5744
vn 0.6077 0.2889 -0.7398
vn 0.6304 0.0973 -0.7701
vn 0.6313 0.0971 -0.7694
vn 0.6078 0.2879 -0.7401
vn 0.7398 0.2889 -0.6077
vn 0.7701 0.0973 -0.6304
vn 0.7401 0.2879 -0.6078
vn 0.7694 0.0971 -0.6313
vn 0.6316 0.0973 -0.7692
vn 0.6075 0.2892 -0.7398
vn 0.7398 0.2892 -0.6075
vn 0.7692 0.0973 -0.6316
vn -0.1515 0.9806 0.1243
vn -0.7043 -0.0188 -0.7096
vn 0.1243 -0.9806 -0.1516
vn 0.7096 -0.0188 0.7043
vn 0.3398 0.1379 0.9303
vn 0.8918 0.3620 0.2713
vn -0.9227 -0.3746 0.0909
vn 0.9227 0.3746 0.0909
vn 0.3152 0.1280 0.9403
vn -0.8919 -0.3621 -0.2708
vn 0.8918 0.3620 -0.2713
vn -0.9227 -0.3746 -0.0909
vn -0.1825 -0.3440 -0.9211
vn -0.1825 -0.3440 0.9211
vn -0.7520 -0.6184 0.2281
vn 0.9947 0.0325 0.0980
vn 0.4520 -0.8807 -0.1415
vn 0.2812 -0.9562 -0.0814
vn 0.4539 -0.8802 -0.1385
vn 0.2799 -0.9564 -0.0829
vn 0.4744 -0.8791 -0.0467
vn 0.2927 -0.9558 -0.0288
vn 0.4744 -0.8791 0.0467
vn 0.2927 -0.9558 0.0288
vn 0.4520 -0.8807 0.1415
vn 0.2812 -0.9562 0.0814
vn 0.4539 -0.8802 0.1385
vn 0.2799 -0.9564 0.0829
vn 0.4537 -0.8807 -0.1359
vn 0.2784 -0.9564 -0.0886
vn 0.4701 -0.8814 -0.0463
vn 0.2896 -0.9567 -0.0285
vn 0.4701 -0.8814 0.0463
vn 0.2896 -0.9567 0.0285
vn 0.4537 -0.8807 0.1359
vn 0.2784 -0.9564 0.0885
vn 0.3152 0.1280 -0.9403
vn 0.9227 0.3746 -0.0909
vn -0.8919 -0.3621 0.2708
vn 0.3398 0.1379 -0.9303
vn 0.6053 0.7745 -0.1836
vn 0.4253 -0.2011 0.8824
vn -0.3449 -0.9328 0.1046
vn 0.8057 0.5395 -0.2444
vn 0.7412 -0.6326 -0.2248
vn 0.3274 0.0482 0.9437
vn -0.6053 -0.7745 0.1836
vn -0.2521 0.0482 -0.9665
vn -0.5479 -0.7056 0.4494
vn 0.7746 0.1070 0.6234
vn 0.4494 0.7056 -0.5480
vn -0.6234 0.1070 -0.7746
vn -0.4497 -0.7054 0.5479
vn -0.5479 -0.7054 0.4497
vn -0.7638 -0.0880 -0.6394
vn 0.4497 0.7054 -0.5479
vn 0.4891 -0.6320 -0.6011
vn 0.4061 -0.7709 -0.4907
vn 0.4916 -0.6310 -0.6001
vn 0.4054 -0.7704 -0.4922
vn 0.6011 -0.6320 -0.4891
vn 0.4907 -0.7709 -0.4061
vn 0.6001 -0.6310 -0.4916
vn 0.4922 -0.7703 -0.4054
vn 0.4919 -0.6323 -0.5985
vn 0.4034 -0.7714 -0.4921
vn 0.5985 -0.6323 -0.4919
vn 0.4921 -0.7714 -0.4034
vn -0.6395 0.0879 -0.7638
vn -0.4494 -0.7056 0.5479
vn 0.7638 0.0879 0.6395
vn 0.5480 0.7056 -0.4494
vn -0.9692 0.0715 -0.2359
vn -0.0674 0.7257 0.6847
vn 0.0938 0.2890 -0.9527
vn -0.8777 0.0975 -0.4691
vn 0.0860 0.9952 0.0460
vn -0.4705 0.0096 0.8823
vn 0.4722 0.0096 -0.8814
vn -0.7708 0.6326 0.0759
vn -0.8786 0.4696 0.0865
vn -0.7708 0.6326 -0.0759
vn -0.8786 0.4696 -0.0865
vn 0.0514 0.0769 -0.9957
vn -0.5548 -0.8302 -0.0546
vn 0.0690 0.1033 0.9923
vn 0.5548 0.8302 0.0546
vn -0.9161 -0.2890 0.2779
vn -0.8448 -0.4696 0.2563
vn -0.9527 -0.2890 0.0938
vn -0.8786 -0.4696 0.0865
vn -0.8786 -0.4696 -0.0865
vn -0.9527 -0.2890 -0.0938
vn 0.3835 -0.9228 -0.0378
vn 0.1497 -0.1266 0.9806
vn -0.3899 0.9201 -0.0384
vn 0.3749 -0.9201 -0.1137
vn -0.0975 0.0975 0.9904
vn -0.0975 -0.0975 0.9904
vn -0.2889 -0.0975 0.9524
vn 0.9864 0.0161 0.1633
vn -0.0096 0.9995 0.0317
vn -0.9867 0.0032 -0.1627
vn -0.0032 0.9995 0.0327
vn 0.9866 -0.0160 0.1623
vt 0.750000 0.937500
vt 0.734375 1.000000
vt 0.718750 0.937500
vt 0.734375 0.000000
vt 0.750000 0.062500
vt 0.718750 0.062500
vt 0.750000 0.437500
vt 0.750000 0.500000
vt 0.718750 0.500000
vt 0.718750 0.437500
vt 0.750000 0.875000
vt 0.718750 0.875000
vt 0.750000 0.375000
vt 0.718750 0.375000
vt 0.750000 0.812500
vt 0.718750 0.812500
vt 0.750000 0.312500
vt 0.718750 0.312500
vt 0.750000 0.750000
vt 0.718750 0.750000
vt 0.750000 0.250000
vt 0.718750 0.250000
vt 0.750000 0.687500
vt 0.718750 0.687500
vt 0.750000 0.187500
vt 0.718750 0.187500
vt 0.750000 0.625000
vt 0.718750 0.625000
vt 0.750000 0.125000
vt 0.718750 0.125000
vt 0.718750 0.562500
vt 0.750000 0.562500
vt 0.687500 0.625000
vt 0.687500 0.562500
vt 0.687500 0.125000
vt 0.687500 0.062500
vt 0.687500 0.500000
vt 0.703125 1.000000
vt 0.687500 0.937500
vt 0.703125 0.000000
vt 0.687500 0.437500
vt 0.687500 0.875000
vt 0.687500 0.375000
vt 0.687500 0.812500
vt 0.687500 0.312500
vt 0.687500 0.750000
vt 0.687500 0.250000
vt 0.687500 0.687500
vt 0.687500 0.187500
vt 0.656250 0.375000
vt 0.656250 0.312500
vt 0.656250 0.812500
vt 0.656250 0.750000
vt 0.656250 0.250000
vt 0.656250 0.687500
vt 0.656250 0.187500
vt 0.656250 0.625000
vt 0.656250 0.125000
vt 0.656250 0.562500
vt 0.656250 0.062500
vt 0.656250 0.500000
vt 0.671875 1.000000
vt 0.656250 0.937500
vt 0.671875 0.000000
vt 0.656250 0.437500
vt 0.656250 0.875000
vt 0.625000 0.125000
vt 0.625000 0.062500
vt 0.640625 1.000000
vt 0.625000 0.937500
vt 0.640625 0.000000
vt 0.625000 0.500000
vt 0.625000 0.437500
vt 0.625000 0.875000
vt 0.625000 0.375000
vt 0.625000 0.812500
vt 0.625000 0.312500
vt 0.625000 0.750000
vt 0.593750 0.250000
vt 0.593750 0.187500
vt 0.625000 0.687500
vt 0.593750 0.312500
vt 0.625000 0.625000
vt 0.625000 0.187500
vt 0.593750 0.625000
vt 0.593750 0.562500
vt 0.593750 0.750000
vt 0.593750 0.687500
vt 0.593750 0.125000
vt 0.593750 0.062500
vt 0.609375 1.000000
vt 0.593750 0.937500
vt 0.609375 0.000000
vt 0.593750 0.500000
vt 0.593750 0.437500
vt 0.593750 0.875000
vt 0.593750 0.375000
vt 0.593750 0.812500
vt 0.578125 1.000000
vt 0.562500 0.937500
vt 0.578125 0.000000
vt 0.562500 0.062500
vt 0.562500 0.500000
vt 0.562500 0.437500
vt 0.562500 0.875000
vt 0.562500 0.375000
vt 0.562500 0.812500
vt 0.562500 0.312500
vt 0.562500 0.750000
vt 0.562500 0.250000
vt 0.562500 0.687500
vt 0.562500 0.187500
vt 0.562500 0.625000
vt 0.562500 0.125000
vt 0.562500 0.562500
vt 0.531250 0.750000
vt 0.531250 0.687500
vt 0.531250 0.250000
vt 0.531250 0.187500
vt 0.531250 0.625000
vt 0.468750 0.062500
vt 0.500000 0.062500
vt 0.531250 0.562500
vt 0.531250 0.062500
vt 0.531250 0.500000
vt 0.546875 1.000000
vt 0.531250 0.937500
vt 0.546875 0.000000
vt 0.531250 0.875000
vt 0.531250 0.437500
vt 0.531250 0.375000
vt 0.531250 0.812500
vt 0.531250 0.312500
vt 0.500000 0.500000
vt 0.500000 0.437500
vt 0.500000 0.937500
vt 0.500000 0.875000
vt 0.500000 0.375000
vt 0.500000 0.812500
vt 0.500000 0.312500
vt 0.500000 0.750000
vt 0.500000 0.250000
vt 0.500000 0.687500
vt 0.500000 0.187500
vt 0.468750 0.625000
vt 0.468750 0.562500
vt 0.500000 0.562500
vt 0.515625 1.000000
vt 0.515625 0.000000
vt 0.468750 0.250000
vt 0.468750 0.187500
vt 0.437500 0.062500
vt 0.437500 0.125000
vt 0.468750 0.500000
vt 0.484375 1.000000
vt 0.468750 0.937500
vt 0.484375 0.000000
vt 0.468750 0.875000
vt 0.468750 0.437500
vt 0.468750 0.375000
vt 0.468750 0.812500
vt 0.468750 0.312500
vt 0.468750 0.750000
vt 0.468750 0.687500
vt 0.437500 0.937500
vt 0.437500 0.875000
vt 0.437500 0.250000
vt 0.437500 0.812500
vt 0.437500 0.750000
vt 0.437500 0.437500
vt 0.406250 0.437500
vt 0.437500 0.687500
vt 0.437500 0.187500
vt 0.437500 0.625000
vt 0.437500 0.562500
vt 0.437500 0.500000
vt 0.453125 1.000000
vt 0.453125 0.000000
vt 0.406250 0.687500
vt 0.406250 0.625000
vt 0.406250 0.187500
vt 0.406250 0.125000
vt 0.406250 0.562500
vt 0.406250 0.062500
vt 0.406250 0.500000
vt 0.421875 1.000000
vt 0.406250 0.937500
vt 0.421875 0.000000
vt 0.406250 0.875000
vt 0.406250 0.812500
vt 0.375000 0.312500
vt 0.375000 0.250000
vt 0.406250 0.750000
vt 0.406250 0.250000
vt 0.375000 0.875000
vt 0.375000 0.812500
vt 0.375000 0.750000
vt 0.375000 0.375000
vt 0.375000 0.687500
vt 0.375000 0.187500
vt 0.375000 0.625000
vt 0.375000 0.125000
vt 0.375000 0.562500
vt 0.375000 0.062500
vt 0.375000 0.500000
vt 0.390625 1.000000
vt 0.375000 0.937500
vt 0.390625 0.000000
vt 0.375000 0.437500
vt 0.343750 0.187500
vt 0.343750 0.125000
vt 0.343750 0.625000
vt 0.343750 0.562500
vt 0.343750 0.062500
vt 0.343750 0.500000
vt 0.359375 1.000000
vt 0.343750 0.937500
vt 0.359375 0.000000
vt 0.343750 0.437500
vt 0.343750 0.875000
vt 0.343750 0.375000
vt 0.343750 0.812500
vt 0.343750 0.312500
vt 0.343750 0.750000
vt 0.343750 0.250000
vt 0.343750 0.687500
vt 0.312500 0.375000
vt 0.312500 0.312500
vt 0.312500 0.812500
vt 0.312500 0.750000
vt 0.312500 0.250000
vt 0.312500 0.687500
vt 0.312500 0.187500
vt 0.312500 0.625000
vt 0.312500 0.125000
vt 0.312500 0.562500
vt 0.312500 0.062500
vt 0.312500 0.500000
vt 0.328125 1.000000
vt 0.312500 0.937500
vt 0.328125 0.000000
vt 0.312500 0.437500
vt 0.312500 0.875000
vt 0.281250 0.125000
vt 0.281250 0.062500
vt 0.281250 0.562500
vt 0.281250 0.500000
vt 0.296875 1.000000
vt 0.281250 0.937500
vt 0.296875 0.000000
vt 0.281250 0.437500
vt 0.281250 0.875000
vt 0.281250 0.375000
vt 0.281250 0.812500
vt 0.281250 0.312500
vt 0.281250 0.750000
vt 0.281250 0.250000
vt 0.281250 0.687500
vt 0.281250 0.187500
vt 0.281250 0.625000
vt 0.250000 0.812500
vt 0.250000 0.750000
vt 0.250000 0.312500
vt 0.250000 0.250000
vt 0.250000 0.687500
vt 0.250000 0.187500
vt 0.250000 0.625000
vt 0.250000 0.125000
vt 0.250000 0.562500
vt 0.250000 0.062500
vt 0.250000 0.500000
vt 0.265625 1.000000
vt 0.250000 0.937500
vt 0.265625 0.000000
vt 0.250000 0.437500
vt 0.250000 0.875000
vt 0.250000 0.375000
vt 0.187500 0.437500
vt 0.218750 0.437500
vt 0.234375 1.000000
vt 0.218750 0.937500
vt 0.234375 0.000000
vt 0.218750 0.062500
vt 0.187500 0.500000
vt 0.218750 0.875000
vt 0.218750 0.375000
vt 0.218750 0.812500
vt 0.218750 0.312500
vt 0.218750 0.750000
vt 0.218750 0.250000
vt 0.218750 0.687500
vt 0.218750 0.187500
vt 0.218750 0.625000
vt 0.218750 0.125000
vt 0.218750 0.562500
vt 0.187500 0.312500
vt 0.187500 0.250000
vt 0.187500 0.750000
vt 0.187500 0.687500
vt 0.187500 0.187500
vt 0.187500 0.625000
vt 0.187500 0.125000
vt 0.187500 0.562500
vt 0.187500 0.062500
vt 0.218750 0.500000
vt 0.203125 1.000000
vt 0.187500 0.937500
vt 0.203125 0.000000
vt 0.187500 0.875000
vt 0.187500 0.375000
vt 0.187500 0.812500
vt 0.171875 1.000000
vt 0.156250 0.937500
vt 0.171875 0.000000
vt 0.156250 0.062500
vt 0.156250 0.500000
vt 0.156250 0.437500
vt 0.156250 0.875000
vt 0.156250 0.375000
vt 0.156250 0.812500
vt 0.156250 0.312500
vt 0.156250 0.750000
vt 0.156250 0.250000
vt 0.156250 0.687500
vt 0.156250 0.187500
vt 0.156250 0.625000
vt 0.156250 0.125000
vt 0.156250 0.562500
vt 0.125000 0.750000
vt 0.125000 0.687500
vt 0.125000 0.250000
vt 0.125000 0.187500
vt 0.125000 0.625000
vt 0.125000 0.125000
vt 0.125000 0.562500
vt 0.125000 0.062500
vt 0.125000 0.500000
vt 0.140625 1.000000
vt 0.125000 0.937500
vt 0.140625 0.000000
vt 0.125000 0.437500
vt 0.125000 0.875000
vt 0.125000 0.375000
vt 0.125000 0.812500
vt 0.125000 0.312500
vt 0.093750 0.500000
vt 0.093750 0.437500
vt 0.093750 0.937500
vt 0.093750 0.875000
vt 0.093750 0.375000
vt 0.093750 0.812500
vt 0.093750 0.312500
vt 0.093750 0.750000
vt 0.093750 0.250000
vt 0.093750 0.687500
vt 0.093750 0.187500
vt 0.093750 0.625000
vt 0.093750 0.125000
vt 0.093750 0.562500
vt 0.093750 0.062500
vt 0.109375 1.000000
vt 0.109375 0.000000
vt 0.062500 0.250000
vt 0.062500 0.187500
vt 0.062500 0.687500
vt 0.062500 0.625000
vt 0.062500 0.125000
vt 0.062500 0.562500
vt 0.062500 0.062500
vt 0.062500 0.500000
vt 0.078125 1.000000
vt 0.062500 0.937500
vt 0.078125 0.000000
vt 0.062500 0.437500
vt 0.062500 0.875000
vt 0.062500 0.375000
vt 0.062500 0.812500
vt 0.062500 0.312500
vt 0.062500 0.750000
vt 0.031250 0.875000
vt 0.031250 0.812500
vt 0.968750 0.312500
vt 1.000000 0.312500
vt 0.031250 0.750000
vt 0.031250 0.312500
vt 0.031250 0.250000
vt 0.031250 0.687500
vt 0.031250 0.187500
vt 0.031250 0.625000
vt 0.031250 0.125000
vt 0.031250 0.562500
vt 0.031250 0.062500
vt 0.031250 0.500000
vt 0.046875 1.000000
vt 0.031250 0.937500
vt 0.046875 0.000000
vt 0.031250 0.437500
vt 0.000000 0.187500
vt 0.000000 0.125000
vt 0.000000 0.625000
vt 0.000000 0.562500
vt 0.000000 0.062500
vt 0.000000 0.500000
vt 0.015625 1.000000
vt 0.000000 0.937500
vt 0.015625 0.000000
vt 0.000000 0.437500
vt 0.000000 0.875000
vt 0.000000 0.812500
vt 0.968750 0.375000
vt 0.000000 0.750000
vt 0.000000 0.312500
vt 0.000000 0.250000
vt 1.000000 0.812500
vt 1.000000 0.875000
vt 0.968750 0.875000
vt 0.968750 0.812500
vt 1.000000 0.750000
vt 0.968750 0.750000
vt 1.000000 0.250000
vt 0.968750 0.250000
vt 1.000000 0.187500
vt 0.968750 0.187500
vt 0.968750 0.687500
vt 1.000000 0.125000
vt 0.968750 0.125000
vt 1.000000 0.562500
vt 1.000000 0.625000
vt 0.968750 0.625000
vt 0.968750 0.562500
vt 1.000000 0.062500
vt 0.968750 0.062500
vt 1.000000 0.500000
vt 0.968750 0.500000
vt 1.000000 0.937500
vt 0.984375 1.000000
vt 0.968750 0.937500
vt 0.984375 0.000000
vt 1.000000 0.437500
vt 0.968750 0.437500
vt 0.937500 0.625000
vt 0.937500 0.562500
vt 0.937500 0.125000
vt 0.937500 0.062500
vt 0.937500 0.500000
vt 0.953125 1.000000
vt 0.937500 0.937500
vt 0.953125 0.000000
vt 0.937500 0.437500
vt 0.937500 0.875000
vt 0.937500 0.375000
vt 0.937500 0.812500
vt 0.937500 0.312500
vt 0.937500 0.750000
vt 0.937500 0.250000
vt 0.937500 0.687500
vt 0.937500 0.187500
vt 0.906250 0.375000
vt 0.906250 0.312500
vt 0.906250 0.812500
vt 0.906250 0.750000
vt 0.906250 0.250000
vt 0.906250 0.687500
vt 0.906250 0.187500
vt 0.906250 0.625000
vt 0.906250 0.125000
vt 0.906250 0.562500
vt 0.906250 0.062500
vt 0.906250 0.500000
vt 0.921875 1.000000
vt 0.906250 0.937500
vt 0.921875 0.000000
vt 0.906250 0.437500
vt 0.906250 0.875000
vt 0.875000 0.125000
vt 0.875000 0.062500
vt 0.875000 0.562500
vt 0.875000 0.500000
vt 0.890625 1.000000
vt 0.875000 0.937500
vt 0.890625 0.000000
vt 0.875000 0.437500
vt 0.875000 0.875000
vt 0.875000 0.375000
vt 0.875000 0.812500
vt 0.875000 0.312500
vt 0.875000 0.750000
vt 0.875000 0.250000
vt 0.875000 0.687500
vt 0.875000 0.187500
vt 0.875000 0.625000
vt 0.843750 0.812500
vt 0.843750 0.750000
vt 0.843750 0.312500
vt 0.843750 0.250000
vt 0.843750 0.687500
vt 0.843750 0.187500
vt 0.843750 0.625000
vt 0.843750 0.125000
vt 0.843750 0.562500
vt 0.843750 0.062500
vt 0.843750 0.500000
vt 0.859375 1.000000
vt 0.843750 0.937500
vt 0.859375 0.000000
vt 0.843750 0.437500
vt 0.843750 0.875000
vt 0.843750 0.375000
vt 0.812500 0.562500
vt 0.812500 0.500000
vt 0.828125 1.000000
vt 0.812500 0.937500
vt 0.828125 0.000000
vt 0.812500 0.062500
vt 0.812500 0.437500
vt 0.812500 0.875000
vt 0.812500 0.375000
vt 0.812500 0.812500
vt 0.812500 0.312500
vt 0.812500 0.750000
vt 0.812500 0.250000
vt 0.812500 0.687500
vt 0.812500 0.187500
vt 0.812500 0.625000
vt 0.812500 0.125000
vt 0.781250 0.312500
vt 0.781250 0.250000
vt 0.781250 0.750000
vt 0.781250 0.687500
vt 0.781250 0.187500
vt 0.781250 0.625000
vt 0.781250 0.125000
vt 0.781250 0.562500
vt 0.781250 0.062500
vt 0.781250 0.500000
vt 0.796875 1.000000
vt 0.781250 0.937500
vt 0.796875 0.000000
vt 0.781250 0.437500
vt 0.781250 0.875000
vt 0.781250 0.375000
vt 0.781250 0.812500
vt 0.765625 0.000000
vt 0.765625 1.000000
vt 0.499998 0.678275
vt 0.474163 0.678275
vt 0.526487 0.571719
vt 0.526265 0.624660
vt 0.500001 0.571719
vt 0.473736 0.624660
vt 0.473513 0.571719
vt 0.525837 0.678275
vt 0.500000 0.625000
vt 0.535757 0.446382
vt 0.557993 0.446382
vt 0.558039 0.491118
vt 0.535710 0.491118
vt 0.384937 0.418378
vt 0.385341 0.375709
vt 0.458409 0.375709
vt 0.458813 0.418377
vt 0.406253 0.418378
vt 0.437503 0.418378
vt 0.406245 0.269152
vt 0.437495 0.269152
vt 0.386482 0.313529
vt 0.387829 0.269152
vt 0.455921 0.269152
vt 0.457268 0.313529
vt 0.437500 0.375000
vt 0.437500 0.312500
vt 0.406250 0.375000
vt 0.406250 0.312500
vt 0.473398 0.490745
vt 0.473447 0.446755
vt 0.495352 0.490745
vt 0.495303 0.446755
vt 0.650105 0.562274
vt 0.649824 0.612940
vt 0.625001 0.512056
vt 0.650192 0.512056
vt 0.600176 0.612940
vt 0.599895 0.562274
vt 0.624998 0.612940
vt 0.599808 0.512056
vt 0.625000 0.562500
vt 0.538111 0.073589
vt 0.548131 0.125990
vt 0.461889 0.073589
vt 0.468748 0.073589
vt 0.531252 0.176418
vt 0.500002 0.176418
vt 0.499998 0.073589
vt 0.551876 0.176418
vt 0.468752 0.176418
vt 0.448124 0.176418
vt 0.531248 0.073589
vt 0.451869 0.125990
vt 0.531250 0.125000
vt 0.500000 0.125000
vt 0.468750 0.125000
vt 0.535739 0.256561
vt 0.558011 0.256561
vt 0.558439 0.305939
vt 0.535311 0.305939
vt 0.625003 0.298919
vt 0.602237 0.298919
vt 0.644754 0.201094
vt 0.646682 0.250930
vt 0.624997 0.201094
vt 0.603318 0.250930
vt 0.605246 0.201094
vt 0.647763 0.298919
vt 0.625000 0.250000
vt 0.000000 0.687500
vt 1.000000 0.687500
vt 0.031250 0.375000
vt 0.000000 0.375000
vt 1.000000 0.375000
s 0
f 464/1/1 80/2/1 7/3/1
f 298/4/2 472/5/2 21/6/2
f 5/7/3 4/8/3 14/9/3 15/10/3
f 465/11/4 464/1/4 7/3/4 8/12/4
f 468/13/5 5/7/5 15/10/5 16/14/5
f 1/15/6 465/11/6 8/12/6 9/16/6
f 6/17/7 468/13/7 16/14/7 17/18/7
f 466/19/8 1/15/8 9/16/8 10/20/8
f 469/21/9 6/17/9 17/18/9 18/22/9
f 2/23/10 466/19/10 10/20/10 11/24/10
f 470/25/11 469/21/11 18/22/11 19/26/11
f 467/27/12 2/23/12 11/24/12 12/28/12
f 471/29/13 470/25/13 19/26/13 20/30/13
f 13/31/14 3/32/14 665/32/14 664/31/14
f 472/5/15 471/29/15 20/30/15 21/6/15
f 4/8/16 3/32/16 13/31/16 14/9/16
f 13/31/17 12/28/17 27/33/17 28/34/17
f 21/6/18 20/30/18 35/35/18 36/36/18
f 14/9/19 13/31/19 28/34/19 29/37/19
f 7/3/20 80/38/20 22/39/20
f 298/40/21 21/6/21 36/36/21
f 15/10/22 14/9/22 29/37/22 30/41/22
f 8/12/23 7/3/23 22/39/23 23/42/23
f 16/14/24 15/10/24 30/41/24 31/43/24
f 9/16/25 8/12/25 23/42/25 24/44/25
f 17/18/26 16/14/26 31/43/26 32/45/26
f 10/20/27 9/16/27 24/44/27 25/46/27
f 18/22/28 17/18/28 32/45/28 33/47/28
f 11/24/29 10/20/29 25/46/29 26/48/29
f 19/26/30 18/22/30 33/47/30 34/49/30
f 12/28/31 11/24/31 26/48/31 27/33/31
f 20/30/32 19/26/32 34/49/32 35/35/32
f 32/45/33 31/43/33 46/50/33 47/51/33
f 25/46/34 24/44/34 39/52/34 40/53/34
f 33/47/35 32/45/35 47/51/35 48/54/35
f 26/48/36 25/46/36 40/53/36 41/55/36
f 34/49/37 33/47/37 48/54/37 49/56/37
f 27/33/38 26/48/38 41/55/38 42/57/38
f 35/35/39 34/49/39 49/56/39 50/58/39
f 28/34/40 27/33/40 42/57/40 43/59/40
f 36/36/41 35/35/41 50/58/41 51/60/41
f 29/37/42 28/34/42 43/59/42 44/61/42
f 22/39/43 80/62/43 37/63/43
f 298/64/44 36/36/44 51/60/44
f 30/41/45 29/37/45 44/61/45 45/65/45
f 23/42/46 22/39/46 37/63/46 38/66/46
f 31/43/47 30/41/47 45/65/47 46/50/47
f 24/44/48 23/42/48 38/66/48 39/52/48
f 51/60/49 50/58/49 63/67/49 64/68/49
f 44/61/50 43/59/50 572/59/50 573/61/50
f 37/63/51 80/69/51 52/70/51
f 298/71/52 51/60/52 64/68/52
f 45/65/53 44/61/53 58/72/53 59/73/53
f 38/66/54 37/63/54 52/70/54 53/74/54
f 46/50/55 45/65/55 59/73/55 60/75/55
f 39/52/56 38/66/56 53/74/56 54/76/56
f 47/51/57 46/50/57 60/75/57 61/77/57
f 40/53/58 39/52/58 54/76/58 55/78/58
f 76/79/59 77/80/59 653/80/59 652/79/59
f 41/55/60 40/53/60 55/78/60 56/81/60
f 61/77/61 75/82/61 651/82/61 641/77/61
f 42/57/62 41/55/62 56/81/62 57/83/62
f 50/58/63 49/56/63 62/84/63 63/67/63
f 70/85/64 71/86/64 577/86/64 576/85/64
f 49/56/65 48/54/65 647/54/65 648/56/65
f 56/81/66 55/78/66 68/87/66 69/88/66
f 75/82/67 76/79/67 652/79/67 651/82/67
f 57/83/68 56/81/68 69/88/68 70/85/68
f 63/67/69 62/84/69 77/80/69 78/89/69
f 58/72/70 44/61/70 573/61/70 574/72/70
f 64/68/71 63/67/71 78/89/71 79/90/71
f 43/59/72 42/57/72 571/57/72 572/59/72
f 52/70/73 80/91/73 65/92/73
f 298/93/74 64/68/74 79/90/74
f 59/73/75 58/72/75 72/94/75 73/95/75
f 53/74/76 52/70/76 65/92/76 66/96/76
f 60/75/77 59/73/77 73/95/77 74/97/77
f 54/76/78 53/74/78 66/96/78 67/98/78
f 61/77/79 60/75/79 74/97/79 75/82/79
f 55/78/80 54/76/80 67/98/80 68/87/80
f 65/92/81 80/99/81 81/100/81
f 298/101/82 79/90/82 95/102/82
f 73/95/83 72/94/83 88/103/83 89/104/83
f 66/96/84 65/92/84 81/100/84 82/105/84
f 74/97/85 73/95/85 89/104/85 90/106/85
f 67/98/86 66/96/86 82/105/86 83/107/86
f 75/82/87 74/97/87 90/106/87 91/108/87
f 68/87/88 67/98/88 83/107/88 84/109/88
f 76/79/89 75/82/89 91/108/89 92/110/89
f 69/88/90 68/87/90 84/109/90 85/111/90
f 77/80/91 76/79/91 92/110/91 93/112/91
f 70/85/92 69/88/92 85/111/92 86/113/92
f 78/89/93 77/80/93 93/112/93 94/114/93
f 71/86/94 70/85/94 86/113/94 87/115/94
f 79/90/95 78/89/95 94/114/95 95/102/95
f 72/94/96 71/86/96 87/115/96 88/103/96
f 85/111/97 84/109/97 99/116/97 100/117/97
f 93/112/98 92/110/98 107/118/98 108/119/98
f 86/113/99 85/111/99 100/117/99 101/120/99
f 136/121/100 122/122/100 595/122/100 610/121/100
f 87/115/101 86/113/101 101/120/101 102/123/101
f 122/122/102 109/124/102 592/124/102 595/122/102
f 88/103/103 87/115/103 102/123/103 103/125/103
f 81/100/104 80/126/104 96/127/104
f 298/128/105 95/102/105 109/124/105
f 89/104/106 88/103/106 502/103/106 503/104/106
f 82/105/107 81/100/107 96/127/107 97/129/107
f 90/106/108 89/104/108 104/130/108 105/131/108
f 83/107/109 82/105/109 97/129/109 98/132/109
f 91/108/110 90/106/110 105/131/110 106/133/110
f 84/109/111 83/107/111 98/132/111 99/116/111
f 92/110/112 91/108/112 630/108/112 631/110/112
f 104/130/113 103/125/113 116/134/113 117/135/113
f 97/129/114 96/127/114 110/136/114 111/137/114
f 105/131/115 104/130/115 117/135/115 118/138/115
f 98/132/116 97/129/116 111/137/116 112/139/116
f 106/133/117 105/131/117 118/138/117 119/140/117
f 99/116/118 98/132/118 112/139/118 113/141/118
f 107/118/119 106/133/119 119/140/119 120/142/119
f 100/117/120 99/116/120 113/141/120 114/143/120
f 108/119/121 107/118/121 120/142/121 121/144/121
f 100/117/122 114/143/122 476/143/122 481/117/122
f 93/112/123 108/119/123 605/119/123 602/112/123
f 128/145/124 129/146/124 488/146/124 487/145/124
f 108/119/125 121/144/125 607/144/125 605/119/125
f 103/125/126 102/123/126 115/147/126 116/134/126
f 96/127/127 80/148/127 110/136/127
f 298/149/128 109/124/128 122/122/128
f 121/144/129 120/142/129 134/150/129 135/151/129
f 115/147/130 102/123/130 483/123/130 485/147/130
f 149/152/131 136/121/131 610/121/131 613/152/131
f 102/123/132 101/120/132 482/120/132 483/123/132
f 148/153/133 149/152/133 613/152/133 612/153/133
f 116/134/134 115/147/134 129/146/134 130/154/134
f 110/136/135 80/155/135 123/156/135
f 298/157/136 122/122/136 136/121/136
f 117/135/137 116/134/137 554/134/137 555/135/137
f 111/137/138 110/136/138 123/156/138 124/158/138
f 118/138/139 117/135/139 131/159/139 132/160/139
f 112/139/140 111/137/140 124/158/140 125/161/140
f 119/140/141 118/138/141 132/160/141 133/162/141
f 113/141/142 112/139/142 125/161/142 126/163/142
f 120/142/143 119/140/143 133/162/143 134/150/143
f 114/143/144 113/141/144 126/163/144 127/164/144
f 124/158/145 123/156/145 137/165/145 138/166/145
f 146/167/146 134/150/146 529/150/146 531/167/146
f 125/161/147 124/158/147 138/166/147 139/168/147
f 133/162/148 132/160/148 527/160/148 528/162/148
f 126/163/149 125/161/149 139/168/149 140/169/149
f 145/170/150 158/171/150 532/171/150 530/170/150
f 127/164/151 126/163/151 140/169/151 141/172/151
f 135/151/152 134/150/152 146/167/152 147/173/152
f 128/145/153 127/164/153 141/172/153 142/174/153
f 135/151/154 147/173/154 611/173/154 609/151/154
f 129/146/155 128/145/155 142/174/155 143/175/155
f 95/102/156 94/114/156 603/114/156 604/102/156
f 130/154/157 129/146/157 143/175/157 144/176/157
f 123/156/158 80/177/158 137/165/158
f 298/178/159 136/121/159 149/152/159
f 131/159/160 130/154/160 144/176/160 145/170/160
f 142/174/161 141/172/161 154/179/161 155/180/161
f 148/153/162 147/173/162 160/181/162 161/182/162
f 143/175/163 142/174/163 155/180/163 156/183/163
f 149/152/164 148/153/164 161/182/164 162/184/164
f 144/176/165 143/175/165 156/183/165 157/185/165
f 137/165/166 80/186/166 150/187/166
f 298/188/167 149/152/167 162/184/167
f 145/170/168 144/176/168 157/185/168 158/171/168
f 138/166/169 137/165/169 150/187/169 151/189/169
f 131/159/170 145/170/170 530/170/170 526/159/170
f 139/168/171 138/166/171 151/189/171 152/190/171
f 173/191/172 174/192/172 537/192/172 536/191/172
f 140/169/173 139/168/173 152/190/173 153/193/173
f 174/192/174 159/194/174 533/194/174 537/192/174
f 141/172/175 140/169/175 153/193/175 154/179/175
f 147/173/176 146/167/176 159/194/176 160/181/176
f 132/160/177 131/159/177 526/159/177 527/160/177
f 152/190/178 151/189/178 164/195/178 165/196/178
f 159/194/179 146/167/179 531/167/179 533/194/179
f 153/193/180 152/190/180 165/196/180 166/197/180
f 172/198/181 173/191/181 536/191/181 535/198/181
f 154/179/182 153/193/182 166/197/182 167/199/182
f 160/181/183 159/194/183 174/192/183 175/200/183
f 155/180/184 154/179/184 167/199/184 168/201/184
f 161/182/185 160/181/185 175/200/185 176/202/185
f 156/183/186 155/180/186 168/201/186 169/203/186
f 162/184/187 161/182/187 176/202/187 177/204/187
f 157/185/188 156/183/188 169/203/188 170/205/188
f 150/187/189 80/206/189 163/207/189
f 298/208/190 162/184/190 177/204/190
f 158/171/191 157/185/191 170/205/191 171/209/191
f 151/189/192 150/187/192 163/207/192 164/195/192
f 176/202/193 175/200/193 190/210/193 191/211/193
f 169/203/194 168/201/194 183/212/194 184/213/194
f 177/204/195 176/202/195 191/211/195 192/214/195
f 170/205/196 169/203/196 184/213/196 185/215/196
f 163/207/197 80/216/197 178/217/197
f 298/218/198 177/204/198 192/214/198
f 171/209/199 170/205/199 185/215/199 186/219/199
f 164/195/200 163/207/200 178/217/200 179/220/200
f 172/198/201 171/209/201 186/219/201 187/221/201
f 165/196/202 164/195/202 179/220/202 180/222/202
f 173/191/203 172/198/203 187/221/203 188/223/203
f 166/197/204 165/196/204 180/222/204 181/224/204
f 174/192/205 173/191/205 188/223/205 189/225/205
f 167/199/206 166/197/206 181/224/206 182/226/206
f 175/200/207 174/192/207 189/225/207 190/210/207
f 168/201/208 167/199/208 182/226/208 183/212/208
f 188/223/209 187/221/209 202/227/209 203/228/209
f 181/224/210 180/222/210 195/229/210 196/230/210
f 189/225/211 188/223/211 203/228/211 204/231/211
f 182/226/212 181/224/212 196/230/212 197/232/212
f 190/210/213 189/225/213 204/231/213 205/233/213
f 183/212/214 182/226/214 197/232/214 198/234/214
f 191/211/215 190/210/215 205/233/215 206/235/215
f 184/213/216 183/212/216 198/234/216 199/236/216
f 192/214/217 191/211/217 206/235/217 207/237/217
f 185/215/218 184/213/218 199/236/218 200/238/218
f 178/217/219 80/239/219 193/240/219
f 298/241/220 192/214/220 207/237/220
f 186/219/221 185/215/221 200/238/221 201/242/221
f 179/220/222 178/217/222 193/240/222 194/243/222
f 187/221/223 186/219/223 201/242/223 202/227/223
f 180/222/224 179/220/224 194/243/224 195/229/224
f 207/237/225 206/235/225 221/244/225 222/245/225
f 200/238/226 199/236/226 214/246/226 215/247/226
f 193/240/227 80/248/227 208/249/227
f 298/250/228 207/237/228 222/245/228
f 201/242/229 200/238/229 215/247/229 216/251/229
f 194/243/230 193/240/230 208/249/230 209/252/230
f 202/227/231 201/242/231 216/251/231 217/253/231
f 195/229/232 194/243/232 209/252/232 210/254/232
f 203/228/233 202/227/233 217/253/233 218/255/233
f 196/230/234 195/229/234 210/254/234 211/256/234
f 204/231/235 203/228/235 218/255/235 219/257/235
f 197/232/236 196/230/236 211/256/236 212/258/236
f 205/233/237 204/231/237 219/257/237 220/259/237
f 198/234/238 197/232/238 212/258/238 213/260/238
f 206/235/239 205/233/239 220/259/239 221/244/239
f 199/236/240 198/234/240 213/260/240 214/246/240
f 211/256/241 210/254/241 225/261/241 226/262/241
f 219/257/242 218/255/242 233/263/242 234/264/242
f 212/258/243 211/256/243 226/262/243 227/265/243
f 220/259/244 219/257/244 234/264/244 235/266/244
f 213/260/245 212/258/245 227/265/245 228/267/245
f 221/244/246 220/259/246 235/266/246 236/268/246
f 214/246/247 213/260/247 228/267/247 229/269/247
f 222/245/248 221/244/248 236/268/248 237/270/248
f 215/247/249 214/246/249 229/269/249 230/271/249
f 208/249/250 80/272/250 223/273/250
f 298/274/251 222/245/251 237/270/251
f 216/251/252 215/247/252 230/271/252 231/275/252
f 209/252/253 208/249/253 223/273/253 224/276/253
f 217/253/254 216/251/254 231/275/254 232/277/254
f 210/254/255 209/252/255 224/276/255 225/261/255
f 218/255/256 217/253/256 232/277/256 233/263/256
f 261/278/257 246/279/257 698/279/257 700/278/257
f 223/273/258 80/280/258 238/281/258
f 298/282/259 237/270/259 252/283/259
f 260/284/260 261/278/260 700/278/260 699/284/260
f 224/276/261 223/273/261 238/281/261 239/285/261
f 232/277/262 231/275/262 246/279/262 247/286/262
f 225/261/263 224/276/263 239/285/263 240/287/263
f 233/263/264 232/277/264 247/286/264 248/288/264
f 226/262/265 225/261/265 240/287/265 241/289/265
f 234/264/266 233/263/266 248/288/266 249/290/266
f 227/265/267 226/262/267 241/289/267 242/291/267
f 235/266/268 234/264/268 249/290/268 250/292/268
f 228/267/269 227/265/269 242/291/269 243/293/269
f 236/268/270 235/266/270 250/292/270 251/294/270
f 229/269/271 228/267/271 243/293/271 244/295/271
f 237/270/272 236/268/272 251/294/272 252/283/272
f 249/290/273 248/288/273 263/296/273 264/297/273
f 242/291/274 241/289/274 256/298/274 257/299/274
f 250/292/275 249/290/275 264/297/275 265/300/275
f 243/293/276 242/291/276 257/299/276 258/301/276
f 251/294/277 250/292/277 265/300/277 266/302/277
f 244/295/278 243/293/278 258/301/278 259/303/278
f 252/283/279 251/294/279 266/302/279 267/304/279
f 245/305/280 244/295/280 259/303/280 260/284/280
f 238/281/281 80/306/281 253/307/281
f 298/308/282 252/283/282 267/304/282
f 246/279/283 231/275/283 695/275/283 698/279/283
f 239/285/284 238/281/284 253/307/284 254/309/284
f 247/286/285 246/279/285 261/278/285 262/310/285
f 240/287/286 239/285/286 254/309/286 255/311/286
f 248/288/287 247/286/287 262/310/287 263/296/287
f 241/289/288 240/287/288 255/311/288 256/298/288
f 253/307/289 80/312/289 268/313/289
f 298/314/290 267/304/290 282/315/290
f 261/278/291 260/284/291 275/316/291 276/317/291
f 254/309/292 253/307/292 268/313/292 269/318/292
f 262/310/293 261/278/293 276/317/293 277/319/293
f 255/311/294 254/309/294 269/318/294 270/320/294
f 263/296/295 262/310/295 277/319/295 278/321/295
f 256/298/296 255/311/296 270/320/296 271/322/296
f 264/297/297 263/296/297 278/321/297 279/323/297
f 257/299/298 256/298/298 271/322/298 272/324/298
f 265/300/299 264/297/299 279/323/299 280/325/299
f 258/301/300 257/299/300 272/324/300 273/326/300
f 266/302/301 265/300/301 280/325/301 281/327/301
f 259/303/302 258/301/302 273/326/302 274/328/302
f 267/304/303 266/302/303 281/327/303 282/315/303
f 260/284/304 259/303/304 274/328/304 275/316/304
f 272/324/305 271/322/305 286/329/305 287/330/305
f 280/325/306 279/323/306 294/331/306 295/332/306
f 273/326/307 272/324/307 287/330/307 288/333/307
f 281/327/308 280/325/308 295/332/308 296/334/308
f 274/328/309 273/326/309 288/333/309 289/335/309
f 282/315/310 281/327/310 296/334/310 297/336/310
f 275/316/311 274/328/311 289/335/311 290/337/311
f 268/313/312 80/338/312 283/339/312
f 298/340/313 282/315/313 297/336/313
f 276/317/314 275/316/314 290/337/314 291/341/314
f 269/318/315 268/313/315 283/339/315 284/342/315
f 277/319/316 276/317/316 291/341/316 292/343/316
f 270/320/317 269/318/317 284/342/317 285/344/317
f 278/321/318 277/319/318 292/343/318 293/345/318
f 271/322/319 270/320/319 285/344/319 286/329/319
f 279/323/320 278/321/320 293/345/320 294/331/320
f 291/341/321 290/337/321 306/346/321 307/347/321
f 284/342/322 283/339/322 299/348/322 300/349/322
f 292/343/323 291/341/323 307/347/323 308/350/323
f 285/344/324 284/342/324 300/349/324 301/351/324
f 293/345/325 292/343/325 308/350/325 309/352/325
f 286/329/326 285/344/326 301/351/326 302/353/326
f 294/331/327 293/345/327 309/352/327 310/354/327
f 287/330/328 286/329/328 302/353/328 303/355/328
f 295/332/329 294/331/329 310/354/329 311/356/329
f 288/333/330 287/330/330 303/355/330 304/357/330
f 296/334/331 295/332/331 311/356/331 312/358/331
f 289/335/332 288/333/332 304/357/332 305/359/332
f 297/336/333 296/334/333 312/358/333 313/360/333
f 290/337/334 289/335/334 305/359/334 306/346/334
f 283/339/335 80/361/335 299/348/335
f 298/362/336 297/336/336 313/360/336
f 311/356/337 310/354/337 325/363/337 326/364/337
f 304/357/338 303/355/338 318/365/338 319/366/338
f 312/358/339 311/356/339 326/364/339 327/367/339
f 305/359/340 304/357/340 319/366/340 320/368/340
f 313/360/341 312/358/341 327/367/341 328/369/341
f 306/346/342 305/359/342 320/368/342 321/370/342
f 299/348/343 80/371/343 314/372/343
f 298/373/344 313/360/344 328/369/344
f 307/347/345 306/346/345 321/370/345 322/374/345
f 300/349/346 299/348/346 314/372/346 315/375/346
f 308/350/347 307/347/347 322/374/347 323/376/347
f 301/351/348 300/349/348 315/375/348 316/377/348
f 309/352/349 308/350/349 323/376/349 324/378/349
f 302/353/350 301/351/350 316/377/350 317/379/350
f 310/354/351 309/352/351 324/378/351 325/363/351
f 303/355/352 302/353/352 317/379/352 318/365/352
f 323/376/353 322/374/353 348/374/353 684/376/353
f 316/377/354 315/375/354 330/380/354 331/381/354
f 369/382/355 354/383/355 691/383/355 694/382/355
f 317/379/356 316/377/356 331/381/356 332/384/356
f 325/363/357 324/378/357 339/385/357 340/386/357
f 318/365/358 317/379/358 332/384/358 333/387/358
f 326/364/359 325/363/359 340/386/359 341/388/359
f 319/366/360 318/365/360 333/387/360 334/389/360
f 327/367/361 326/364/361 341/388/361 342/390/361
f 320/368/362 319/366/362 334/389/362 335/391/362
f 328/369/363 327/367/363 342/390/363 343/392/363
f 321/370/364 320/368/364 335/391/364 336/393/364
f 314/372/365 80/394/365 329/395/365
f 298/396/366 328/369/366 343/392/366
f 322/374/367 321/370/367 336/393/367 337/397/367
f 315/375/368 314/372/368 329/395/368 330/380/368
f 342/390/369 341/388/369 356/398/369 357/399/369
f 335/391/370 334/389/370 349/400/370 350/401/370
f 343/392/371 342/390/371 357/399/371 358/402/371
f 336/393/372 335/391/372 350/401/372 351/403/372
f 329/395/373 80/404/373 344/405/373
f 298/406/374 343/392/374 358/402/374
f 337/397/375 336/393/375 351/403/375 352/407/375
f 330/380/376 329/395/376 344/405/376 345/408/376
f 337/397/377 352/407/377 689/407/377 686/397/377
f 331/381/378 330/380/378 345/408/378 346/409/378
f 368/410/379 369/382/379 694/382/379 693/410/379
f 332/384/380 331/381/380 346/409/380 347/411/380
f 340/386/381 339/385/381 354/412/381 355/413/381
f 332/384/382 347/411/382 678/411/382 675/384/382
f 341/388/383 340/386/383 355/413/383 356/398/383
f 349/400/384 334/389/384 677/389/384 680/400/384
f 346/414/385 345/415/385 360/416/385 361/417/385
f 322/374/386 337/397/386 686/397/386 348/374/386
f 347/418/387 346/414/387 361/417/387 362/419/387
f 355/420/388 354/383/388 369/382/388 370/421/388
f 334/389/389 333/387/389 676/387/389 677/389/389
f 356/422/390 355/420/390 370/421/390 371/423/390
f 362/419/391 363/424/391 682/424/391 681/419/391
f 357/425/392 356/422/392 371/423/392 372/426/392
f 350/427/393 349/428/393 364/429/393 365/430/393
f 358/431/394 357/425/394 372/426/394 373/432/394
f 351/433/395 350/427/395 365/430/395 366/434/395
f 344/435/396 80/436/396 359/437/396
f 298/438/397 358/431/397 373/432/397
f 352/439/398 351/433/398 366/434/398 367/440/398
f 345/415/399 344/435/399 359/437/399 360/416/399
f 367/440/400 368/410/400 693/410/400 692/440/400
f 365/430/401 364/429/401 379/441/401 380/442/401
f 373/432/402 372/426/402 387/443/402 388/444/402
f 366/434/403 365/430/403 380/442/403 381/445/403
f 359/437/404 80/446/404 374/447/404
f 298/448/405 373/432/405 388/444/405
f 367/440/406 366/434/406 381/445/406 382/449/406
f 360/416/407 359/437/407 374/447/407 375/450/407
f 368/410/408 367/440/408 382/449/408 383/451/408
f 361/417/409 360/416/409 375/450/409 376/452/409
f 369/382/410 368/410/410 383/451/410 384/453/410
f 362/419/411 361/417/411 376/452/411 377/454/411
f 370/421/412 369/382/412 384/453/412 385/455/412
f 363/424/413 362/419/413 377/454/413 378/456/413
f 371/423/414 370/421/414 385/455/414 386/457/414
f 364/429/415 363/424/415 378/456/415 379/441/415
f 372/426/416 371/423/416 386/457/416 387/443/416
f 384/453/417 383/451/417 398/458/417 399/459/417
f 377/454/418 376/452/418 391/460/418 392/461/418
f 385/455/419 384/453/419 399/459/419 400/462/419
f 378/456/420 377/454/420 392/461/420 393/463/420
f 386/457/421 385/455/421 400/462/421 401/464/421
f 379/441/422 378/456/422 393/463/422 394/465/422
f 387/443/423 386/457/423 401/464/423 402/466/423
f 380/442/424 379/441/424 394/465/424 395/467/424
f 388/444/425 387/443/425 402/466/425 403/468/425
f 396/469/426 381/445/426 672/445/426 674/469/426
f 374/447/427 80/470/427 389/471/427
f 298/472/428 388/444/428 403/468/428
f 382/449/429 381/445/429 396/469/429 397/473/429
f 375/450/430 374/447/430 389/471/430 390/474/430
f 383/451/431 382/449/431 397/473/431 398/458/431
f 376/452/432 375/450/432 390/474/432 391/460/432
f 403/468/433 402/466/433 417/475/433 418/476/433
f 396/469/434 395/467/434 410/477/434 411/478/434
f 389/471/435 80/479/435 404/480/435
f 298/481/436 403/468/436 418/476/436
f 397/473/437 396/469/437 411/478/437 412/482/437
f 390/474/438 389/471/438 404/480/438 405/483/438
f 398/458/439 397/473/439 412/482/439 413/484/439
f 391/460/440 390/474/440 405/483/440 406/485/440
f 399/459/441 398/458/441 413/484/441 414/486/441
f 392/461/442 391/460/442 406/485/442 407/487/442
f 400/462/443 399/459/443 414/486/443 415/488/443
f 393/463/444 392/461/444 407/487/444 408/489/444
f 401/464/445 400/462/445 415/488/445 416/490/445
f 394/465/446 393/463/446 408/489/446 409/491/446
f 402/466/447 401/464/447 416/490/447 417/475/447
f 395/467/448 394/465/448 409/491/448 410/477/448
f 407/487/449 406/485/449 421/492/449 422/493/449
f 415/488/450 414/486/450 429/494/450 430/495/450
f 408/489/451 407/487/451 422/493/451 423/496/451
f 416/490/452 415/488/452 430/495/452 431/497/452
f 409/491/453 408/489/453 423/496/453 424/498/453
f 417/475/454 416/490/454 431/497/454 432/499/454
f 410/477/455 409/491/455 424/498/455 425/500/455
f 418/476/456 417/475/456 432/499/456 433/501/456
f 411/478/457 410/477/457 425/500/457 426/502/457
f 404/480/458 80/503/458 419/504/458
f 298/505/459 418/476/459 433/501/459
f 412/482/460 411/478/460 426/502/460 427/506/460
f 405/483/461 404/480/461 419/504/461 420/507/461
f 413/484/462 412/482/462 427/506/462 428/508/462
f 406/485/463 405/483/463 420/507/463 421/492/463
f 414/486/464 413/484/464 428/508/464 429/494/464
f 426/502/465 425/500/465 440/509/465 441/510/465
f 419/504/466 80/511/466 434/512/466
f 298/513/467 433/501/467 448/514/467
f 427/506/468 426/502/468 441/510/468 442/515/468
f 420/507/469 419/504/469 434/512/469 435/516/469
f 428/508/470 427/506/470 442/515/470 443/517/470
f 421/492/471 420/507/471 435/516/471 436/518/471
f 429/494/472 428/508/472 443/517/472 444/519/472
f 422/493/473 421/492/473 436/518/473 437/520/473
f 430/495/474 429/494/474 444/519/474 445/521/474
f 423/496/475 422/493/475 437/520/475 438/522/475
f 431/497/476 430/495/476 445/521/476 446/523/476
f 424/498/477 423/496/477 438/522/477 439/524/477
f 432/499/478 431/497/478 446/523/478 447/525/478
f 425/500/479 424/498/479 439/524/479 440/509/479
f 433/501/480 432/499/480 447/525/480 448/514/480
f 445/521/481 444/519/481 459/526/481 460/527/481
f 438/522/482 437/520/482 452/528/482 453/529/482
f 446/523/483 445/521/483 460/527/483 461/530/483
f 439/524/484 438/522/484 453/529/484 454/531/484
f 447/525/485 446/523/485 461/530/485 462/532/485
f 440/509/486 439/524/486 454/531/486 455/533/486
f 448/514/487 447/525/487 462/532/487 463/534/487
f 441/510/488 440/509/488 455/533/488 456/535/488
f 434/512/489 80/536/489 449/537/489
f 298/538/490 448/514/490 463/534/490
f 442/515/491 441/510/491 456/535/491 457/539/491
f 435/516/492 434/512/492 449/537/492 450/540/492
f 443/517/493 442/515/493 457/539/493 458/541/493
f 436/518/494 435/516/494 450/540/494 451/542/494
f 444/519/495 443/517/495 458/541/495 459/526/495
f 437/520/496 436/518/496 451/542/496 452/528/496
f 298/543/497 463/534/497 472/5/497
f 457/539/498 456/535/498 4/8/498 5/7/498
f 450/540/499 449/537/499 464/1/499 465/11/499
f 458/541/500 457/539/500 5/7/500 468/13/500
f 451/542/501 450/540/501 465/11/501 1/15/501
f 459/526/502 458/541/502 468/13/502 6/17/502
f 452/528/503 451/542/503 1/15/503 466/19/503
f 460/527/504 459/526/504 6/17/504 469/21/504
f 453/529/505 452/528/505 466/19/505 2/23/505
f 461/530/506 460/527/506 469/21/506 470/25/506
f 454/531/507 453/529/507 2/23/507 467/27/507
f 462/532/508 461/530/508 470/25/508 471/29/508
f 455/533/509 454/531/509 467/27/509 3/32/509
f 463/534/510 462/532/510 471/29/510 472/5/510
f 456/535/511 455/533/511 3/32/511 4/8/511
f 449/537/512 80/544/512 464/1/512
f 484/545/513 478/546/513 496/546/513 489/545/513
f 475/547/514 474/548/514 492/548/514 495/547/514
f 477/549/515 475/547/515 495/547/515 491/549/515
f 479/550/516 480/551/516 497/551/516 493/550/516
f 101/120/517 100/117/517 481/117/517 482/120/517
f 129/146/518 115/147/518 485/147/518 488/146/518
f 114/143/519 127/164/519 486/164/519 476/143/519
f 127/164/520 128/145/520 487/145/520 486/164/520
f 473/552/521 474/548/521 482/120/521 481/117/521
f 474/548/522 475/547/522 483/123/522 482/120/522
f 484/545/523 473/552/523 481/117/523 476/143/523
f 475/547/524 477/549/524 485/147/524 483/123/524
f 479/550/525 478/546/525 486/164/525 487/145/525
f 480/551/526 479/550/526 487/145/526 488/146/526
f 478/546/527 484/545/527 476/143/527 486/164/527
f 477/549/528 480/551/528 488/146/528 485/147/528
f 492/548/529 494/552/529 489/545/529 490/553/529
f 495/547/530 492/548/530 490/553/530 491/549/530
f 490/553/531 489/545/531 496/546/531 493/550/531
f 491/549/532 490/553/532 493/550/532 497/551/532
f 478/546/533 479/550/533 493/550/533 496/546/533
f 473/552/534 484/545/534 489/545/534 494/552/534
f 474/548/535 473/552/535 494/552/535 492/548/535
f 480/551/536 477/549/536 491/549/536 497/551/536
f 501/554/537 499/555/537 507/555/537 509/554/537
f 88/103/538 103/125/538 504/125/538 502/103/538
f 103/125/539 104/130/539 505/130/539 504/125/539
f 104/130/540 89/104/540 503/104/540 505/130/540
f 498/556/541 499/555/541 503/104/541 502/103/541
f 501/554/541 500/557/541 504/125/541 505/130/541
f 500/557/541 498/556/541 502/103/541 504/125/541
f 499/555/541 501/554/541 505/130/541 503/104/541
f 507/555/541 506/556/541 508/557/541 509/554/541
f 500/557/542 501/554/542 509/554/542 508/557/542
f 498/556/543 500/557/543 508/557/543 506/556/543
f 499/555/544 498/556/544 506/556/544 507/555/544
f 522/558/545 523/559/545 548/559/545 552/558/545
f 511/560/546 510/561/546 550/561/546 542/560/546
f 518/562/547 522/558/547 552/558/547 544/562/547
f 510/561/548 514/563/548 538/563/548 550/561/548
f 521/564/549 517/565/549 541/565/549 547/564/549
f 524/566/550 525/567/550 553/567/550 549/566/550
f 513/568/551 512/569/551 543/569/551 551/568/551
f 514/563/552 518/562/552 544/562/552 538/563/552
f 523/559/553 524/566/553 549/566/553 548/559/553
f 134/150/554 133/162/554 528/162/554 529/150/554
f 171/209/555 172/198/555 535/198/555 534/209/555
f 158/171/556 171/209/556 534/209/556 532/171/556
f 510/561/557 511/560/557 527/160/557 526/159/557
f 511/560/558 512/569/558 528/162/558 527/160/558
f 512/569/559 513/568/559 529/150/559 528/162/559
f 514/563/560 510/561/560 526/159/560 530/170/560
f 513/568/561 517/565/561 531/167/561 529/150/561
f 518/562/562 514/563/562 530/170/562 532/171/562
f 517/565/563 521/564/563 533/194/563 531/167/563
f 523/559/564 522/558/564 534/209/564 535/198/564
f 524/566/565 523/559/565 535/198/565 536/191/565
f 525/567/566 524/566/566 536/191/566 537/192/566
f 522/558/567 518/562/567 532/171/567 534/209/567
f 521/564/568 525/567/568 537/192/568 533/194/568
f 542/560/569 550/561/569 538/563/569 539/570/569
f 543/569/570 542/560/570 539/570/570 540/571/570
f 551/568/571 543/569/571 540/571/571 541/565/571
f 539/570/572 538/563/572 544/562/572 545/572/572
f 540/571/573 539/570/573 545/572/573 546/573/573
f 541/565/574 540/571/574 546/573/574 547/564/574
f 545/572/575 544/562/575 552/558/575 548/559/575
f 546/573/576 545/572/576 548/559/576 549/566/576
f 547/564/577 546/573/577 549/566/577 553/567/577
f 517/565/578 513/568/578 551/568/578 541/565/578
f 525/567/579 521/564/579 547/564/579 553/567/579
f 512/569/580 511/560/580 542/560/580 543/569/580
f 516/574/581 515/575/581 561/575/581 560/574/581
f 130/154/582 131/159/582 557/159/582 556/154/582
f 131/159/583 117/135/583 555/135/583 557/159/583
f 116/134/584 130/154/584 556/154/584 554/134/584
f 520/576/585 519/577/585 555/135/585 554/134/585
f 515/575/585 516/574/585 556/154/585 557/159/585
f 516/574/586 520/576/586 554/134/586 556/154/586
f 519/577/587 515/575/587 557/159/587 555/135/587
f 559/577/587 558/576/587 560/574/587 561/575/587
f 520/576/588 516/574/588 560/574/588 558/576/588
f 519/577/589 520/576/589 558/576/589 559/577/589
f 515/575/590 519/577/590 559/577/590 561/575/590
f 563/578/591 562/579/591 584/579/591 582/578/591
f 567/580/592 564/581/592 585/581/592 581/580/592
f 568/582/593 569/583/593 583/583/593 586/582/593
f 575/584/594 568/582/594 586/582/594 579/584/594
f 72/94/595 58/72/595 574/72/595 578/94/595
f 42/57/596 57/83/596 565/83/596 571/57/596
f 57/83/597 70/85/597 576/85/597 565/83/597
f 71/86/598 72/94/598 578/94/598 577/86/598
f 562/579/599 563/578/599 572/59/599 571/57/599
f 563/578/600 564/581/600 573/61/600 572/59/600
f 564/581/601 567/580/601 574/72/601 573/61/601
f 575/584/602 562/579/602 571/57/602 565/83/602
f 569/583/603 568/582/603 576/85/603 577/86/603
f 570/585/604 569/583/604 577/86/604 578/94/604
f 568/582/605 575/584/605 565/83/605 576/85/605
f 567/580/606 570/585/606 578/94/606 574/72/606
f 585/581/607 582/578/607 580/586/607 581/580/607
f 582/578/608 584/579/608 579/584/608 580/586/608
f 580/586/609 579/584/609 586/582/609 583/583/609
f 581/580/610 580/586/610 583/583/610 587/585/610
f 570/585/611 567/580/611 581/580/611 587/585/611
f 569/583/612 570/585/612 587/585/612 583/583/612
f 562/579/613 575/584/613 579/584/613 584/579/613
f 564/581/614 563/578/614 582/578/614 585/581/614
f 589/587/615 588/588/615 617/588/615 626/587/615
f 601/589/616 598/590/616 623/590/616 628/589/616
f 590/591/617 593/592/617 618/592/617 614/591/617
f 598/590/618 608/593/618 620/593/618 623/590/618
f 588/588/619 566/594/619 625/594/619 617/588/619
f 596/595/620 599/596/620 627/596/620 621/595/620
f 606/597/621 589/587/621 626/587/621 616/597/621
f 593/592/622 596/595/622 621/595/622 618/592/622
f 94/114/623 93/112/623 602/112/623 603/114/623
f 147/173/624 148/153/624 612/153/624 611/173/624
f 109/124/625 95/102/625 604/102/625 592/124/625
f 121/144/626 135/151/626 609/151/626 607/144/626
f 566/594/627 588/588/627 603/114/627 602/112/627
f 588/588/628 589/587/628 604/102/628 603/114/628
f 590/591/629 566/594/629 602/112/629 605/119/629
f 589/587/630 606/597/630 592/124/630 604/102/630
f 593/592/631 590/591/631 605/119/631 607/144/631
f 606/597/632 608/593/632 595/122/632 592/124/632
f 596/595/633 593/592/633 607/144/633 609/151/633
f 608/593/634 598/590/634 610/121/634 595/122/634
f 600/598/635 599/596/635 611/173/635 612/153/635
f 601/589/636 600/598/636 612/153/636 613/152/636
f 599/596/637 596/595/637 609/151/637 611/173/637
f 598/590/638 601/589/638 613/152/638 610/121/638
f 617/588/639 625/594/639 614/591/639 615/599/639
f 626/587/640 617/588/640 615/599/640 616/597/640
f 615/599/641 614/591/641 618/592/641 619/600/641
f 616/597/642 615/599/642 619/600/642 620/593/642
f 619/600/643 618/592/643 621/595/643 622/601/643
f 620/593/644 619/600/644 622/601/644 623/590/644
f 622/601/645 621/595/645 627/596/645 624/598/645
f 623/590/646 622/601/646 624/598/646 628/589/646
f 599/596/647 600/598/647 624/598/647 627/596/647
f 608/593/648 606/597/648 616/597/648 620/593/648
f 566/594/649 590/591/649 614/591/649 625/594/649
f 600/598/650 601/589/650 628/589/650 624/598/650
f 629/602/651 594/603/651 635/603/651 637/602/651
f 106/133/652 107/118/652 633/118/652 632/133/652
f 107/118/653 92/110/653 631/110/653 633/118/653
f 91/108/654 106/133/654 632/133/654 630/108/654
f 597/604/655 594/603/655 631/110/655 630/108/655
f 629/602/655 591/605/655 632/133/655 633/118/655
f 594/603/655 629/602/655 633/118/655 631/110/655
f 591/605/655 597/604/655 630/108/655 632/133/655
f 635/603/655 634/604/655 636/605/655 637/602/655
f 594/603/656 597/604/656 634/604/656 635/603/656
f 597/604/657 591/605/657 636/605/657 634/604/657
f 591/605/658 629/602/658 637/602/658 636/605/658
f 649/606/659 643/607/659 661/607/659 654/606/659
f 640/608/660 639/609/660 657/609/660 660/608/660
f 650/610/661 640/608/661 660/608/661 656/610/661
f 644/611/662 645/612/662 662/612/662 658/611/662
f 62/84/663 49/56/663 648/56/663 642/84/663
f 77/80/664 62/84/664 642/84/664 653/80/664
f 48/54/665 47/51/665 646/51/665 647/54/665
f 47/51/666 61/77/666 641/77/666 646/51/666
f 638/613/667 639/609/667 647/54/667 646/51/667
f 639/609/668 640/608/668 648/56/668 647/54/668
f 649/606/669 638/613/669 646/51/669 641/77/669
f 640/608/670 650/610/670 642/84/670 648/56/670
f 644/611/671 643/607/671 651/82/671 652/79/671
f 645/612/672 644/611/672 652/79/672 653/80/672
f 643/607/673 649/606/673 641/77/673 651/82/673
f 650/610/674 645/612/674 653/80/674 642/84/674
f 657/609/675 659/613/675 654/606/675 655/614/675
f 660/608/676 657/609/676 655/614/676 656/610/676
f 655/614/677 654/606/677 661/607/677 658/611/677
f 656/610/678 655/614/678 658/611/678 662/612/678
f 643/607/679 644/611/679 658/611/679 661/607/679
f 638/613/680 649/606/680 654/606/680 659/613/680
f 639/609/681 638/613/681 659/613/681 657/609/681
f 645/612/682 650/610/682 656/610/682 662/612/682
f 665/32/14 666/27/14 670/27/14 669/32/14
f 3/32/683 467/27/683 666/27/683 665/32/683
f 467/27/684 12/28/684 663/28/684 666/27/684
f 12/28/14 13/31/14 664/31/14 663/28/14
f 669/32/685 670/27/685 667/28/685 668/31/685
f 663/28/14 664/31/14 668/31/14 667/28/14
f 666/27/14 663/28/14 667/28/14 670/27/14
f 664/31/14 665/32/14 669/32/14 668/31/14
f 672/445/686 671/442/686 673/467/686 674/469/686
f 380/442/687 395/467/687 673/467/687 671/442/687
f 381/445/688 380/442/688 671/442/688 672/445/688
f 395/467/689 396/469/689 674/469/689 673/467/689
f 676/387/690 675/384/690 678/411/690 679/615/690
f 677/389/691 676/387/691 679/615/691 680/400/691
f 679/616/692 678/418/692 681/419/692 682/424/692
f 680/428/693 679/616/693 682/424/693 683/429/693
f 363/424/694 364/429/694 683/429/694 682/424/694
f 364/429/695 349/428/695 680/428/695 683/429/695
f 333/387/696 332/384/696 675/384/696 676/387/696
f 347/418/697 362/419/697 681/419/697 678/418/697
f 684/376/698 348/374/698 686/397/698 687/617/698
f 685/378/699 684/376/699 687/617/699 688/385/699
f 687/617/700 686/397/700 689/407/700 690/618/700
f 688/385/701 687/617/701 690/618/701 691/412/701
f 691/383/702 690/619/702 693/410/702 694/382/702
f 690/619/703 689/439/703 692/440/703 693/410/703
f 354/412/704 339/385/704 688/385/704 691/412/704
f 324/378/705 323/376/705 684/376/705 685/378/705
f 352/439/706 367/440/706 692/440/706 689/439/706
f 339/385/707 324/378/707 685/378/707 688/385/707
f 338/271/708 353/269/708 696/295/708 697/305/708
f 695/275/709 338/271/709 697/305/709 698/279/709
f 698/279/710 697/305/710 699/284/710 700/278/710
f 230/271/711 229/269/711 353/269/711 338/271/711
f 245/305/712 260/284/712 699/284/712 697/305/712
f 244/295/713 245/305/713 697/305/713 696/295/713
f 229/269/714 244/295/714 696/295/714 353/269/714
f 231/275/715 230/271/715 338/271/715 695/275/715
