# WaveFront *.obj file (generated by Cinema 4D)

mtllib ./taobaodianpu_CFSC127.mtl

v -16.670800 -18.125650 -21.918850
v -11.423800 -19.810550 -21.320450
v -16.729900 -18.006350 -19.448950
v -2.308900 -22.382750 -18.285150
v -11.642300 -20.975550 -18.751350
v -11.553300 -15.902650 -22.821750
v -2.132600 -17.823250 -22.702050
v -16.569600 -18.730050 -12.689350
v -17.760300 -14.919750 -13.596550
v -18.275000 -14.122650 -20.316250
v -17.276400 -14.143650 -22.309650
v -17.276400 -14.143650 -22.309650
v -19.150700 -7.219350 -19.952050
v -17.276400 -14.143650 -22.309650
v -11.553300 -15.902650 -22.821750
v -19.059200 -5.702350 -14.669650
v -2.351500 -21.361850 -21.240550
v 7.390800 -21.718750 -21.519150
v 14.219300 -22.565550 -18.375350
v -2.132600 -17.823250 -22.702050
v 8.233900 -13.436150 -23.356250
v -16.640300 -19.914750 -0.486750
v -12.695200 -22.223750 -11.068750
v -17.425800 -16.504950 -0.474750
v -3.492200 -22.617350 -9.856650
v -17.565600 -6.825650 -22.092250
v -17.565600 -6.825650 -22.092250
v -19.274800 2.479850 -19.263950
v -16.918000 2.673650 -22.332750
v -9.406400 0.807850 -23.072250
v -16.918000 2.673650 -22.332750
v -11.236300 -10.761550 -22.850450
v -18.029800 -8.215450 -1.887450
v 7.859600 -18.738650 -22.857650
v 14.353900 -21.731450 -21.562550
v 14.419800 -19.129950 -23.002850
v 16.856800 -21.203350 -21.200450
v 7.859600 -18.738650 -22.857650
v 14.419800 -19.129950 -23.002850
v 14.668000 -22.742350 -8.373950
v 18.126600 -22.084650 -10.754550
v 16.418500 -13.514850 -21.888350
v 18.447100 -19.235550 -18.390450
v 17.147400 -18.845150 -21.823250
v 17.397100 -21.612750 -18.304350
v 17.147400 -18.845150 -21.823250
v 17.914000 -13.587050 -18.536850
v 19.274800 -19.806750 -11.227250
v 18.866600 -13.469550 -12.243050
v 16.418500 -13.514850 -21.888350
v 17.489700 -22.063850 -0.022550
v 18.228300 -19.461050 -0.553250
v 12.593600 7.831750 -22.726450
v 7.534600 18.440650 -22.368650
v 14.524300 18.000250 -18.622350
v 15.538700 8.192250 -20.856450
v 14.149100 -13.458650 -23.076950
v 15.431200 -3.258350 -21.453550
v 7.316200 4.831050 -23.309850
v 15.431200 -3.258350 -21.453550
v 16.599900 -3.158050 -18.552350
v 17.843600 -3.529950 -12.615350
v 15.538700 8.192250 -20.856450
v 2.542600 9.725650 -23.110150
v -13.947000 -22.300750 12.115250
v -17.212800 -20.096150 12.914150
v -5.910600 -22.623750 12.087050
v -18.051600 -16.760750 14.129450
v -6.764200 19.981450 -22.611350
v -7.096600 12.349550 -23.114850
v -14.052900 19.106950 -20.355750
v -15.168400 12.512850 -21.697450
v -18.027700 13.359650 -14.733750
v -14.052900 19.106950 -20.355750
v -15.168400 12.512850 -21.697450
v -18.943100 6.979250 -11.731150
v -4.764500 -20.577150 21.642550
v -11.735300 -16.516150 22.997250
v -12.409800 -20.177050 21.904950
v -17.803200 -16.452950 20.724250
v -16.037000 -9.236350 22.449850
v -15.986500 -16.233150 22.197350
v -18.180400 -4.355050 20.961550
v -16.037000 -9.236350 22.449850
v -15.986500 -16.233150 22.197350
v -11.379700 -9.649750 22.968450
v 12.271100 -22.454250 17.564150
v -5.630300 -22.290650 19.059450
v -4.764500 -20.577150 21.642550
v 5.069400 -20.822450 20.817950
v 5.069400 -20.822450 20.817950
v 6.414100 -17.026350 22.110550
v -15.624100 -19.340850 22.005350
v -18.235500 -7.729450 15.133550
v -16.035700 1.227250 22.242250
v -16.035700 1.227250 22.242250
v -2.380900 1.515750 23.356250
v 12.925800 -22.527250 11.326150
v 16.493100 -21.492450 16.452750
v 17.286000 -18.367650 10.154350
v 17.412900 -8.674350 8.028850
v 18.323600 -12.199050 -4.100750
v 16.121900 -21.140150 18.463050
v 12.805400 -21.212350 19.662850
v 12.805400 -21.212350 19.662850
v 13.732600 -17.304650 20.893050
v 16.121900 -21.140150 18.463050
v 16.400400 -17.340550 18.642850
v 14.539100 -8.963850 21.603750
v 16.923700 -17.475850 16.507950
v 16.400400 -17.340550 18.642850
v 17.496900 -8.308750 16.513650
v 16.799700 -8.432750 19.260850
v 16.799700 -8.432750 19.260850
v 8.091500 -7.678950 23.181850
v 14.942800 1.020550 20.972550
v 17.318800 1.637850 15.708650
v 17.015200 1.544350 19.130550
v 17.015200 1.544350 19.130550
v -12.409800 -20.177050 21.904950
v -13.374400 -22.002650 19.337950
v -15.624100 -19.340850 22.005350
v -16.847600 -19.992250 20.288250
v -18.067800 8.630150 0.057750
v 15.198900 11.300850 20.415750
v 16.775100 11.910150 18.350750
v 16.775100 11.910150 18.350750
v 10.896600 10.344150 21.970250
v 0.127900 11.723950 22.483850
v -10.289200 20.178850 21.454750
v -11.980600 10.885450 22.339950
v -17.977500 21.110450 15.812050
v -18.192400 20.999150 19.910350
v -15.892900 21.699250 20.322850
v -15.892900 21.699250 20.322850
v -16.016900 19.410750 21.153550
v -16.016900 19.410750 21.153550
v -18.593100 18.594350 15.317150
v -16.076800 12.564150 21.546950
v -18.481000 18.615550 20.232850
v -17.983700 17.535350 0.927450
v -16.076800 12.564150 21.546950
v -18.768300 10.626950 15.548550
v -17.429000 21.081850 0.859950
v 18.235000 7.206850 -5.302150
v 17.711000 9.100550 3.985750
v 17.441800 17.049050 -7.454850
v 15.918600 17.696950 -14.787150
v 16.774800 7.966450 -17.981950
v 14.524300 18.000250 -18.622350
v 13.807300 21.663150 -16.504050
v 7.507300 22.064650 -20.334550
v 7.017900 22.742350 -16.491250
v 13.807300 21.663150 -16.504050
v 7.507300 22.064650 -20.334550
v 12.439700 22.555350 -14.668950
v 13.807300 21.663150 -16.504050
v 15.313700 21.506250 -12.770150
v 15.313700 21.506250 -12.770150
v 13.301300 22.672050 -10.116450
v -9.586000 22.728850 -7.729650
v 8.036800 22.705450 -8.766950
v 16.011200 21.425150 -9.044750
v 16.217600 21.305950 -4.030450
v 14.156500 22.483950 -1.747650
v 16.076000 21.076150 2.206150
v 16.011200 21.425150 -9.044750
v 16.217600 21.305950 -4.030450
v 17.644100 17.650650 2.141250
v -9.444000 22.720950 -14.257150
v -15.020600 22.401550 0.430050
v -14.720600 22.464050 -10.170950
v -15.347200 22.134350 15.197350
v -16.445100 19.705150 -12.601350
v -7.813700 22.582550 13.767550
v -3.181200 22.715550 -16.248350
v -9.851300 22.151350 20.370650
v -5.484900 22.260450 -20.716450
v -5.484900 22.260450 -20.716450
v -9.851300 22.151350 20.370650
v -12.310200 21.949850 -17.523950
v 2.934700 19.204950 21.499050
v 4.636200 22.528450 17.392350
v 3.906900 22.052550 20.506450
v 3.906900 22.052550 20.506450
v 16.981300 11.449850 13.477750
v -12.310200 21.949850 -17.523950
v 11.241600 22.624250 1.035050
v 8.871000 22.668450 8.212050
v 13.266500 22.353250 10.565650
v 15.362500 21.142650 10.658650
v 16.734900 18.537650 11.005350
v 16.076000 21.076150 2.206150
v 15.362500 21.142650 10.658650
v 11.885200 18.776550 21.286150
v 15.358100 18.949450 19.745450
v 12.506900 22.468850 17.483350
v 15.290600 21.760050 17.053350
v 15.290600 21.760050 17.053350
v 12.348800 22.152650 19.789450
v 12.348800 22.152650 19.789450
v 15.169800 21.881250 19.139050
v 16.224500 18.991650 17.355450
v 15.290600 21.760050 17.053350
v 15.169800 21.881250 19.139050
v 16.224500 18.991650 17.355450
# 206 vertices

vn -0.748250 -0.654219 -0.110031
vn -0.150031 -0.646219 -0.748250
vn -0.385375 -0.519188 -0.762812
vn -0.251781 -0.952187 -0.172844
vn -0.054906 -0.990531 -0.125813
vn -0.054969 -0.117937 -0.991469
vn -0.038938 -0.180750 -0.982750
vn -0.260750 -0.963812 -0.055156
vn -0.797531 -0.599906 -0.063188
vn -0.983187 -0.180844 0.023969
vn -0.023969 -0.999406 -0.023969
vn -0.978063 -0.181375 -0.102187
vn -0.339344 -0.071062 -0.937969
vn -0.985125 -0.047031 -0.165187
vn -0.062844 -0.023937 -0.997719
vn -0.997719 -0.038906 0.054875
vn -0.071000 -0.701281 -0.709281
vn -0.030844 -0.752437 -0.657906
vn 0.038844 -0.996125 -0.078687
vn 0.038969 -0.999188 0.007969
vn -0.007969 -0.023969 -0.999656
vn -0.811063 -0.583031 -0.047000
vn -0.990844 -0.133844 -0.015969
vn -0.999094 -0.038938 0.015969
vn -0.346375 0.000000 -0.938062
vn -0.959437 0.109812 -0.259562
vn -0.432656 0.086906 -0.897344
vn -0.062844 0.007969 -0.997969
vn 0.071188 -0.797125 -0.599594
vn -0.031063 -0.205437 -0.978156
vn 0.117688 -0.196469 -0.973406
vn 0.574437 -0.645344 -0.503500
vn 0.205531 0.008000 -0.978594
vn 0.592719 -0.805344 -0.008000
vn 0.778875 0.086875 -0.621094
vn 0.769969 -0.046875 -0.636312
vn 0.977719 -0.071125 -0.197344
vn 0.576250 -0.804750 -0.142312
vn 0.967281 0.093813 -0.235563
vn 0.996844 -0.078750 0.007969
vn 0.996719 0.070750 -0.038844
vn 0.630969 -0.773188 0.063094
vn 0.995313 -0.055156 0.079250
vn 0.660844 0.306937 -0.684844
vn 0.180594 0.251437 -0.950875
vn 0.282656 0.117844 -0.951937
vn 0.714906 0.149562 -0.683000
vn 0.023969 0.030969 -0.999219
vn 0.776406 0.062688 -0.627094
vn 0.966344 0.054844 -0.251281
vn 0.994406 0.047094 -0.094219
vn 0.015969 0.038938 -0.999094
vn -0.236625 -0.971563 0.008000
vn -0.822156 -0.569188 -0.008000
vn -0.015969 -0.999719 0.015969
vn -0.993875 -0.110188 -0.008000
vn -0.999656 -0.023969 -0.007969
vn -0.087156 0.283563 -0.954969
vn -0.062750 0.054781 -0.996500
vn -0.603688 0.384531 -0.698313
vn -0.525688 0.180187 -0.831344
vn -0.972125 0.173531 -0.157500
vn -0.998469 0.038938 0.038938
vn -0.038938 -0.550344 0.834000
vn -0.016000 -0.110188 0.993750
vn 0.031031 -0.559719 0.828062
vn -0.963313 -0.110250 0.244563
vn -0.362156 -0.071000 0.929375
vn -0.313812 0.000000 0.949469
vn -0.943656 -0.015969 0.330500
vn -0.046937 -0.015969 0.998750
vn -0.008000 -0.978594 0.205531
vn 0.047094 -0.986406 0.157375
vn 0.038938 -0.998937 0.023969
vn 0.070937 -0.558594 0.826375
vn 0.087281 -0.181625 0.979469
vn 0.102250 -0.016031 0.994625
vn -0.329719 -0.431313 0.839750
vn -0.259000 0.030875 0.965375
vn -0.063219 0.071219 0.995438
vn 0.007969 0.038969 0.999188
vn 0.715844 -0.691875 0.093844
vn 0.996906 -0.046844 0.062781
vn 0.998000 0.030938 0.054875
vn 0.998875 0.000000 0.046937
vn 0.621344 -0.487500 0.613375
vn 0.188281 -0.580781 0.791969
vn 0.329625 -0.188187 0.925156
vn 0.816469 -0.117625 0.565250
vn 0.379250 -0.047156 0.924062
vn 0.994187 -0.063125 0.087187
vn 0.997969 -0.007969 0.062844
vn 0.867312 -0.031031 0.496750
vn 0.424469 0.030938 0.904875
vn 0.998750 0.015969 0.046937
vn 0.919125 0.023937 0.393187
vn -0.189469 -0.963406 0.189469
vn -0.755813 -0.621844 0.204938
vn -0.999844 0.015969 0.000000
vn 0.964375 0.054719 0.258750
vn 0.502437 0.046844 0.863312
vn 0.141406 0.062719 0.987938
vn 0.015937 0.086656 0.996094
vn -0.023937 0.188562 0.981750
vn -0.149594 0.926562 0.345094
vn -0.726563 0.632219 0.268937
vn -0.788312 0.615031 -0.016000
vn -0.172562 0.149625 0.973562
vn -0.918375 0.046844 0.392875
vn -0.997719 0.062844 -0.023937
vn -0.205125 0.063031 0.976687
vn -0.993969 0.102187 -0.039063
vn -0.999812 -0.007969 -0.015969
vn -0.860906 0.505719 -0.055188
vn 0.999656 0.023969 -0.007969
vn 0.990062 0.125750 -0.062875
vn 0.967281 0.070844 -0.243563
vn 0.998344 0.015969 0.054906
vn 0.951344 0.188656 -0.243563
vn 0.165312 0.788625 -0.592219
vn 0.552500 0.662812 -0.505375
vn 0.023906 0.996594 -0.078719
vn 0.142063 0.984563 -0.102031
vn 0.000000 0.999937 0.007969
vn 0.820719 0.536125 -0.197406
vn 0.149500 0.988750 0.000000
vn 0.844250 0.528781 -0.087125
vn 0.840437 0.541344 -0.023906
vn 0.023969 0.999687 0.000000
vn 0.015969 0.999812 0.007969
vn 0.259094 0.965688 0.015937
vn 0.807781 0.588656 0.030875
vn 0.989156 0.141563 0.038875
vn -0.015969 0.999812 -0.007969
vn -0.394969 0.915250 -0.079187
vn -0.244156 0.969688 -0.008000
vn -0.173094 0.984594 0.024000
vn -0.900500 0.395094 -0.181500
vn -0.023969 0.999219 0.030969
vn -0.046875 0.997781 -0.046875
vn -0.007969 0.998438 -0.054906
vn -0.023969 0.912344 0.408688
vn -0.047000 0.843375 -0.535219
vn -0.361406 0.880562 -0.306500
vn 0.023969 0.180844 0.983187
vn 0.000000 0.998875 0.046937
vn 0.016000 0.858594 0.512344
vn 0.188594 0.981906 0.015937
vn 0.752437 0.657906 0.030844
vn 0.985531 0.157219 0.063094
vn 0.142312 0.150344 0.978312
vn 0.596344 0.125625 0.792813
vn 0.087281 0.995406 0.039125
vn 0.702719 0.710750 0.031063
vn 0.109656 0.729719 0.674875
vn 0.976125 0.157000 0.150000
vn 0.566594 0.574594 0.590563
# 157 normals

vt 0.402800 0.751700 0.000000
vt 0.407000 0.769000 0.000000
vt 0.409900 0.752800 0.000000
vt 0.399200 0.768700 0.000000
vt 0.396700 0.796000 0.000000
vt 0.418500 0.767300 0.000000
vt 0.416300 0.796600 0.000000
vt 0.377700 0.765700 0.000000
vt 0.383500 0.751500 0.000000
vt 0.387000 0.740200 0.000000
vt 0.373300 0.791700 0.000000
vt 0.406000 0.739500 0.000000
vt 0.412100 0.740500 0.000000
vt 0.420700 0.749800 0.000000
vt 0.406000 0.718800 0.000000
vt 0.169300 0.522000 0.000000
vt 0.183600 0.523700 0.000000
vt 0.175300 0.505400 0.000000
vt 0.391600 0.713400 0.000000
vt 0.405500 0.796300 0.000000
vt 0.404500 0.825000 0.000000
vt 0.393800 0.843100 0.000000
vt 0.366700 0.842700 0.000000
vt 0.162200 0.549300 0.000000
vt 0.173100 0.580300 0.000000
vt 0.349400 0.751600 0.000000
vt 0.350100 0.741700 0.000000
vt 0.355500 0.718300 0.000000
vt 0.413600 0.718300 0.000000
vt 0.195900 0.505900 0.000000
vt 0.405500 0.690400 0.000000
vt 0.416000 0.689500 0.000000
vt 0.222700 0.509500 0.000000
vt 0.215800 0.531000 0.000000
vt 0.401900 0.845000 0.000000
vt 0.413600 0.827500 0.000000
vt 0.409200 0.848100 0.000000
vt 0.399700 0.851700 0.000000
vt 0.156400 0.597700 0.000000
vt 0.172200 0.597700 0.000000
vt 0.158200 0.578400 0.000000
vt 0.372600 0.852300 0.000000
vt 0.171800 0.605200 0.000000
vt 0.403600 0.857300 0.000000
vt 0.393100 0.859100 0.000000
vt 0.392300 0.852100 0.000000
vt 0.156700 0.606400 0.000000
vt 0.395300 0.874900 0.000000
vt 0.374000 0.859400 0.000000
vt 0.377400 0.876600 0.000000
vt 0.405300 0.874000 0.000000
vt 0.344200 0.851100 0.000000
vt 0.345500 0.858900 0.000000
vt 0.262000 0.606200 0.000000
vt 0.262000 0.583300 0.000000
vt 0.231900 0.596400 0.000000
vt 0.233200 0.606400 0.000000
vt 0.224200 0.580600 0.000000
vt 0.200800 0.604200 0.000000
vt 0.404800 0.904600 0.000000
vt 0.396200 0.905200 0.000000
vt 0.379200 0.904600 0.000000
vt 0.402600 0.938100 0.000000
vt 0.238500 0.567400 0.000000
vt 0.314500 0.760600 0.000000
vt 0.313000 0.749500 0.000000
vt 0.312700 0.783600 0.000000
vt 0.310100 0.739700 0.000000
vt 0.307600 0.714100 0.000000
vt 0.268600 0.543000 0.000000
vt 0.247700 0.540000 0.000000
vt 0.269300 0.520800 0.000000
vt 0.250200 0.516400 0.000000
vt 0.415300 0.659200 0.000000
vt 0.411400 0.638700 0.000000
vt 0.394300 0.658000 0.000000
vt 0.385300 0.676300 0.000000
vt 0.276600 0.625200 0.000000
vt 0.265400 0.626000 0.000000
vt 0.275600 0.647200 0.000000
vt 0.292000 0.739000 0.000000
vt 0.285600 0.739700 0.000000
vt 0.284400 0.718500 0.000000
vt 0.291500 0.703900 0.000000
vt 0.246100 0.626200 0.000000
vt 0.267300 0.613300 0.000000
vt 0.246600 0.612300 0.000000
vt 0.293200 0.782800 0.000000
vt 0.295400 0.836100 0.000000
vt 0.312700 0.837900 0.000000
vt 0.284400 0.784400 0.000000
vt 0.285600 0.814600 0.000000
vt 0.276100 0.675300 0.000000
vt 0.265100 0.678700 0.000000
vt 0.239600 0.683100 0.000000
vt 0.276900 0.614700 0.000000
vt 0.285400 0.687300 0.000000
vt 0.188700 0.623800 0.000000
vt 0.216300 0.612100 0.000000
vt 0.214500 0.652100 0.000000
vt 0.299600 0.849100 0.000000
vt 0.316200 0.859900 0.000000
vt 0.354700 0.880100 0.000000
vt 0.320800 0.888700 0.000000
vt 0.293700 0.848800 0.000000
vt 0.278300 0.697800 0.000000
vt 0.289600 0.838300 0.000000
vt 0.281000 0.708500 0.000000
vt 0.267300 0.700400 0.000000
vt 0.269300 0.710400 0.000000
vt 0.243900 0.702400 0.000000
vt 0.298300 0.861000 0.000000
vt 0.292200 0.860600 0.000000
vt 0.297400 0.888400 0.000000
vt 0.289600 0.887500 0.000000
vt 0.243200 0.711900 0.000000
vt 0.216100 0.703900 0.000000
vt 0.299100 0.917800 0.000000
vt 0.289600 0.917200 0.000000
vt 0.214600 0.711900 0.000000
vt 0.285900 0.760900 0.000000
vt 0.294900 0.760500 0.000000
vt 0.287400 0.750000 0.000000
vt 0.293500 0.749300 0.000000
vt 0.352500 0.669900 0.000000
vt 0.185200 0.711900 0.000000
vt 0.187300 0.704600 0.000000
vt 0.291500 0.947700 0.000000
vt 0.189900 0.691200 0.000000
vt 0.186000 0.659700 0.000000
vt 0.162600 0.629200 0.000000
vt 0.299100 0.625200 0.000000
vt 0.301300 0.631300 0.000000
vt 0.311800 0.631300 0.000000
vt 0.164600 0.612300 0.000000
vt 0.157700 0.612800 0.000000
vt 0.293700 0.632300 0.000000
vt 0.298800 0.637200 0.000000
vt 0.312500 0.638900 0.000000
vt 0.289100 0.653300 0.000000
vt 0.351600 0.644300 0.000000
vt 0.184000 0.612100 0.000000
vt 0.309800 0.661400 0.000000
vt 0.352300 0.634000 0.000000
vt 0.358200 0.935400 0.000000
vt 0.364300 0.963700 0.000000
vt 0.394000 0.937400 0.000000
vt 0.331800 0.940400 0.000000
vt 0.396500 0.967000 0.000000
vt 0.385300 0.965800 0.000000
vt 0.273400 0.584700 0.000000
vt 0.274200 0.606400 0.000000
vt 0.419200 0.570300 0.000000
vt 0.410900 0.550500 0.000000
vt 0.408200 0.570300 0.000000
vt 0.405000 0.554000 0.000000
vt 0.387200 0.564200 0.000000
vt 0.391100 0.978100 0.000000
vt 0.379900 0.977100 0.000000
vt 0.401100 0.544400 0.000000
vt 0.392600 0.549800 0.000000
vt 0.390900 0.540800 0.000000
vt 0.376700 0.538100 0.000000
vt 0.360800 0.551500 0.000000
vt 0.339800 0.555900 0.000000
vt 0.369600 0.543900 0.000000
vt 0.359100 0.535900 0.000000
vt 0.369100 0.976700 0.000000
vt 0.354700 0.976500 0.000000
vt 0.337200 0.965100 0.000000
vt 0.378200 0.613800 0.000000
vt 0.382800 0.629400 0.000000
vt 0.354200 0.626500 0.000000
vt 0.313700 0.623500 0.000000
vt 0.388900 0.639200 0.000000
vt 0.319300 0.602300 0.000000
vt 0.396200 0.616900 0.000000
vt 0.404100 0.599600 0.000000
vt 0.300300 0.606900 0.000000
vt 0.415500 0.608400 0.000000
vt 0.276600 0.546900 0.000000
vt 0.156200 0.630400 0.000000
vt 0.404100 0.627400 0.000000
vt 0.165000 0.668000 0.000000
vt 0.313000 0.565400 0.000000
vt 0.304000 0.566900 0.000000
vt 0.156600 0.670900 0.000000
vt 0.305200 0.946700 0.000000
vt 0.281200 0.524900 0.000000
vt 0.334500 0.542500 0.000000
vt 0.335000 0.535600 0.000000
vt 0.312000 0.967500 0.000000
vt 0.336700 0.975900 0.000000
vt 0.312700 0.976000 0.000000
vt 0.166600 0.694100 0.000000
vt 0.165900 0.704800 0.000000
vt 0.314900 0.543000 0.000000
vt 0.294700 0.977000 0.000000
vt 0.316900 0.534700 0.000000
vt 0.156600 0.696300 0.000000
vt 0.308600 0.542700 0.000000
vt 0.164900 0.712200 0.000000
vt 0.157600 0.705100 0.000000
vt 0.156700 0.710900 0.000000
vt 0.311000 0.534700 0.000000
vt 0.294200 0.968500 0.000000
# 206 texture coordinates

g taobaodianpu_CFSC127
usemtl mi_StoneBlocks_02_01
f 1/3/3 2/2/2 3/1/1
f 2/2/2 4/5/5 5/4/4
f 1/3/3 6/6/6 2/2/2
f 7/7/7 2/2/2 6/6/6
f 5/4/4 3/1/1 2/2/2
f 8/9/9 5/4/4 23/8/8
f 9/10/10 3/1/1 8/9/9
f 5/4/4 8/9/9 3/1/1
f 25/11/11 23/8/8 5/4/4
f 10/12/12 1/3/3 3/1/1
f 1/3/3 10/12/12 11/13/13
f 6/6/6 1/3/3 12/14/13
f 3/1/1 9/10/10 10/12/12
f 13/15/14 11/13/13 10/12/12
f 14/18/13 32/17/15 15/16/6
f 16/19/16 10/12/12 9/10/10
f 4/5/5 2/2/2 17/20/17
f 2/2/2 7/7/7 17/20/17
f 7/7/7 18/21/18 17/20/17
f 17/20/17 19/22/19 4/5/5
f 25/11/11 5/4/4 4/5/5
f 40/23/20 4/5/5 19/22/19
f 40/23/20 25/11/11 4/5/5
f 15/16/6 32/17/15 20/24/7
f 21/25/21 20/24/7 32/17/15
f 23/8/8 22/26/22 8/9/9
f 24/27/23 8/9/9 22/26/22
f 8/9/9 24/27/23 9/10/10
f 9/10/10 33/28/24 16/19/16
f 33/28/24 9/10/10 24/27/23
f 11/13/13 13/15/14 26/29/25
f 32/17/15 14/18/13 27/30/25
f 10/12/12 16/19/16 13/15/14
f 13/15/14 28/31/26 26/29/25
f 29/32/27 26/29/25 28/31/26
f 30/34/28 27/30/25 31/33/27
f 13/15/14 16/19/16 28/31/26
f 27/30/25 30/34/28 32/17/15
f 34/36/30 35/35/29 18/21/18
f 19/22/19 17/20/17 18/21/18
f 18/21/18 7/7/7 34/36/30
f 19/22/19 18/21/18 35/35/29
f 35/35/29 34/36/30 36/37/31
f 36/37/31 37/38/32 35/35/29
f 19/22/19 35/35/29 37/38/32
f 38/41/30 57/40/33 39/39/31
f 19/22/19 41/42/34 40/23/20
f 20/24/7 21/25/21 38/41/30
f 57/40/33 38/41/30 21/25/21
f 42/43/35 39/39/31 57/40/33
f 43/45/37 37/38/32 44/44/36
f 45/46/38 19/22/19 37/38/32
f 45/46/38 37/38/32 43/45/37
f 37/38/32 36/37/31 44/44/36
f 39/39/31 42/43/35 46/47/36
f 44/44/36 47/48/39 43/45/37
f 41/42/34 19/22/19 45/46/38
f 48/49/40 45/46/38 43/45/37
f 41/42/34 45/46/38 48/49/40
f 43/45/37 49/50/41 48/49/40
f 47/48/39 44/44/36 50/51/35
f 49/50/41 43/45/37 47/48/39
f 51/52/42 40/23/20 41/42/34
f 52/53/43 41/42/34 48/49/40
f 51/52/42 41/42/34 52/53/43
f 53/56/46 54/55/45 55/54/44
f 55/54/44 56/57/47 53/56/46
f 32/17/15 59/58/48 21/25/21
f 57/40/33 21/25/21 59/58/48
f 42/43/35 57/40/33 58/59/49
f 53/56/46 58/59/49 57/40/33
f 60/60/49 47/48/39 50/51/35
f 47/48/39 60/60/49 61/61/50
f 49/50/41 47/48/39 62/62/51
f 62/62/51 47/48/39 61/61/50
f 60/60/49 63/63/47 61/61/50
f 54/55/45 53/56/46 64/64/52
f 53/56/46 59/58/48 64/64/52
f 58/59/49 53/56/46 56/57/47
f 53/56/46 57/40/33 59/58/48
f 65/65/53 22/26/22 23/8/8
f 66/66/54 24/27/23 22/26/22
f 67/67/55 23/8/8 25/11/11
f 66/66/54 22/26/22 65/65/53
f 24/27/23 66/66/54 68/68/56
f 65/65/53 23/8/8 67/67/55
f 68/68/56 33/28/24 24/27/23
f 33/28/24 68/68/56 94/69/57
f 64/64/52 69/70/58 54/55/45
f 69/70/58 64/64/52 70/71/59
f 70/71/59 71/72/60 69/70/58
f 71/72/60 70/71/59 72/73/61
f 73/76/62 74/75/60 75/74/61
f 33/28/24 76/77/63 16/19/16
f 64/64/52 30/34/28 70/71/59
f 59/58/48 32/17/15 64/64/52
f 30/34/28 64/64/52 32/17/15
f 73/76/62 28/31/26 76/77/63
f 30/34/28 72/73/61 70/71/59
f 28/31/26 73/76/62 75/74/61
f 16/19/16 76/77/63 28/31/26
f 72/73/61 30/34/28 31/33/27
f 28/31/26 75/74/61 29/32/27
f 77/80/66 78/79/65 79/78/64
f 80/81/67 94/69/57 68/68/56
f 81/83/69 80/81/67 82/82/68
f 83/84/70 94/69/57 80/81/67
f 83/84/70 80/81/67 81/83/69
f 84/87/69 85/86/68 86/85/71
f 86/85/71 85/86/68 78/79/65
f 67/67/55 87/89/73 88/88/72
f 87/89/73 67/67/55 98/90/74
f 87/89/73 89/91/66 88/88/72
f 89/91/66 87/89/73 90/92/75
f 91/93/75 78/79/65 77/80/66
f 78/79/65 91/93/75 92/94/76
f 92/94/76 86/85/71 78/79/65
f 86/85/71 92/94/76 115/95/77
f 78/79/65 93/96/78 79/78/64
f 95/97/79 83/84/70 81/83/69
f 131/98/80 84/87/69 86/85/71
f 84/87/69 131/98/80 96/99/79
f 115/95/77 97/100/81 86/85/71
f 131/98/80 86/85/71 97/100/81
f 40/23/20 99/101/82 98/90/74
f 99/101/82 40/23/20 51/52/42
f 100/102/83 51/52/42 52/53/43
f 51/52/42 100/102/83 99/101/82
f 101/104/85 52/53/43 102/103/84
f 101/104/85 100/102/83 52/53/43
f 98/90/74 99/101/82 87/89/73
f 87/89/73 99/101/82 103/105/86
f 104/106/87 92/94/76 91/93/75
f 90/92/75 87/89/73 105/107/87
f 103/105/86 105/107/87 87/89/73
f 106/109/88 104/106/87 107/108/86
f 108/110/89 106/109/88 107/108/86
f 92/94/76 104/106/87 106/109/88
f 106/109/88 115/95/77 92/94/76
f 108/110/89 109/111/90 106/109/88
f 115/95/77 106/109/88 109/111/90
f 110/112/91 103/105/86 99/101/82
f 99/101/82 100/102/83 110/112/91
f 103/105/86 110/112/91 111/113/89
f 101/104/85 110/112/91 100/102/83
f 112/114/92 111/113/89 110/112/91
f 110/112/91 101/104/85 112/114/92
f 111/113/89 112/114/92 113/115/93
f 109/111/90 108/110/89 114/116/93
f 114/116/93 116/117/94 109/111/90
f 109/111/90 116/117/94 115/95/77
f 112/114/92 101/104/85 117/118/95
f 118/119/96 112/114/92 117/118/95
f 118/119/96 113/115/93 112/114/92
f 116/117/94 114/116/93 119/120/96
f 120/121/64 88/88/72 89/91/66
f 88/88/72 120/121/64 121/122/97
f 85/86/68 93/96/78 78/79/65
f 80/81/67 122/123/78 82/82/68
f 122/123/78 80/81/67 123/124/98
f 80/81/67 68/68/56 123/124/98
f 122/123/78 121/122/97 120/121/64
f 121/122/97 122/123/78 123/124/98
f 121/122/97 67/67/55 88/88/72
f 67/67/55 121/122/97 65/65/53
f 76/77/63 33/28/24 124/125/99
f 124/125/99 73/76/62 76/77/63
f 66/66/54 123/124/98 68/68/56
f 123/124/98 66/66/54 121/122/97
f 121/122/97 66/66/54 65/65/53
f 125/127/101 119/120/96 126/126/100
f 127/128/100 118/119/96 117/118/95
f 128/129/102 116/117/94 125/127/101
f 129/130/103 115/95/77 128/129/102
f 116/117/94 128/129/102 115/95/77
f 119/120/96 125/127/101 116/117/94
f 129/130/103 130/131/104 131/98/80
f 67/67/55 25/11/11 98/90/74
f 98/90/74 25/11/11 40/23/20
f 132/134/107 133/133/106 134/132/105
f 130/131/104 135/136/105 136/135/108
f 133/133/106 137/137/108 134/132/105
f 137/137/108 133/133/106 140/138/109
f 140/138/109 133/133/106 132/134/107
f 140/138/109 132/134/107 138/139/110
f 136/135/108 131/98/80 130/131/104
f 140/138/109 139/140/111 137/137/108
f 141/141/112 73/76/62 124/125/99
f 131/98/80 136/135/108 142/142/111
f 140/138/109 138/139/110 143/143/113
f 132/134/107 144/144/114 138/139/110
f 144/144/114 141/141/112 138/139/110
f 141/141/112 143/143/113 138/139/110
f 131/98/80 97/100/81 129/130/103
f 115/95/77 129/130/103 97/100/81
f 140/138/109 95/97/79 139/140/111
f 143/143/113 83/84/70 140/138/109
f 131/98/80 142/142/111 96/99/79
f 102/103/84 48/49/40 49/50/41
f 95/97/79 140/138/109 83/84/70
f 83/84/70 143/143/113 94/69/57
f 143/143/113 124/125/99 94/69/57
f 143/143/113 141/141/112 124/125/99
f 94/69/57 124/125/99 33/28/24
f 48/49/40 102/103/84 52/53/43
f 149/147/117 147/146/116 145/145/115
f 146/148/118 145/145/115 147/146/116
f 145/145/115 101/104/85 102/103/84
f 148/150/119 149/147/117 150/149/44
f 151/152/121 54/55/45 152/151/120
f 153/155/122 154/154/121 155/153/120
f 54/55/45 151/152/121 55/54/44
f 162/157/124 156/156/123 153/155/122
f 157/158/121 148/150/119 150/149/44
f 148/150/119 157/158/121 158/159/125
f 154/154/121 153/155/122 156/156/123
f 156/156/123 159/160/125 154/154/121
f 156/156/123 162/157/124 160/161/126
f 159/160/125 156/156/123 160/161/126
f 149/147/117 148/150/119 147/146/116
f 148/150/119 158/159/125 147/146/116
f 160/161/126 163/162/127 159/160/125
f 164/163/128 163/162/127 160/161/126
f 189/165/130 188/164/129 162/157/124
f 165/166/131 160/161/126 162/157/124
f 165/166/131 162/157/124 188/164/129
f 164/163/128 160/161/126 165/166/131
f 165/166/131 166/167/132 164/163/128
f 167/168/127 147/146/116 158/159/125
f 147/146/116 167/168/127 168/169/128
f 168/169/128 169/170/133 147/146/116
f 145/145/115 62/62/51 149/147/117
f 149/147/117 61/61/50 63/63/47
f 63/63/47 150/149/44 149/147/117
f 61/61/50 149/147/117 62/62/51
f 102/103/84 49/50/41 62/62/51
f 102/103/84 62/62/51 145/145/115
f 162/157/124 161/171/134 189/165/130
f 171/173/136 172/172/135 144/144/114
f 144/144/114 173/174/137 171/173/136
f 173/174/137 161/171/134 171/173/136
f 144/144/114 174/175/138 141/141/112
f 173/174/137 144/144/114 132/134/107
f 161/171/134 173/174/137 175/176/139
f 189/165/130 161/171/134 175/176/139
f 171/173/136 161/171/134 172/172/135
f 161/171/134 170/177/140 172/172/135
f 174/175/138 144/144/114 172/172/135
f 174/175/138 73/76/62 141/141/112
f 162/157/124 153/155/122 176/178/141
f 161/171/134 162/157/124 176/178/141
f 161/171/134 176/178/141 170/177/140
f 134/132/105 173/174/137 132/134/107
f 177/179/142 175/176/139 173/174/137
f 178/180/143 170/177/140 176/178/141
f 176/178/141 153/155/122 155/153/120
f 155/153/120 178/180/143 176/178/141
f 54/55/45 179/181/143 152/151/120
f 179/181/143 54/55/45 69/70/58
f 134/132/105 177/179/142 173/174/137
f 135/136/105 130/131/104 180/182/142
f 181/183/144 172/172/135 170/177/140
f 130/131/104 129/130/103 182/184/145
f 175/176/139 183/185/146 189/165/130
f 175/176/139 184/186/147 183/185/146
f 182/184/145 180/182/142 130/131/104
f 184/186/147 175/176/139 177/179/142
f 180/182/142 182/184/145 185/187/147
f 101/104/85 145/145/115 146/148/118
f 186/188/84 101/104/85 146/148/118
f 170/177/140 178/180/143 181/183/144
f 181/183/144 174/175/138 172/172/135
f 174/175/138 181/183/144 74/75/60
f 69/70/58 187/189/144 179/181/143
f 186/188/84 117/118/95 101/104/85
f 187/189/144 69/70/58 71/72/60
f 127/128/100 117/118/95 186/188/84
f 74/75/60 73/76/62 174/175/138
f 188/164/129 190/190/148 165/166/131
f 165/166/131 191/191/149 166/167/132
f 190/190/148 188/164/129 189/165/130
f 191/191/149 165/166/131 190/190/148
f 169/170/133 146/148/118 147/146/116
f 192/192/150 146/148/118 169/170/133
f 186/188/84 146/148/118 192/192/150
f 169/170/133 168/169/128 193/193/132
f 194/194/149 169/170/133 193/193/132
f 169/170/133 194/194/149 192/192/150
f 128/129/102 182/184/145 129/130/103
f 182/184/145 128/129/102 195/195/151
f 126/126/100 196/196/152 125/127/101
f 125/127/101 195/195/151 128/129/102
f 195/195/151 125/127/101 196/196/152
f 197/197/153 189/165/130 183/185/146
f 198/198/154 192/192/150 194/194/149
f 189/165/130 197/197/153 190/190/148
f 190/190/148 199/199/154 191/191/149
f 199/199/154 190/190/148 197/197/153
f 182/184/145 195/195/151 185/187/147
f 200/200/155 185/187/147 195/195/151
f 201/201/155 183/185/146 184/186/147
f 183/185/146 201/201/155 197/197/153
f 202/203/157 196/196/152 203/202/156
f 202/203/157 203/202/156 204/204/154
f 200/200/155 195/195/151 196/196/152
f 202/203/157 200/200/155 196/196/152
f 197/197/153 205/205/157 199/199/154
f 205/205/157 197/197/153 201/201/155
f 206/206/156 127/128/100 186/188/84
f 206/206/156 186/188/84 192/192/150
f 196/196/152 126/126/100 203/202/156
f 192/192/150 198/198/154 206/206/156

