# WaveFront *.obj file (generated by Cinema 4D)

mtllib ./taobaodianpu_CFSC126.mtl

v 16.481100 22.029300 18.719900
v 19.113300 20.942300 21.715900
v 20.441400 20.978100 18.808100
v 22.000900 17.495900 19.185500
v 19.113300 20.942300 21.715900
v 16.148500 20.975700 21.974000
v 16.495000 17.694100 22.758900
v 16.148500 20.975700 21.974000
v 23.058200 17.497600 13.623000
v 21.857400 20.878600 11.981300
v 9.874000 22.369600 13.707500
v 19.684400 17.799800 22.083300
v 19.684400 17.799800 22.083300
v 19.837900 7.002100 22.405200
v 8.250900 17.611900 22.612500
v 17.356900 7.025600 23.194600
v 22.232700 5.950400 13.913200
v 8.372900 20.719200 21.839200
v 8.372900 20.719200 21.839200
v -1.990400 20.689100 21.628600
v -1.990400 20.689100 21.628600
v 8.218700 4.986200 22.338700
v -2.896500 16.592900 21.748600
v 18.106000 22.277900 12.372100
v 23.751900 7.471900 -11.936500
v 19.837900 7.002100 22.405200
v 21.396700 6.081400 19.407500
v 19.478500 -5.559700 21.892200
v 19.478500 -5.559700 21.892200
v 16.752600 -5.767900 22.419000
v 20.904800 -6.120500 19.218000
v 23.148200 -3.284900 -12.992300
v -6.697500 21.848600 18.960300
v -11.307000 20.638200 21.953400
v -11.307000 20.638200 21.953400
v -11.553400 16.460300 22.692600
v -18.723100 21.533700 19.935200
v -18.707500 20.677600 22.314400
v -21.728900 20.193800 22.408500
v -22.108000 20.622100 20.116600
v -19.233300 21.772000 14.283600
v -18.707500 20.677600 22.314400
v -19.245300 16.470700 22.811600
v -21.728900 20.193800 22.408500
v -11.536500 22.320600 13.672700
v -18.577100 21.449300 0.904400
v -12.908100 -2.041600 22.778400
v 22.369900 20.897100 -9.955400
v 18.737100 22.425200 -10.265600
v 10.330500 22.516400 -11.865100
v 24.054900 18.155500 -9.423400
v 22.046200 -20.527400 -0.946400
v 22.358500 -20.460300 -12.772600
v 22.802000 -14.151100 -1.415300
v 22.956000 -13.454800 -13.271700
v -10.663400 22.338100 -13.170300
v -18.883200 21.819000 -12.170000
v 21.926400 -5.625400 13.253300
v 19.765000 -15.965700 21.642800
v 19.765000 -15.965700 21.642800
v 16.420900 -16.168900 21.976000
v 22.098500 -15.899000 12.365400
v 5.596200 -15.864400 22.549000
v 21.208800 -16.233000 19.167600
v 19.823200 -19.592900 21.675900
v 19.823200 -19.592900 21.675900
v 20.779500 -20.413900 19.199900
v 16.539500 -19.922200 21.727600
v 16.539500 -19.922200 21.727600
v 21.436400 -20.651800 12.269600
v 17.763100 -21.654200 13.087600
v -10.820000 -15.649500 23.037600
v 18.455400 -21.798500 0.095400
v -2.164300 -20.444500 22.211700
v -12.238800 -20.273000 22.377000
v -12.238800 -20.273000 22.377000
v -2.164300 -20.444500 22.211700
v -12.802200 -21.270400 19.862700
v -22.717300 -1.450400 0.444800
v -23.934900 -15.904200 13.355500
v -24.054900 -0.884300 13.135700
v -23.723000 -15.573700 19.115800
v -23.711500 -1.301300 19.406600
v -22.598600 -15.498400 22.108700
v -22.379200 3.364000 22.242000
v -22.379200 3.364000 22.242000
v -20.073700 -0.480900 23.042200
v 9.038100 -21.805700 14.386700
v -20.620700 -21.168800 -18.850400
v -23.402100 -19.611000 -21.312600
v -20.669300 -19.888500 -21.285000
v -19.826600 -15.758300 22.791900
v -22.598600 -15.498400 22.108700
v 16.579100 -21.341800 19.222000
v 7.578500 -20.562100 22.111800
v 7.578500 -20.562100 22.111800
v -19.893200 -19.901400 22.487500
v -19.893200 -19.901400 22.487500
v -20.119100 -20.968800 19.574500
v -22.566100 -19.500100 22.137900
v -22.566100 -19.500100 22.137900
v -23.037300 -20.146500 19.348300
v -22.566100 -19.500100 22.137900
v -23.037300 -20.146500 19.348300
v -20.209800 -21.438500 13.242000
v -23.225800 -20.486700 13.246100
v -23.225800 -20.486700 13.246100
v -13.728700 -21.850200 13.758500
v -22.790400 -16.331900 0.990200
v -22.803700 -20.133800 1.051400
v -22.803700 -20.133800 1.051400
v -23.442300 -20.129800 -18.389400
v -10.477100 -21.739200 -19.289200
v -22.510200 -15.687300 -20.731900
v -20.669300 -19.888500 -21.285000
v -23.402100 -19.611000 -21.312600
v -23.442300 -20.129800 -18.389400
v -22.510200 -15.687300 -20.731900
v -23.402100 -19.611000 -21.312600
v -22.261100 6.857500 -20.799400
v -23.452800 2.210000 -17.782900
v -23.519000 -15.728600 -17.910900
v -23.522200 0.345300 -11.780500
v -20.353400 -21.483200 -10.031900
v -23.105200 -20.335700 -11.017300
v -23.592300 -15.958000 -11.357200
v -23.040300 17.091400 -18.352100
v -23.105200 -20.335700 -11.017300
v -22.393200 17.731600 -11.779300
v -22.547100 -5.314400 -20.903200
v -22.547100 -5.314400 -20.903200
v -12.938000 -22.081900 -11.491600
v -21.704600 20.889100 -11.936000
v -21.982800 20.859300 14.252100
v -21.943600 16.279400 22.361900
v -22.531800 16.562600 20.040400
v -21.943600 16.279400 22.361900
v -22.395500 16.961500 14.320800
v -20.957500 17.602300 1.049900
v -20.650300 20.629000 0.947200
v 12.225500 21.053600 -20.934900
v 0.921200 20.762200 -20.735500
v 11.292900 22.569000 -17.581800
v 18.119000 7.069100 -22.000400
v 12.378300 17.641600 -22.108100
v 18.603900 17.464300 -21.711700
v 18.693000 21.065200 -20.340300
v 21.363500 7.654100 -20.534500
v 21.722000 17.317300 -19.983700
v 23.232600 17.653100 -16.769200
v 23.108300 8.275400 -17.753300
v 21.722000 17.317300 -19.983700
v 21.496300 20.546800 -19.351700
v 21.496300 20.546800 -19.351700
v 22.248800 20.871900 -16.256700
v 12.225500 21.053600 -20.934900
v 18.672000 22.459000 -16.758900
v 18.693000 21.065200 -20.340300
v 20.273700 -12.773500 -21.723700
v 16.567700 -13.369800 -22.362500
v -0.947500 -4.234500 -21.615500
v -0.308900 6.754800 -21.227000
v 10.625100 -4.265000 -22.152400
v 8.364700 -15.623800 -23.194600
v 18.268700 -22.268600 -12.122600
v 9.059900 -22.569000 -12.037100
v 0.921200 20.762200 -20.735500
v 12.269000 6.482700 -22.088200
v 0.618700 17.735100 -21.306200
v 20.687900 -3.040500 -20.960800
v 22.306700 -12.442200 -19.259000
v 20.273700 -12.773500 -21.723700
v 21.363500 7.654100 -20.534500
v 20.687900 -3.040500 -20.960800
v 21.237200 -19.062400 -19.349600
v 20.066700 -17.575000 -21.988000
v 20.066700 -17.575000 -21.988000
v 16.971200 -19.179800 -22.272400
v -10.054800 22.069200 -18.017500
v -10.405100 20.356700 -20.702700
v -10.405100 20.356700 -20.702700
v 17.457300 -21.509900 -19.256500
v 9.549000 -22.187600 -19.754400
v 16.971200 -19.179800 -22.272400
v 9.922400 -20.586100 -22.904800
v 9.922400 -20.586100 -22.904800
v -1.699900 -20.339600 -22.400400
v -1.699900 -20.339600 -22.400400
v -10.816400 17.670900 -21.268100
v -13.117400 3.532400 -21.221100
v -12.839800 -15.398900 -22.034700
v -19.080900 21.405200 -18.790600
v -20.238000 7.310600 -21.810800
v -20.743600 -15.556200 -21.983100
v -22.261100 6.857500 -20.799400
v -22.180400 20.516800 -18.721500
v -18.802900 20.235700 -21.152400
v -21.980200 19.997700 -21.101500
v -18.802900 20.235700 -21.152400
v -19.397000 17.327300 -21.615400
v -22.162900 16.782400 -20.923900
v -12.822100 -20.404200 -21.830500
v -12.822100 -20.404200 -21.830500
v -21.980200 19.997700 -21.101500
v -22.162900 16.782400 -20.923900
# 205 vertices

vn -0.180875 -0.983437 -0.007969
vn -0.030969 -0.999469 -0.007969
vn -0.157188 -0.977250 -0.142156
vn 0.635875 0.737531 0.227219
vn 0.947219 0.055125 0.315719
vn 0.441344 0.630469 0.638500
vn 0.030906 0.070781 0.997000
vn 0.024062 0.687063 0.726188
vn 0.039094 0.986750 0.157438
vn 0.110156 0.993594 0.024031
vn 0.648313 0.758719 0.063219
vn 0.993625 0.047063 0.102156
vn 0.015969 0.999563 0.023969
vn 0.607750 0.087250 0.789281
vn 0.623375 -0.016031 0.781719
vn -0.054844 0.046875 0.997375
vn 0.030969 -0.015969 0.999375
vn 0.994000 -0.055094 0.094187
vn -0.030875 0.619750 0.784156
vn 0.000000 0.550750 0.834625
vn 0.000000 0.980219 0.197844
vn -0.038938 -0.015969 0.999094
vn 0.007969 0.015969 0.999812
vn 0.997344 0.070813 -0.015937
vn 0.998750 -0.046937 -0.015969
vn 0.953406 -0.039000 0.299125
vn 0.605750 -0.038969 0.794688
vn 0.030969 -0.030969 0.999031
vn 0.963188 -0.008000 0.268594
vn 0.999656 -0.023969 -0.007969
vn 0.039000 0.512031 0.858063
vn -0.038938 0.999094 0.015969
vn 0.054875 0.038906 0.997719
vn -0.093906 0.983125 0.156844
vn -0.016000 0.512344 0.858594
vn -0.536219 0.402906 0.741687
vn -0.812125 0.575781 0.094125
vn -0.157531 0.987469 0.008000
vn -0.023969 0.038938 0.998937
vn -0.165344 0.986219 0.000000
vn 0.038969 0.007969 0.999188
vn 0.658188 0.752781 -0.007938
vn 0.125969 0.991969 0.007969
vn 0.000000 1.000000 0.000000
vn 0.999031 -0.030969 0.030969
vn 0.874750 -0.480406 -0.063031
vn 0.863844 -0.502750 0.030906
vn 0.998406 -0.046906 -0.030938
vn -0.030969 0.999375 -0.015969
vn -0.150688 0.988531 -0.008031
vn 0.996031 -0.016062 0.087344
vn 0.550687 -0.015969 0.834531
vn 0.046906 -0.023937 0.998594
vn 0.996125 -0.038844 0.078687
vn 0.023969 0.007969 0.999656
vn 0.971313 -0.024031 0.236563
vn 0.464312 -0.408406 0.785844
vn 0.758313 -0.615875 0.213625
vn 0.055031 -0.984719 0.165094
vn 0.079125 -0.504875 0.859531
vn 0.820938 -0.568344 0.055125
vn 0.094281 -0.995031 0.031094
vn 0.118063 -0.992688 0.024000
vn 0.023969 -0.015969 0.999563
vn -0.007969 -0.502969 0.864250
vn 0.008000 -0.496969 0.867719
vn -0.023969 -0.983187 0.180844
vn -0.996500 0.054781 -0.062750
vn -0.998125 -0.038906 -0.046906
vn -0.998844 0.046937 -0.007969
vn -0.985469 0.039031 0.165219
vn -0.988813 -0.046844 0.141531
vn -0.691250 0.023937 0.722188
vn -0.062875 0.000000 0.998000
vn -0.698875 -0.023906 0.714813
vn -0.702875 0.024062 0.710875
vn 0.015969 -0.999094 0.038938
vn -0.030969 -0.999031 0.030969
vn -0.117969 -0.440875 -0.889750
vn -0.744438 -0.253500 -0.617656
vn -0.062844 -0.023937 0.997719
vn 0.038875 -0.502594 0.863625
vn -0.078594 -0.501437 0.861594
vn -0.118188 -0.977719 0.173281
vn -0.650031 -0.367750 0.664937
vn -0.817594 -0.558031 0.141750
vn -0.150625 -0.988281 0.024094
vn -0.844187 -0.535750 -0.016000
vn -0.999563 -0.023969 -0.015969
vn -0.873062 -0.487469 -0.007969
vn -0.865531 -0.495719 -0.070937
vn -0.031031 -0.985750 -0.165281
vn -0.788312 0.016000 -0.615031
vn -0.102250 0.008000 -0.994719
vn -0.996125 -0.008031 -0.087344
vn -0.872844 -0.487344 0.023969
vn -0.999094 -0.015969 0.038938
vn -0.992688 0.024000 -0.118063
vn -0.995313 0.079250 -0.055156
vn -0.997719 0.038906 0.054875
vn -0.990969 0.101875 0.086906
vn -0.795250 0.008000 -0.606188
vn -0.773562 0.631281 0.055094
vn -0.777812 0.015937 -0.628250
vn -0.837031 0.544312 -0.055125
vn -0.665906 0.046781 0.744531
vn -0.993031 0.079062 0.087063
vn -0.993000 0.094094 -0.071062
vn -0.994719 0.102250 -0.008000
vn -0.811938 0.583656 -0.008000
vn 0.000000 0.984875 -0.173156
vn -0.030875 0.619750 -0.784156
vn 0.008000 0.654219 -0.756250
vn -0.031000 0.976531 -0.213094
vn 0.189250 0.094125 -0.977375
vn -0.023906 0.070781 -0.997187
vn 0.165344 0.008000 -0.986188
vn 0.180594 0.699437 -0.691469
vn 0.693187 0.071000 -0.717219
vn 0.628313 0.007969 -0.777906
vn 0.971469 -0.016031 -0.236594
vn 0.977156 0.079094 -0.197219
vn 0.623781 0.560594 -0.544563
vn 0.702125 0.702125 -0.118188
vn 0.134094 0.984812 -0.110063
vn -0.023937 0.054875 -0.998187
vn -0.030969 0.015969 -0.999375
vn -0.038906 0.054875 -0.997719
vn -0.023937 0.046906 -0.998594
vn 0.157531 -0.987375 -0.016031
vn 0.007969 -0.999937 0.000000
vn -0.038906 0.046906 -0.998125
vn -0.030969 0.007969 -0.999469
vn 0.487437 0.015969 -0.873000
vn 0.958781 -0.030906 -0.282344
vn 0.535750 0.016000 -0.844187
vn 0.117969 0.046969 -0.991875
vn 0.826594 -0.471750 -0.306844
vn 0.513406 -0.220594 -0.829281
vn 0.196500 -0.416000 -0.887844
vn -0.008000 0.592719 -0.805344
vn 0.205531 -0.947563 -0.244656
vn 0.016031 -0.978500 -0.205500
vn 0.031063 -0.450188 -0.892375
vn -0.047063 -0.433844 -0.899750
vn 0.015969 0.038938 -0.999094
vn 0.023969 0.023969 -0.999406
vn -0.023969 0.023969 -0.999406
vn -0.117688 0.973406 -0.196469
vn -0.038969 0.007969 -0.999188
vn -0.747000 0.660094 -0.078875
vn -0.023906 0.565281 -0.824531
vn -0.558531 0.456625 -0.692438
vn -0.015969 0.030969 -0.999375
vn -0.722031 0.030906 -0.691125
vn -0.055062 -0.433656 -0.899375
# 156 normals

vt 0.528300 0.501200 0.000000
vt 0.531200 0.523400 0.000000
vt 0.553200 0.502700 0.000000
vt 0.440700 0.738300 0.000000
vt 0.440700 0.727500 0.000000
vt 0.431600 0.738800 0.000000
vt 0.654800 0.976300 0.000000
vt 0.655300 0.986200 0.000000
vt 0.664600 0.986200 0.000000
vt 0.429400 0.748300 0.000000
vt 0.438700 0.749800 0.000000
vt 0.457300 0.749800 0.000000
vt 0.459500 0.738500 0.000000
vt 0.455800 0.727800 0.000000
vt 0.450700 0.772300 0.000000
vt 0.663600 0.976300 0.000000
vt 0.430900 0.729000 0.000000
vt 0.430400 0.697800 0.000000
vt 0.631800 0.976100 0.000000
vt 0.656200 0.945200 0.000000
vt 0.454800 0.695100 0.000000
vt 0.632800 0.985300 0.000000
vt 0.427000 0.772100 0.000000
vt 0.603000 0.984500 0.000000
vt 0.432100 0.817600 0.000000
vt 0.425000 0.802900 0.000000
vt 0.630900 0.938900 0.000000
vt 0.600100 0.972500 0.000000
vt 0.517600 0.731700 0.000000
vt 0.525400 0.701700 0.000000
vt 0.663100 0.945200 0.000000
vt 0.439500 0.695300 0.000000
vt 0.664100 0.909100 0.000000
vt 0.431200 0.661600 0.000000
vt 0.656200 0.908100 0.000000
vt 0.439700 0.660400 0.000000
vt 0.529300 0.671600 0.000000
vt 0.422400 0.830200 0.000000
vt 0.446000 0.833900 0.000000
vt 0.577100 0.983800 0.000000
vt 0.576200 0.971500 0.000000
vt 0.427500 0.852100 0.000000
vt 0.420400 0.852100 0.000000
vt 0.420200 0.861500 0.000000
vt 0.426500 0.861900 0.000000
vt 0.442900 0.854600 0.000000
vt 0.556200 0.983500 0.000000
vt 0.554700 0.971100 0.000000
vt 0.547900 0.981900 0.000000
vt 0.480500 0.857700 0.000000
vt 0.573200 0.917200 0.000000
vt 0.518600 0.740500 0.000000
vt 0.519000 0.751700 0.000000
vt 0.522500 0.776000 0.000000
vt 0.497800 0.640100 0.000000
vt 0.528300 0.624300 0.000000
vt 0.497100 0.621800 0.000000
vt 0.529800 0.643300 0.000000
vt 0.522000 0.836400 0.000000
vt 0.517100 0.859900 0.000000
vt 0.456500 0.662400 0.000000
vt 0.666500 0.878500 0.000000
vt 0.433800 0.631100 0.000000
vt 0.657200 0.877400 0.000000
vt 0.460400 0.633500 0.000000
vt 0.626500 0.877600 0.000000
vt 0.441700 0.631100 0.000000
vt 0.435300 0.619600 0.000000
vt 0.668000 0.867200 0.000000
vt 0.443100 0.619400 0.000000
vt 0.441700 0.607200 0.000000
vt 0.658200 0.866500 0.000000
vt 0.434300 0.608400 0.000000
vt 0.461700 0.619900 0.000000
vt 0.459200 0.608900 0.000000
vt 0.494600 0.610800 0.000000
vt 0.580600 0.877500 0.000000
vt 0.576700 0.863900 0.000000
vt 0.605000 0.863900 0.000000
vt 0.434100 0.551500 0.000000
vt 0.434600 0.521700 0.000000
vt 0.442400 0.520300 0.000000
vt 0.440900 0.925300 0.000000
vt 0.437000 0.968300 0.000000
vt 0.476300 0.929600 0.000000
vt 0.423100 0.924900 0.000000
vt 0.420900 0.966000 0.000000
vt 0.415800 0.910500 0.000000
vt 0.553200 0.921300 0.000000
vt 0.547400 0.877100 0.000000
vt 0.546400 0.932500 0.000000
vt 0.455600 0.583000 0.000000
vt 0.459700 0.517800 0.000000
vt 0.561000 0.502400 0.000000
vt 0.561000 0.494600 0.000000
vt 0.555200 0.876600 0.000000
vt 0.412100 0.965100 0.000000
vt 0.433600 0.580800 0.000000
vt 0.632800 0.864100 0.000000
vt 0.555200 0.864600 0.000000
vt 0.435300 0.499500 0.000000
vt 0.443800 0.499000 0.000000
vt 0.547900 0.865600 0.000000
vt 0.411400 0.976800 0.000000
vt 0.419200 0.979300 0.000000
vt 0.436300 0.491700 0.000000
vt 0.444600 0.490700 0.000000
vt 0.461700 0.499500 0.000000
vt 0.436300 0.981700 0.000000
vt 0.461900 0.490200 0.000000
vt 0.471400 0.972500 0.000000
vt 0.496800 0.492200 0.000000
vt 0.470500 0.983500 0.000000
vt 0.552700 0.494100 0.000000
vt 0.553200 0.532200 0.000000
vt 0.681200 0.741700 0.000000
vt 0.673300 0.741000 0.000000
vt 0.678700 0.753300 0.000000
vt 0.673300 0.753500 0.000000
vt 0.532700 0.987400 0.000000
vt 0.532700 0.975700 0.000000
vt 0.524400 0.987900 0.000000
vt 0.524400 0.975100 0.000000
vt 0.531700 0.493200 0.000000
vt 0.505900 0.974300 0.000000
vt 0.527800 0.923300 0.000000
vt 0.532700 0.880700 0.000000
vt 0.510700 0.927300 0.000000
vt 0.503900 0.986900 0.000000
vt 0.514600 0.877400 0.000000
vt 0.678200 0.783700 0.000000
vt 0.535200 0.945700 0.000000
vt 0.515600 0.868300 0.000000
vt 0.538100 0.910500 0.000000
vt 0.442400 0.862800 0.000000
vt 0.547400 0.970500 0.000000
vt 0.425500 0.873300 0.000000
vt 0.418700 0.873200 0.000000
vt 0.441400 0.873800 0.000000
vt 0.479000 0.873400 0.000000
vt 0.479700 0.864400 0.000000
vt 0.538600 0.773100 0.000000
vt 0.546900 0.804100 0.000000
vt 0.549300 0.770100 0.000000
vt 0.535600 0.835700 0.000000
vt 0.560100 0.846200 0.000000
vt 0.577600 0.847800 0.000000
vt 0.564000 0.816300 0.000000
vt 0.557600 0.857200 0.000000
vt 0.550800 0.845500 0.000000
vt 0.554200 0.817600 0.000000
vt 0.546900 0.730700 0.000000
vt 0.541500 0.704600 0.000000
vt 0.537600 0.731200 0.000000
vt 0.548300 0.855300 0.000000
vt 0.544900 0.740700 0.000000
vt 0.535600 0.740500 0.000000
vt 0.576700 0.858300 0.000000
vt 0.537100 0.751600 0.000000
vt 0.547400 0.750100 0.000000
vt 0.585400 0.783700 0.000000
vt 0.614700 0.817300 0.000000
vt 0.617700 0.784900 0.000000
vt 0.591800 0.750500 0.000000
vt 0.527300 0.612100 0.000000
vt 0.529300 0.586200 0.000000
vt 0.609400 0.858400 0.000000
vt 0.610800 0.849500 0.000000
vt 0.580100 0.815200 0.000000
vt 0.555200 0.643800 0.000000
vt 0.546900 0.645500 0.000000
vt 0.553700 0.672400 0.000000
vt 0.550800 0.703100 0.000000
vt 0.557100 0.786900 0.000000
vt 0.569300 0.756600 0.000000
vt 0.545900 0.626700 0.000000
vt 0.554700 0.628900 0.000000
vt 0.558600 0.758400 0.000000
vt 0.558100 0.743700 0.000000
vt 0.566900 0.739500 0.000000
vt 0.543900 0.837500 0.000000
vt 0.641100 0.858000 0.000000
vt 0.546900 0.613500 0.000000
vt 0.550800 0.591100 0.000000
vt 0.557100 0.616700 0.000000
vt 0.587400 0.735800 0.000000
vt 0.560500 0.594000 0.000000
vt 0.620100 0.737800 0.000000
vt 0.561500 0.558600 0.000000
vt 0.642600 0.850100 0.000000
vt 0.650900 0.808800 0.000000
vt 0.651400 0.753300 0.000000
vt 0.535200 0.861800 0.000000
vt 0.670400 0.820600 0.000000
vt 0.676800 0.819500 0.000000
vt 0.534200 0.870800 0.000000
vt 0.542500 0.862300 0.000000
vt 0.541000 0.871900 0.000000
vt 0.665000 0.858300 0.000000
vt 0.667000 0.849700 0.000000
vt 0.540500 0.881700 0.000000
vt 0.561500 0.525600 0.000000
vt 0.651400 0.738800 0.000000
vt 0.673800 0.857800 0.000000
vt 0.674800 0.848500 0.000000
# 205 texture coordinates

g taobaodianpu_CFSC126
usemtl mi_StoneBlocks_02_01
f 89/3/3 132/2/2 124/1/1
f 2/6/6 4/5/5 3/4/4
f 5/9/6 6/8/8 7/7/7
f 2/6/6 1/11/9 8/10/8
f 24/12/10 1/11/9 3/4/4
f 3/4/4 9/14/12 10/13/11
f 3/4/4 10/13/11 24/12/10
f 11/15/13 1/11/9 24/12/10
f 7/7/7 12/16/14 5/9/6
f 4/5/5 2/6/6 13/17/14
f 14/18/15 4/5/5 13/17/14
f 6/8/8 15/19/16 7/7/7
f 16/20/17 12/16/14 7/7/7
f 3/4/4 4/5/5 9/14/12
f 4/5/5 17/21/18 9/14/12
f 15/19/16 6/8/8 18/22/19
f 8/10/8 1/11/9 19/23/19
f 20/24/20 15/19/16 18/22/19
f 33/25/21 19/23/19 1/11/9
f 19/23/19 33/25/21 21/26/20
f 1/11/9 11/15/13 33/25/21
f 15/19/16 22/27/22 7/7/7
f 15/19/16 20/24/20 23/28/23
f 23/28/23 22/27/22 15/19/16
f 10/13/11 9/14/12 51/29/24
f 9/14/12 25/30/25 51/29/24
f 12/16/14 16/20/17 26/31/15
f 4/5/5 14/18/15 27/32/26
f 7/7/7 22/27/22 16/20/17
f 17/21/18 4/5/5 27/32/26
f 28/33/27 26/31/15 16/20/17
f 29/34/27 27/32/26 14/18/15
f 22/27/22 30/35/28 16/20/17
f 31/36/29 17/21/18 27/32/26
f 17/21/18 25/30/25 9/14/12
f 17/21/18 32/37/30 25/30/25
f 21/26/20 33/25/21 34/38/31
f 33/25/21 11/15/13 45/39/32
f 35/40/31 23/28/23 20/24/20
f 23/28/23 35/40/31 36/41/33
f 37/42/34 34/38/31 33/25/21
f 34/38/31 37/42/34 38/43/35
f 39/44/36 38/43/35 37/42/34
f 39/44/36 37/42/34 40/45/37
f 45/39/32 37/42/34 33/25/21
f 37/42/34 45/39/32 41/46/38
f 37/42/34 41/46/38 40/45/37
f 42/47/35 36/41/33 35/40/31
f 36/41/33 42/47/35 43/48/39
f 44/49/36 43/48/39 42/47/35
f 45/39/32 46/50/40 41/46/38
f 23/28/23 36/41/33 47/51/41
f 43/48/39 47/51/41 36/41/33
f 48/52/42 24/12/10 10/13/11
f 51/29/24 48/52/42 10/13/11
f 24/12/10 49/53/43 11/15/13
f 24/12/10 48/52/42 49/53/43
f 11/15/13 49/53/43 50/54/44
f 52/57/47 53/56/46 54/55/45
f 54/55/45 53/56/46 55/58/48
f 11/15/13 50/54/44 56/59/49
f 11/15/13 56/59/49 45/39/32
f 45/39/32 57/60/50 46/50/40
f 57/60/50 45/39/32 56/59/49
f 27/32/26 29/34/27 31/36/29
f 16/20/17 30/35/28 28/33/27
f 17/21/18 31/36/29 58/61/51
f 59/62/52 28/33/27 30/35/28
f 55/58/48 32/37/30 54/55/45
f 60/63/52 31/36/29 29/34/27
f 22/27/22 61/64/53 30/35/28
f 31/36/29 62/65/54 58/61/51
f 22/27/22 23/28/23 63/66/55
f 32/37/30 17/21/18 58/61/51
f 58/61/51 54/55/45 32/37/30
f 31/36/29 60/63/52 64/67/56
f 30/35/28 61/64/53 59/62/52
f 64/67/56 62/65/54 31/36/29
f 65/68/57 64/67/56 60/63/52
f 59/62/52 61/64/53 66/69/57
f 64/67/56 65/68/57 67/70/58
f 65/68/57 94/71/59 67/70/58
f 63/66/55 68/72/60 61/64/53
f 61/64/53 68/72/60 66/69/57
f 94/71/59 65/68/57 69/73/60
f 67/70/58 70/74/61 64/67/56
f 64/67/56 70/74/61 62/65/54
f 94/71/59 71/75/62 67/70/58
f 67/70/58 71/75/62 70/74/61
f 61/64/53 22/27/22 63/66/55
f 54/55/45 58/61/51 62/65/54
f 70/74/61 52/57/47 62/65/54
f 73/76/63 70/74/61 71/75/62
f 62/65/54 52/57/47 54/55/45
f 70/74/61 73/76/63 52/57/47
f 23/28/23 47/51/41 63/66/55
f 47/51/41 72/77/64 63/66/55
f 74/79/66 72/77/64 75/78/65
f 76/81/65 94/71/59 77/80/66
f 94/71/59 76/81/65 78/82/67
f 79/85/70 80/84/69 81/83/68
f 81/83/68 82/87/72 83/86/71
f 82/87/72 85/88/73 83/86/71
f 86/91/76 84/90/75 87/89/74
f 87/89/74 72/77/64 47/51/41
f 78/82/67 88/92/77 94/71/59
f 88/92/77 78/82/67 108/93/78
f 89/3/3 90/95/80 91/94/79
f 72/77/64 87/89/74 92/96/81
f 87/89/74 84/90/75 92/96/81
f 85/88/73 82/87/72 93/97/75
f 82/87/72 81/83/68 80/84/69
f 92/96/81 75/78/65 72/77/64
f 77/80/66 94/71/59 95/98/82
f 63/66/55 72/77/64 74/79/66
f 63/66/55 74/79/66 96/99/82
f 69/73/60 95/98/82 94/71/59
f 68/72/60 63/66/55 96/99/82
f 75/78/65 92/96/81 97/100/83
f 98/101/83 78/82/67 76/81/65
f 94/71/59 88/92/77 71/75/62
f 78/82/67 98/101/83 99/102/84
f 92/96/81 100/103/85 97/100/83
f 84/90/75 100/103/85 92/96/81
f 101/104/85 93/97/75 82/87/72
f 82/87/72 102/105/86 101/104/85
f 103/106/85 99/102/84 98/101/83
f 99/102/84 103/106/85 104/107/86
f 99/102/84 108/93/78 78/82/67
f 108/93/78 99/102/84 105/108/87
f 80/84/69 102/105/86 82/87/72
f 102/105/86 80/84/69 106/109/88
f 104/107/86 105/108/87 99/102/84
f 105/108/87 104/107/86 107/110/88
f 80/84/69 79/85/70 109/111/89
f 109/111/89 106/109/88 80/84/69
f 107/110/88 110/112/90 105/108/87
f 108/93/78 105/108/87 124/1/1
f 106/109/88 109/111/89 111/113/90
f 105/108/87 110/112/90 124/1/1
f 90/95/80 89/3/3 112/114/91
f 113/115/92 89/3/3 91/94/79
f 114/118/93 115/117/79 116/116/80
f 115/117/79 114/118/93 194/119/94
f 117/122/91 118/121/93 119/120/80
f 118/121/93 117/122/91 122/123/95
f 124/1/1 112/114/91 89/3/3
f 112/114/91 124/1/1 125/124/96
f 126/125/97 122/123/95 117/122/91
f 123/128/100 127/127/99 121/126/98
f 128/129/96 126/125/97 117/122/91
f 132/2/2 89/3/3 113/115/92
f 79/85/70 129/130/101 123/128/100
f 1/11/9 2/6/6 3/4/4
f 114/118/93 130/131/102 194/119/94
f 122/123/95 131/132/102 118/121/93
f 123/128/100 122/123/95 126/125/97
f 124/1/1 110/112/90 125/124/96
f 109/111/89 126/125/97 128/129/96
f 129/130/101 127/127/99 123/128/100
f 128/129/96 111/113/90 109/111/89
f 133/133/103 127/127/99 129/130/101
f 124/1/1 132/2/2 108/93/78
f 109/111/89 79/85/70 126/125/97
f 132/2/2 88/92/77 108/93/78
f 122/123/95 121/126/98 131/132/102
f 122/123/95 123/128/100 121/126/98
f 121/126/98 120/134/104 131/132/102
f 79/85/70 123/128/100 126/125/97
f 40/45/37 41/46/38 134/135/105
f 43/48/39 44/49/36 135/136/106
f 136/137/107 39/44/36 40/45/37
f 39/44/36 136/137/107 137/138/106
f 40/45/37 138/139/108 136/137/107
f 139/140/109 129/130/101 79/85/70
f 140/141/110 129/130/101 139/140/109
f 129/130/101 140/141/110 133/133/103
f 57/60/50 133/133/103 140/141/110
f 138/139/108 40/45/37 134/135/105
f 46/50/40 57/60/50 140/141/110
f 41/46/38 140/141/110 134/135/105
f 140/141/110 41/46/38 46/50/40
f 139/140/109 134/135/105 140/141/110
f 134/135/105 139/140/109 138/139/108
f 138/139/108 139/140/109 81/83/68
f 47/51/41 43/48/39 87/89/74
f 135/136/106 87/89/74 43/48/39
f 83/86/71 137/138/106 136/137/107
f 87/89/74 135/136/106 86/91/76
f 137/138/106 83/86/71 85/88/73
f 136/137/107 138/139/108 81/83/68
f 83/86/71 136/137/107 81/83/68
f 81/83/68 139/140/109 79/85/70
f 141/144/113 142/143/112 143/142/111
f 50/54/44 179/145/114 56/59/49
f 179/145/114 50/54/44 143/142/111
f 144/148/117 145/147/116 146/146/115
f 145/147/116 147/149/118 146/146/115
f 148/151/120 146/146/115 149/150/119
f 150/154/122 151/153/121 152/152/119
f 149/150/119 146/146/115 153/155/123
f 150/154/122 152/152/119 154/156/123
f 25/30/25 150/154/122 51/29/24
f 51/29/24 150/154/122 155/157/124
f 147/149/118 145/147/116 156/158/113
f 143/142/111 157/159/125 141/144/113
f 157/159/125 158/160/118 141/144/113
f 146/146/115 147/149/118 153/155/123
f 157/159/125 154/156/123 158/160/118
f 154/156/123 157/159/125 155/157/124
f 155/157/124 150/154/122 154/156/123
f 50/54/44 157/159/125 143/142/111
f 50/54/44 49/53/43 157/159/125
f 49/53/43 155/157/124 157/159/125
f 155/157/124 48/52/42 51/29/24
f 155/157/124 49/53/43 48/52/42
f 161/163/128 162/162/127 163/161/126
f 164/164/129 161/163/128 163/161/126
f 165/165/130 52/57/47 73/76/63
f 52/57/47 165/165/130 53/56/46
f 73/76/63 166/166/131 165/165/130
f 88/92/77 166/166/131 73/76/63
f 145/147/116 167/167/112 156/158/113
f 88/92/77 132/2/2 166/166/131
f 179/145/114 143/142/111 142/143/112
f 168/169/133 169/168/132 145/147/116
f 167/167/112 145/147/116 169/168/132
f 170/172/136 171/171/135 172/170/134
f 150/154/122 25/30/25 151/153/121
f 173/173/120 152/152/119 151/153/121
f 146/146/115 148/151/120 144/148/117
f 168/169/133 145/147/116 144/148/117
f 32/37/30 151/153/121 25/30/25
f 151/153/121 171/171/135 173/173/120
f 174/174/136 144/148/117 148/151/120
f 160/175/137 168/169/133 144/148/117
f 55/58/48 175/176/138 171/171/135
f 176/177/139 171/171/135 175/176/138
f 171/171/135 176/177/139 172/170/134
f 177/179/139 160/175/137 159/178/134
f 169/168/132 168/169/133 162/162/127
f 163/161/126 162/162/127 168/169/133
f 159/178/134 160/175/137 174/174/136
f 164/164/129 163/161/126 160/175/137
f 171/171/135 32/37/30 55/58/48
f 178/180/140 164/164/129 160/175/137
f 53/56/46 175/176/138 55/58/48
f 175/176/138 53/56/46 165/165/130
f 142/143/112 180/181/141 179/145/114
f 169/168/132 181/182/141 167/167/112
f 165/165/130 182/183/142 175/176/138
f 166/166/131 182/183/142 165/165/130
f 182/183/142 166/166/131 183/184/143
f 175/176/138 182/183/142 176/177/139
f 182/183/142 184/185/140 176/177/139
f 160/175/137 177/179/139 178/180/140
f 164/164/129 178/180/140 185/186/144
f 183/184/143 184/185/140 182/183/142
f 184/185/140 183/184/143 186/187/144
f 166/166/131 113/115/92 183/184/143
f 132/2/2 113/115/92 166/166/131
f 164/164/129 185/186/144 187/188/145
f 183/184/143 188/189/145 186/187/144
f 183/184/143 113/115/92 188/189/145
f 162/162/127 189/190/146 169/168/132
f 169/168/132 189/190/146 181/182/141
f 161/163/128 191/192/148 190/191/147
f 192/193/149 56/59/49 179/145/114
f 193/194/150 190/191/147 194/119/94
f 56/59/49 192/193/149 57/60/50
f 130/131/102 195/195/104 194/119/94
f 57/60/50 196/196/151 133/133/103
f 191/192/148 194/119/94 190/191/147
f 196/196/151 57/60/50 192/193/149
f 197/197/152 179/145/114 180/181/141
f 179/145/114 197/197/152 192/193/149
f 196/196/151 192/193/149 198/198/153
f 192/193/149 197/197/152 198/198/153
f 127/127/99 133/133/103 196/196/151
f 189/190/146 199/199/152 181/182/141
f 199/199/152 189/190/146 200/200/154
f 190/191/147 200/200/154 189/190/146
f 198/198/153 127/127/99 196/196/151
f 191/192/148 161/163/128 164/164/129
f 127/127/99 198/198/153 201/201/155
f 187/188/145 191/192/148 164/164/129
f 113/115/92 202/202/156 188/189/145
f 191/192/148 187/188/145 203/203/156
f 200/200/154 204/204/153 199/199/152
f 205/205/155 204/204/153 200/200/154
f 201/201/155 121/126/98 127/127/99
f 193/194/150 205/205/155 200/200/154
f 189/190/146 162/162/127 190/191/147
f 161/163/128 190/191/147 162/162/127
f 200/200/154 190/191/147 193/194/150
f 121/126/98 201/201/155 120/134/104
f 195/195/104 205/205/155 193/194/150
f 191/192/148 115/117/79 194/119/94
f 115/117/79 191/192/148 203/203/156
f 113/115/92 91/94/79 202/202/156
f 194/119/94 195/195/104 193/194/150
f 163/161/126 168/169/133 160/175/137
f 144/148/117 174/174/136 160/175/137
f 170/172/136 173/173/120 171/171/135
f 151/153/121 32/37/30 171/171/135
f 71/75/62 88/92/77 73/76/63

